<?xml version="1.0" standalone="no"?><!DOCTYPE svg PUBLIC "-//W3C//DTD SVG 1.1//EN" "http://www.w3.org/Graphics/SVG/1.1/DTD/svg11.dtd"><svg class="icon" width="128px" height="128.00px" viewBox="0 0 1024 1024" version="1.1" xmlns="http://www.w3.org/2000/svg"><path fill="#666666" d="M512 773.546667a34.133333 34.133333 0 0 1-12.8-2.56A551.253333 551.253333 0 0 0 276.053333 725.333333h-24.746666a31.573333 31.573333 0 0 1-32-32V170.666667a32 32 0 0 1 32-32h29.866666A814.506667 814.506667 0 0 1 512 170.666667a814.506667 814.506667 0 0 1 230.826667-33.706667h29.866666a32 32 0 0 1 32 32v523.093333a31.573333 31.573333 0 0 1-32 32h-24.746666a551.253333 551.253333 0 0 0-223.146667 46.933334 34.133333 34.133333 0 0 1-12.8 2.56z m-228.693333-113.493334a618.666667 618.666667 0 0 1 228.693333 46.933334 618.666667 618.666667 0 0 1 228.693333-46.933334V202.666667a737.28 737.28 0 0 0-219.306666 33.706666 28.16 28.16 0 0 1-18.773334 0 737.28 737.28 0 0 0-219.306666-33.706666zM512 885.333333a34.133333 34.133333 0 0 1-12.8-2.56 551.253333 551.253333 0 0 0-223.146667-46.933333h-24.746666a32 32 0 0 1 0-64h24.746666a612.693333 612.693333 0 0 1 235.946667 46.933333 612.693333 612.693333 0 0 1 235.946667-46.933333h24.746666a32 32 0 0 1 0 64h-24.746666a551.253333 551.253333 0 0 0-223.146667 46.933333 34.133333 34.133333 0 0 1-12.8 2.56z" /></svg>