<?xml version="1.0" standalone="no"?><!DOCTYPE svg PUBLIC "-//W3C//DTD SVG 1.1//EN" "http://www.w3.org/Graphics/SVG/1.1/DTD/svg11.dtd"><svg class="icon" width="128px" height="128.00px" viewBox="0 0 1024 1024" version="1.1" xmlns="http://www.w3.org/2000/svg"><path fill="#666666" d="M594.346667 528.64l-50.346667 49.92V416a32 32 0 0 0-64 0v162.133333l-51.2-49.92a32 32 0 0 0-45.226667 0 32.853333 32.853333 0 0 0 0 45.653334l105.386667 103.68a33.706667 33.706667 0 0 0 22.613333 9.386666 31.573333 31.573333 0 0 0 22.186667-9.386666L640 574.293333a32.853333 32.853333 0 0 0 0-45.653333 32 32 0 0 0-45.653333 0zM909.653333 426.666667a265.386667 265.386667 0 0 0-272.213333-142.933334l-2.986667-2.986666a232.533333 232.533333 0 0 0-324.266666 0 223.146667 223.146667 0 0 0-65.28 131.84 200.533333 200.533333 0 0 0-99.413334 54.186666A196.693333 196.693333 0 0 0 85.333333 608.853333 202.666667 202.666667 0 0 0 288.853333 810.666667h381.013334a267.52 267.52 0 0 0 268.8-265.386667 261.973333 261.973333 0 0 0-29.013334-118.613333z m-239.786666 320H288.853333a139.093333 139.093333 0 0 1-139.52-137.813334 133.546667 133.546667 0 0 1 42.666667-96.426666 135.253333 135.253333 0 0 1 87.466667-39.68 32.853333 32.853333 0 0 0 29.44-32.853334 161.706667 161.706667 0 0 1 46.08-114.773333 168.533333 168.533333 0 0 1 234.666666 0 121.6 121.6 0 0 1 9.813334 11.093333 32.853333 32.853333 0 0 0 31.146666 11.946667 210.773333 210.773333 0 0 1 39.253334-3.84 203.946667 203.946667 0 0 1 183.466666 110.08 192 192 0 0 1 22.186667 90.88 203.52 203.52 0 0 1-205.653333 201.386667z" /></svg>