<?xml version="1.0" standalone="no"?><!DOCTYPE svg PUBLIC "-//W3C//DTD SVG 1.1//EN" "http://www.w3.org/Graphics/SVG/1.1/DTD/svg11.dtd"><svg class="icon" width="128px" height="128.00px" viewBox="0 0 1024 1024" version="1.1" xmlns="http://www.w3.org/2000/svg"><path fill="#666666" d="M798.72 565.333333A31.573333 31.573333 0 0 0 768 597.333333a310.186667 310.186667 0 0 1-312.746667 279.466667 313.6 313.6 0 0 1-305.92-306.773333A309.76 309.76 0 0 1 428.8 256a31.573333 31.573333 0 0 0 29.866667-31.146667 32 32 0 0 0-35.413334-31.573333 373.333333 373.333333 0 1 0 407.04 407.04 32 32 0 0 0-31.573333-34.986667zM544 85.333333a32.426667 32.426667 0 0 0-32 32v277.333334A117.333333 117.333333 0 0 0 629.333333 512h277.333334a32.426667 32.426667 0 0 0 32-32A395.093333 395.093333 0 0 0 544 85.333333z m85.333333 362.666667a53.333333 53.333333 0 0 1-53.333333-53.333333V151.04a330.24 330.24 0 0 1 298.666667 298.666667z" /></svg>