<?xml version="1.0" standalone="no"?><!DOCTYPE svg PUBLIC "-//W3C//DTD SVG 1.1//EN" "http://www.w3.org/Graphics/SVG/1.1/DTD/svg11.dtd"><svg class="icon" width="128px" height="128.00px" viewBox="0 0 1024 1024" version="1.1" xmlns="http://www.w3.org/2000/svg"><path fill="#666666" d="M861.866667 219.306667l-170.666667-104.106667a117.333333 117.333333 0 0 0-81.92-15.786667 119.893333 119.893333 0 0 0-85.333333-9.813333L331.093333 142.933333a118.613333 118.613333 0 0 0-82.773333 82.346667l-138.24 477.866667A120.746667 120.746667 0 0 0 192 853.333333l184.32 51.2a119.893333 119.893333 0 0 0 82.773333 34.133334h341.333334a119.893333 119.893333 0 0 0 119.466666-119.466667V321.28a119.893333 119.893333 0 0 0-58.026666-101.973333zM209.92 790.186667A56.32 56.32 0 0 1 170.666667 721.066667L309.76 243.2a55.04 55.04 0 0 1 38.4-38.826667L479.146667 170.666667 396.373333 219.306667A118.186667 118.186667 0 0 0 341.333333 321.28V819.2a51.626667 51.626667 0 0 0 0 8.106667zM853.333333 819.2a55.466667 55.466667 0 0 1-55.466666 55.466667h-341.333334a55.893333 55.893333 0 0 1-42.666666-19.626667 54.613333 54.613333 0 0 1-13.226667-35.84V321.28a55.04 55.04 0 0 1 26.453333-47.36L597.333333 170.666667a68.693333 68.693333 0 0 1 14.506667-6.4 50.346667 50.346667 0 0 1 15.786667-2.133334 54.186667 54.186667 0 0 1 29.013333 8.106667l170.666667 104.533333A55.466667 55.466667 0 0 1 853.333333 321.28zM628.906667 248.32a85.333333 85.333333 0 1 0 85.333333 85.333333 85.333333 85.333333 0 0 0-85.333333-85.333333z m0 104.106667a20.053333 20.053333 0 0 1 0-40.106667 20.053333 20.053333 0 0 1 0 40.106667z" /></svg>