<?xml version="1.0" standalone="no"?><!DOCTYPE svg PUBLIC "-//W3C//DTD SVG 1.1//EN" "http://www.w3.org/Graphics/SVG/1.1/DTD/svg11.dtd"><svg class="icon" width="128px" height="128.00px" viewBox="0 0 1024 1024" version="1.1" xmlns="http://www.w3.org/2000/svg"><path fill="#666666" d="M821.333333 144.213333H202.666667A117.333333 117.333333 0 0 0 85.333333 261.12v341.333333a117.333333 117.333333 0 0 0 117.333334 117.333334h136.106666l150.613334 150.613333a32.853333 32.853333 0 0 0 45.226666 0l150.613334-150.613333h136.106666A117.333333 117.333333 0 0 0 938.666667 602.88v-341.333333a117.333333 117.333333 0 0 0-117.333334-117.333334z m53.333334 458.666667a53.333333 53.333333 0 0 1-53.333334 53.333333h-149.333333a31.573333 31.573333 0 0 0-22.613333 8.96L512 802.56l-137.386667-137.386667a31.573333 31.573333 0 0 0-22.613333-8.96h-149.333333a53.333333 53.333333 0 0 1-53.333334-53.333333v-341.333333a52.906667 52.906667 0 0 1 53.333334-53.333334h618.666666a52.906667 52.906667 0 0 1 53.333334 52.906667zM512 573.44m-29.44 0a29.44 29.44 0 1 0 58.88 0 29.44 29.44 0 1 0-58.88 0ZM512 277.333333a37.546667 37.546667 0 0 0-37.546667 38.826667l8.106667 149.76a29.44 29.44 0 1 0 58.88 0l8.106667-149.76A37.12 37.12 0 0 0 512 277.333333z" /></svg>