<?xml version="1.0" standalone="no"?><!DOCTYPE svg PUBLIC "-//W3C//DTD SVG 1.1//EN" "http://www.w3.org/Graphics/SVG/1.1/DTD/svg11.dtd"><svg class="icon" width="128px" height="128.00px" viewBox="0 0 1024 1024" version="1.1" xmlns="http://www.w3.org/2000/svg"><path fill="#666666" d="M650.666667 619.093333v-153.6a32.426667 32.426667 0 0 0-32-32h-6.4v-29.44a101.12 101.12 0 1 0-202.24 0v29.44H405.333333a32.426667 32.426667 0 0 0-32 32v153.6a32 32 0 0 0 32 32h213.333334a32 32 0 0 0 32-32z m-176.64-213.333333a37.12 37.12 0 0 1 74.24 0v29.44h-74.24z m112.64 183.04h-149.333334v-89.6h149.333334zM815.36 213.333333h85.333333a32 32 0 0 0 0-64h-167.68a32 32 0 0 0-31.146666 26.88 35.413333 35.413333 0 0 0 0 14.933334v156.586666a32 32 0 0 0 64 0V253.013333A362.24 362.24 0 0 1 512 874.666667a32 32 0 0 0 0 64 426.666667 426.666667 0 0 0 303.36-725.333334zM335.36 682.666667a32 32 0 0 0-64 0v101.973333A362.24 362.24 0 0 1 512 149.333333 32 32 0 0 0 512 85.333333a426.666667 426.666667 0 0 0-298.666667 730.453334H136.533333a32 32 0 1 0 0 64h170.666667a36.693333 36.693333 0 0 0 9.813333-2.56l6.826667-4.266667 3.413333-3.84s3.413333-2.133333 4.266667-3.84a30.293333 30.293333 0 0 0 3.84-22.613333z" /></svg>