<?xml version="1.0" standalone="no"?><!DOCTYPE svg PUBLIC "-//W3C//DTD SVG 1.1//EN" "http://www.w3.org/Graphics/SVG/1.1/DTD/svg11.dtd"><svg class="icon" width="128px" height="128.00px" viewBox="0 0 1024 1024" version="1.1" xmlns="http://www.w3.org/2000/svg"><path fill="#666666" d="M733.013333 288a32 32 0 0 0 32-32V202.666667A117.333333 117.333333 0 0 0 648.106667 85.333333H186.88a115.626667 115.626667 0 0 0-46.933333 9.813334 117.333333 117.333333 0 0 0-32.426667 20.906666 116.053333 116.053333 0 0 0-37.973333 85.333334v618.666666A117.333333 117.333333 0 0 0 186.88 938.666667h461.226667a117.333333 117.333333 0 0 0 116.906666-117.333334V768a32 32 0 0 0-64 0v53.333333a52.906667 52.906667 0 0 1-52.906666 53.333334H286.293333L384 840.106667A75.093333 75.093333 0 0 0 433.066667 768V256A74.666667 74.666667 0 0 0 384 183.466667l-93.013333-34.133334h357.12a52.906667 52.906667 0 0 1 52.906666 53.333334V256a32.426667 32.426667 0 0 0 32 32z m-371.2-42.666667a10.666667 10.666667 0 0 1 7.253334 10.666667v512a11.093333 11.093333 0 0 1-7.253334 10.24l-213.333333 76.373333a52.053333 52.053333 0 0 1-13.653333-34.986666V202.666667a52.48 52.48 0 0 1 15.36-37.12zM954.453333 512a32.426667 32.426667 0 0 1-32 32h-199.68l63.573334 62.72a32 32 0 0 1 0 45.226667 31.146667 31.146667 0 0 1-22.613334 9.386666 31.573333 31.573333 0 0 1-22.613333-9.386666l-118.613333-117.333334a32 32 0 0 1 0-45.226666l118.613333-117.333334a32 32 0 0 1 45.226667 45.226667l-63.573334 62.72h199.68a32.426667 32.426667 0 0 1 32 32z" /></svg>