<?xml version="1.0" standalone="no"?><!DOCTYPE svg PUBLIC "-//W3C//DTD SVG 1.1//EN" "http://www.w3.org/Graphics/SVG/1.1/DTD/svg11.dtd"><svg class="icon" width="128px" height="128.00px" viewBox="0 0 1024 1024" version="1.1" xmlns="http://www.w3.org/2000/svg"><path fill="#666666" d="M756.053333 736A32 32 0 0 0 725.333333 768v53.333333a53.333333 53.333333 0 0 1-53.333333 53.333334h-362.666667l96.853334-34.56A75.093333 75.093333 0 0 0 455.68 768V256a74.666667 74.666667 0 0 0-49.066667-72.533333l-92.586666-34.133334h356.693333A53.333333 53.333333 0 0 1 725.333333 202.666667V256a32 32 0 0 0 64 0V202.666667A117.333333 117.333333 0 0 0 670.72 85.333333H209.493333a113.92 113.92 0 0 0-55.893333 14.933334 117.76 117.76 0 0 0-59.733333 101.973333v618.666667a116.906667 116.906667 0 0 0 51.2 98.133333 114.773333 114.773333 0 0 0 64.426666 19.626667h461.226667a117.333333 117.333333 0 0 0 117.333333-117.333334V768a32.426667 32.426667 0 0 0-32-32zM391.68 256v512a11.093333 11.093333 0 0 1-7.253333 10.24L170.666667 856.32a51.2 51.2 0 0 1-13.653334-34.986667V202.666667A52.48 52.48 0 0 1 170.666667 165.12l213.333333 78.506667a10.666667 10.666667 0 0 1 7.68 12.373333zM929.28 524.373333a37.12 37.12 0 0 0 0-24.746666 34.56 34.56 0 0 0-7.253333-10.24l-118.613334-117.333334a32 32 0 1 0-45.226666 45.226667l63.573333 62.72h-199.68a32 32 0 1 0 0 64h199.68l-63.573333 62.72a32 32 0 0 0 0 45.226667 31.146667 31.146667 0 0 0 22.613333 9.386666 31.573333 31.573333 0 0 0 22.613333-9.386666l118.613334-117.333334a34.56 34.56 0 0 0 7.253333-10.24z" /></svg>