<?xml version="1.0" standalone="no"?><!DOCTYPE svg PUBLIC "-//W3C//DTD SVG 1.1//EN" "http://www.w3.org/Graphics/SVG/1.1/DTD/svg11.dtd"><svg class="icon" width="128px" height="128.00px" viewBox="0 0 1024 1024" version="1.1" xmlns="http://www.w3.org/2000/svg"><path fill="#666666" d="M871.68 653.653333V162.133333a76.8 76.8 0 0 0-107.093333-70.4l-293.12 128a121.173333 121.173333 0 0 0-72.96 110.933334v349.44a139.52 139.52 0 0 0-38.826667-8.533334 200.96 200.96 0 0 0-112.64 28.586667 203.52 203.52 0 0 0-81.493333 83.2 109.653333 109.653333 0 0 0 0 104.106667A111.786667 111.786667 0 0 0 265.386667 938.666667a207.786667 207.786667 0 0 0 102.4-29.013334 167.253333 167.253333 0 0 0 94.293333-147.626666V330.666667a57.6 57.6 0 0 1 34.56-52.906667l293.12-128a12.8 12.8 0 0 1 12.373333 0 12.373333 12.373333 0 0 1 5.546667 10.666667v405.333333a180.906667 180.906667 0 0 0-151.893333 20.053333c-80.213333 46.08-116.48 128-82.773334 187.306667a109.653333 109.653333 0 0 0 90.88 50.773333h10.24a205.653333 205.653333 0 0 0 102.4-29.44 204.8 204.8 0 0 0 81.493334-82.773333 128 128 0 0 0 13.653333-58.026667zM335.786667 853.333333c-51.626667 29.866667-102.826667 24.746667-116.053334 0a47.786667 47.786667 0 0 1 3.413334-42.666666 138.666667 138.666667 0 0 1 55.893333-56.32 145.92 145.92 0 0 1 70.4-20.48h5.973333a49.493333 49.493333 0 0 1 39.68 19.2c13.653333 24.32-7.68 71.253333-59.306666 100.266666z m465.066666-170.666666a150.613333 150.613333 0 0 1-132.266666 76.373333 47.786667 47.786667 0 0 1-39.68-18.773333c-13.653333-23.466667 7.68-69.973333 59.306666-99.84s102.826667-24.746667 116.053334 0a47.786667 47.786667 0 0 1-3.413334 44.8z" /></svg>