<?xml version="1.0" standalone="no"?><!DOCTYPE svg PUBLIC "-//W3C//DTD SVG 1.1//EN" "http://www.w3.org/Graphics/SVG/1.1/DTD/svg11.dtd"><svg class="icon" width="128px" height="128.00px" viewBox="0 0 1024 1024" version="1.1" xmlns="http://www.w3.org/2000/svg"><path fill="#666666" d="M693.333333 757.333333h-362.666666a245.333333 245.333333 0 0 1 0-490.666666h362.666666a245.333333 245.333333 0 0 1 0 490.666666z m-362.666666-426.666666a181.333333 181.333333 0 0 0 0 362.666666h362.666666a181.333333 181.333333 0 0 0 0-362.666666zM682.666667 650.666667A138.666667 138.666667 0 1 1 821.333333 512 139.093333 139.093333 0 0 1 682.666667 650.666667z m0-213.333334A74.666667 74.666667 0 1 0 757.333333 512 75.093333 75.093333 0 0 0 682.666667 437.333333z" /></svg>