<?xml version="1.0" standalone="no"?><!DOCTYPE svg PUBLIC "-//W3C//DTD SVG 1.1//EN" "http://www.w3.org/Graphics/SVG/1.1/DTD/svg11.dtd"><svg class="icon" width="128px" height="128.00px" viewBox="0 0 1024 1024" version="1.1" xmlns="http://www.w3.org/2000/svg"><path fill="#666666" d="M512 85.333333a426.666667 426.666667 0 1 0 426.666667 426.666667A426.666667 426.666667 0 0 0 512 85.333333z m32 787.626667V768a32 32 0 0 0-64 0v104.96a362.666667 362.666667 0 0 1-328.96-328.96H256a32 32 0 0 0 0-64H151.04a362.666667 362.666667 0 0 1 328.96-328.96V256a32 32 0 0 0 64 0V151.04a362.666667 362.666667 0 0 1 328.96 328.96H768a32 32 0 0 0 0 64h104.96a362.666667 362.666667 0 0 1-328.96 328.96zM512 373.333333A138.666667 138.666667 0 1 0 650.666667 512 139.093333 139.093333 0 0 0 512 373.333333z m0 213.333334A74.666667 74.666667 0 1 1 586.666667 512 75.093333 75.093333 0 0 1 512 586.666667z" /></svg>