<?xml version="1.0" standalone="no"?><!DOCTYPE svg PUBLIC "-//W3C//DTD SVG 1.1//EN" "http://www.w3.org/Graphics/SVG/1.1/DTD/svg11.dtd"><svg class="icon" width="128px" height="128.00px" viewBox="0 0 1024 1024" version="1.1" xmlns="http://www.w3.org/2000/svg"><path fill="#666666" d="M821.333333 128H202.666667A117.333333 117.333333 0 0 0 85.333333 245.333333v533.333334A117.333333 117.333333 0 0 0 202.666667 896h618.666666A117.333333 117.333333 0 0 0 938.666667 778.666667V245.333333A117.333333 117.333333 0 0 0 821.333333 128zM202.666667 192h618.666666a53.333333 53.333333 0 0 1 53.333334 53.333333v106.666667h-725.333334v-106.666667A53.333333 53.333333 0 0 1 202.666667 192z m618.666666 640H202.666667a53.333333 53.333333 0 0 1-53.333334-53.333333v-362.666667h725.333334v362.666667a53.333333 53.333333 0 0 1-53.333334 53.333333zM256 266.666667m-32 0a32 32 0 1 0 64 0 32 32 0 1 0-64 0Z" /></svg>