<?xml version="1.0" standalone="no"?><!DOCTYPE svg PUBLIC "-//W3C//DTD SVG 1.1//EN" "http://www.w3.org/Graphics/SVG/1.1/DTD/svg11.dtd"><svg class="icon" width="128px" height="128.00px" viewBox="0 0 1024 1024" version="1.1" xmlns="http://www.w3.org/2000/svg"><path fill="#666666" d="M869.546667 682.666667l-76.373334-42.666667 59.733334-15.786667a32 32 0 0 0 22.613333-39.253333 31.573333 31.573333 0 0 0-39.253333-22.613333l-121.173334 32.426666-140.8-82.773333 140.373334-81.066667 121.6 32.426667h8.533333a32 32 0 0 0 8.533333-61.866667L793.173333 384l76.373334-42.666667a32 32 0 1 0-32.426667-55.04l-75.946667 42.666667 16.213334-60.16a32 32 0 1 0-61.866667-12.8L682.666667 375.466667l-139.093334 80.213333V292.693333l89.173334-89.173333a32 32 0 0 0 0-45.226667 32 32 0 0 0-45.226667 0l-42.666667 42.666667v-85.333333a32 32 0 0 0-64 0v85.333333l-42.666666-42.666667a32 32 0 0 0-45.226667 0 32 32 0 0 0 0 45.226667l89.173333 89.173333v164.693334L338.346667 375.466667l-32.853334-122.026667a31.573333 31.573333 0 0 0-38.826666-22.613333 32.426667 32.426667 0 0 0-23.04 39.253333l16.213333 60.16-72.96-42.666667A32 32 0 1 0 154.453333 341.333333l73.386667 42.666667-59.733333 15.786667a32 32 0 0 0 8.106666 63.146666 29.44 29.44 0 0 0 8.533334 0l121.6-32.426666L446.72 512l-140.373333 81.066667-121.6-32.426667a32 32 0 0 0-16.64 61.866667l59.733333 15.786666L154.453333 682.666667a32 32 0 0 0-11.52 42.666666 31.146667 31.146667 0 0 0 42.666667 11.52l72.96-42.666666-16.213333 60.16a32.426667 32.426667 0 0 0 23.04 39.253333h8.106666a31.573333 31.573333 0 0 0 30.72-23.893333l32.853334-121.6 141.653333-81.92v161.706666l-87.893333 89.173334a32 32 0 0 0 0 45.226666 31.573333 31.573333 0 0 0 45.226666 0l42.666667-42.666666v87.893333a32 32 0 0 0 64 0v-88.746667l42.666667 42.666667a30.293333 30.293333 0 0 0 22.613333 9.386667 31.573333 31.573333 0 0 0 22.613333-9.386667 32 32 0 0 0 0-45.226667l-89.173333-88.746666v-159.146667L682.666667 648.533333l32.853333 122.026667a32 32 0 0 0 30.72 23.466667h8.533333a32 32 0 0 0 22.613334-39.253334l-16.213334-60.16 75.946667 42.666667a32 32 0 1 0 32.426667-54.613333z" /></svg>