<?xml version="1.0" standalone="no"?><!DOCTYPE svg PUBLIC "-//W3C//DTD SVG 1.1//EN" "http://www.w3.org/Graphics/SVG/1.1/DTD/svg11.dtd"><svg class="icon" width="128px" height="128.00px" viewBox="0 0 1024 1024" version="1.1" xmlns="http://www.w3.org/2000/svg"><path fill="#666666" d="M416 283.733333A32 32 0 0 0 384 315.733333v64H320a32 32 0 0 0-32 32 32.426667 32.426667 0 0 0 32 32H384v64a32.426667 32.426667 0 0 0 32 32 32.426667 32.426667 0 0 0 32-32v-64H512a32.426667 32.426667 0 0 0 32-32 32 32 0 0 0-32-32h-64V315.733333a32 32 0 0 0-32-32zM906.24 790.186667l-221.44-182.613334a323.413333 323.413333 0 0 0 61.866667-191.573333 330.666667 330.666667 0 1 0-330.666667 330.666667 323.413333 323.413333 0 0 0 190.293333-61.013334l181.76 220.16a82.773333 82.773333 0 1 0 116.906667-114.773333zM416 682.666667A266.666667 266.666667 0 1 1 682.666667 416a256 256 0 0 1-47.786667 150.613333l-20.48 25.6a113.493333 113.493333 0 0 1-22.613333 22.613334l-25.6 20.48A256 256 0 0 1 416 682.666667z m423.68 182.613333l-121.6-147.2 148.48 122.453333a19.2 19.2 0 0 1 8.106667 15.36 18.773333 18.773333 0 0 1-34.986667 9.386667z" /></svg>