<?xml version="1.0" standalone="no"?><!DOCTYPE svg PUBLIC "-//W3C//DTD SVG 1.1//EN" "http://www.w3.org/Graphics/SVG/1.1/DTD/svg11.dtd"><svg class="icon" width="128px" height="128.00px" viewBox="0 0 1024 1024" version="1.1" xmlns="http://www.w3.org/2000/svg"><path fill="#666666" d="M288 379.733333m32 0l192 0q32 0 32 32l0 0q0 32-32 32l-192 0q-32 0-32-32l0 0q0-32 32-32ZM906.24 790.186667l-221.44-182.613334a323.413333 323.413333 0 0 0 61.866667-191.573333 330.666667 330.666667 0 1 0-330.666667 330.666667 323.413333 323.413333 0 0 0 190.293333-61.013334l181.76 220.16a82.773333 82.773333 0 1 0 116.906667-114.773333z m-334.08-159.146667l-3.413333 2.56A256 256 0 0 1 416 682.666667 266.666667 266.666667 0 1 1 682.666667 416a259.413333 259.413333 0 0 1-48.213334 151.893333l-2.986666 3.413334-6.4 8.106666a99.84 99.84 0 0 1-10.666667 12.373334 139.946667 139.946667 0 0 1-25.173333 25.173333c-2.986667 2.986667-6.4 5.546667-11.093334 9.386667z m267.52 234.24l-121.6-147.2 148.48 122.453333a19.2 19.2 0 0 1 8.106667 15.36 18.773333 18.773333 0 0 1-34.986667 9.386667z" /></svg>