<?xml version="1.0" standalone="no"?><!DOCTYPE svg PUBLIC "-//W3C//DTD SVG 1.1//EN" "http://www.w3.org/Graphics/SVG/1.1/DTD/svg11.dtd"><svg class="icon" width="128px" height="128.00px" viewBox="0 0 1024 1024" version="1.1" xmlns="http://www.w3.org/2000/svg"><path fill="#666666" d="M699.306667 938.666667a30.72 30.72 0 0 1-12.373334-2.56L512 862.293333l-174.506667 73.813334a32.853333 32.853333 0 0 1-30.293333-2.56 32.853333 32.853333 0 0 1-14.506667-26.88v-157.866667h64v109.653333l142.08-60.16a32.426667 32.426667 0 0 1 25.173334 0l143.36 60.16v-109.653333h64v157.866667a32.853333 32.853333 0 0 1-14.506667 26.88 32 32 0 0 1-17.493333 5.12zM512 741.546667a34.133333 34.133333 0 0 1-19.626667-6.826667L423.253333 682.666667l-87.893333 3.413333a30.293333 30.293333 0 0 1-32-23.04l-23.893333-82.346667-72.96-49.066666a31.573333 31.573333 0 0 1-12.373334-37.973334l29.866667-80.213333-29.866667-80.213333a31.573333 31.573333 0 0 1 12.373334-37.973334L279.466667 247.466667l23.893333-82.346667a30.293333 30.293333 0 0 1 32-23.04l87.893333 2.986667 69.12-52.906667a32 32 0 0 1 39.253334 0l69.12 52.906667 87.893333-2.986667a30.293333 30.293333 0 0 1 32 23.04l23.893333 82.346667 72.96 47.786666a31.573333 31.573333 0 0 1 12.373334 37.973334l-29.866667 80.213333 29.866667 80.213333a31.573333 31.573333 0 0 1-12.373334 37.973334l-72.96 47.786666-23.893333 82.346667a30.293333 30.293333 0 0 1-32 23.04L600.746667 682.666667l-69.12 53.333333a34.133333 34.133333 0 0 1-19.626667 5.546667z m-78.506667-124.586667a32.426667 32.426667 0 0 1 19.626667 6.826667L512 669.013333l58.88-45.226666a26.88 26.88 0 0 1 20.906667-6.4l74.666666 2.56 20.053334-69.973334a30.293333 30.293333 0 0 1 13.226666-17.493333l61.44-42.666667-25.6-63.146666a34.133333 34.133333 0 0 1 0-22.613334l25.6-67.413333-61.44-42.24a32.853333 32.853333 0 0 1-13.226666-17.92l-20.053334-69.546667-74.666666 2.56a30.72 30.72 0 0 1-20.906667-6.826666L512 157.866667l-58.88 42.666666a30.72 30.72 0 0 1-20.906667 6.826667l-74.666666-0.426667-20.053334 69.546667a32.853333 32.853333 0 0 1-13.226666 17.92l-61.44 40.106667 25.6 67.413333a34.133333 34.133333 0 0 1 0 22.613333l-25.6 67.413334 61.44 42.666666a30.293333 30.293333 0 0 1 13.226666 17.493334l20.053334 69.973333 74.666666-2.56z" /></svg>