<?xml version="1.0" standalone="no"?><!DOCTYPE svg PUBLIC "-//W3C//DTD SVG 1.1//EN" "http://www.w3.org/Graphics/SVG/1.1/DTD/svg11.dtd"><svg class="icon" width="128px" height="128.00px" viewBox="0 0 1024 1024" version="1.1" xmlns="http://www.w3.org/2000/svg"><path fill="#666666" d="M512 85.333333a426.666667 426.666667 0 1 0 426.666667 426.666667A426.666667 426.666667 0 0 0 512 85.333333z m0 789.333334a362.666667 362.666667 0 1 1 362.666667-362.666667 363.093333 363.093333 0 0 1-362.666667 362.666667zM682.666667 480h-138.666667V341.333333a32 32 0 0 0-64 0v138.666667H341.333333a32 32 0 0 0 0 64h138.666667V682.666667a32 32 0 0 0 64 0v-138.666667H682.666667a32 32 0 0 0 0-64z" /></svg>