<?xml version="1.0" standalone="no"?><!DOCTYPE svg PUBLIC "-//W3C//DTD SVG 1.1//EN" "http://www.w3.org/Graphics/SVG/1.1/DTD/svg11.dtd"><svg class="icon" width="128px" height="128.00px" viewBox="0 0 1024 1024" version="1.1" xmlns="http://www.w3.org/2000/svg"><path fill="#666666" d="M367.573333 42.666667H175.061333A132.394667 132.394667 0 0 0 42.666667 175.061333v192.512a132.394667 132.394667 0 0 0 132.394666 132.394667h192.512a132.394667 132.394667 0 0 0 132.394667-132.394667V175.061333A132.394667 132.394667 0 0 0 367.573333 42.666667zM175.061333 114.858667h192.512c33.28 0 60.16 26.965333 60.16 60.16v192.554666a60.16 60.16 0 0 1-60.16 60.16H175.061333a60.16 60.16 0 0 1-60.16-60.16V175.061333a60.16 60.16 0 0 1 60.16-60.16z m192.512 409.173333H175.061333A132.394667 132.394667 0 0 0 42.666667 656.426667v192.512A132.394667 132.394667 0 0 0 175.061333 981.333333h192.512a132.352 132.352 0 0 0 132.394667-132.394666v-192.512a132.352 132.352 0 0 0-132.394667-132.394667z m-192.512 72.192h192.512a60.16 60.16 0 0 1 60.16 60.16v192.554667a60.16 60.16 0 0 1-60.16 60.16H175.061333a60.16 60.16 0 0 1-60.16-60.16v-192.512a60.16 60.16 0 0 1 60.16-60.16zM752.64 42.666667a228.650667 228.650667 0 1 0 0 457.301333A228.650667 228.650667 0 0 0 752.64 42.666667z m0 72.192a156.458667 156.458667 0 1 1 0 312.917333 156.458667 156.458667 0 0 1 0-312.917333z m96.256 409.173333h-192.512a132.352 132.352 0 0 0-132.394667 132.394667v192.512A132.352 132.352 0 0 0 656.426667 981.333333h192.512A132.352 132.352 0 0 0 981.333333 848.938667v-192.512a132.352 132.352 0 0 0-132.394666-132.394667z m-192.512 72.192h192.512a60.16 60.16 0 0 1 60.16 60.16v192.554667a60.16 60.16 0 0 1-60.16 60.16h-192.512a60.16 60.16 0 0 1-60.16-60.16v-192.512a60.16 60.16 0 0 1 60.16-60.16z" /></svg>