<?xml version="1.0" standalone="no"?><!DOCTYPE svg PUBLIC "-//W3C//DTD SVG 1.1//EN" "http://www.w3.org/Graphics/SVG/1.1/DTD/svg11.dtd"><svg class="icon" width="128px" height="128.00px" viewBox="0 0 1024 1024" version="1.1" xmlns="http://www.w3.org/2000/svg"><path fill="#666666" d="M450.986667 117.333333H197.973333a80.64 80.64 0 0 0-80.64 80.64v253.013334a21.76 21.76 0 0 0 21.333334 21.76h253.013333a81.066667 81.066667 0 0 0 81.066667-81.066667V138.666667a21.76 21.76 0 0 0-21.76-21.333334z m-42.666667 274.346667a17.066667 17.066667 0 0 1-17.066667 17.066667H181.333333V197.973333a16.213333 16.213333 0 0 1 16.64-16.64h210.773334zM826.026667 117.333333h-253.013334a21.76 21.76 0 0 0-21.76 21.333334v253.013333a81.066667 81.066667 0 0 0 81.066667 81.066667h253.013333a21.76 21.76 0 0 0 21.333334-21.76V197.973333a80.64 80.64 0 0 0-80.64-80.64z m16.64 291.413334h-210.346667a17.066667 17.066667 0 0 1-17.066667-17.066667V181.333333h210.773334a16.213333 16.213333 0 0 1 16.64 16.64zM391.68 551.253333H138.666667a21.76 21.76 0 0 0-21.333334 21.76v253.013334a80.64 80.64 0 0 0 80.64 80.64h253.013334a21.76 21.76 0 0 0 21.76-21.333334v-253.013333a81.066667 81.066667 0 0 0-81.066667-81.066667z m17.066667 291.413334H197.973333a16.213333 16.213333 0 0 1-16.64-16.64v-210.773334h210.346667a17.066667 17.066667 0 0 1 17.066667 17.066667zM885.333333 551.253333h-253.013333a81.066667 81.066667 0 0 0-81.066667 81.066667v253.013333a21.76 21.76 0 0 0 21.76 21.333334h253.013334a80.64 80.64 0 0 0 80.64-80.64v-253.013334a21.76 21.76 0 0 0-21.333334-21.76z m-42.666666 274.773334a16.213333 16.213333 0 0 1-16.64 16.64h-210.773334v-210.346667a17.066667 17.066667 0 0 1 17.066667-17.066667h210.346667z" /></svg>