<?xml version="1.0" standalone="no"?><!DOCTYPE svg PUBLIC "-//W3C//DTD SVG 1.1//EN" "http://www.w3.org/Graphics/SVG/1.1/DTD/svg11.dtd"><svg class="icon" width="128px" height="128.00px" viewBox="0 0 1024 1024" version="1.1" xmlns="http://www.w3.org/2000/svg"><path fill="#666666" d="M821.333333 912.213333H202.666667A117.333333 117.333333 0 0 1 85.333333 794.88V346.88a117.333333 117.333333 0 0 1 117.333334-117.333333h618.666666A117.333333 117.333333 0 0 1 938.666667 346.88v448a117.333333 117.333333 0 0 1-117.333334 117.333333zM202.666667 293.546667A53.333333 53.333333 0 0 0 149.333333 346.88v448a53.333333 53.333333 0 0 0 53.333334 53.333333h618.666666a53.333333 53.333333 0 0 0 53.333334-53.333333V346.88a53.333333 53.333333 0 0 0-53.333334-53.333333zM810.666667 175.786667H213.333333a32 32 0 0 1 0-64h597.333334a32 32 0 0 1 0 64zM608 656.213333h-192A75.093333 75.093333 0 0 1 341.333333 581.546667v-64a32 32 0 0 1 64 0v64a10.666667 10.666667 0 0 0 10.666667 10.666666h192a10.666667 10.666667 0 0 0 10.666667-10.666666v-64a32 32 0 0 1 64 0v64a75.093333 75.093333 0 0 1-74.666667 74.666666z" /></svg>