<?xml version="1.0" standalone="no"?><!DOCTYPE svg PUBLIC "-//W3C//DTD SVG 1.1//EN" "http://www.w3.org/Graphics/SVG/1.1/DTD/svg11.dtd"><svg class="icon" width="128px" height="128.00px" viewBox="0 0 1024 1024" version="1.1" xmlns="http://www.w3.org/2000/svg"><path fill="#666666" d="M405.333333 149.333333v725.333334h-256v-725.333334h256m42.666667-64h-341.333333a21.76 21.76 0 0 0-21.333334 21.333334v810.666666a21.76 21.76 0 0 0 21.333334 21.333334h341.333333a21.76 21.76 0 0 0 21.333333-21.333334v-810.666666a21.76 21.76 0 0 0-21.333333-21.333334zM874.666667 149.333333v256h-256v-256h256m42.666666-64h-341.333333a21.76 21.76 0 0 0-21.333333 21.333334v341.333333a21.76 21.76 0 0 0 21.333333 21.333333h341.333333a21.76 21.76 0 0 0 21.333334-21.333333v-341.333333a21.76 21.76 0 0 0-21.333334-21.333334zM874.666667 618.666667v256h-256v-256h256m42.666666-64h-341.333333a21.76 21.76 0 0 0-21.333333 21.333333v341.333333a21.76 21.76 0 0 0 21.333333 21.333334h341.333333a21.76 21.76 0 0 0 21.333334-21.333334v-341.333333a21.76 21.76 0 0 0-21.333334-21.333333z" /></svg>