<?xml version="1.0" standalone="no"?><!DOCTYPE svg PUBLIC "-//W3C//DTD SVG 1.1//EN" "http://www.w3.org/Graphics/SVG/1.1/DTD/svg11.dtd"><svg class="icon" width="128px" height="128.00px" viewBox="0 0 1024 1024" version="1.1" xmlns="http://www.w3.org/2000/svg"><path fill="#666666" d="M938.666667 512a426.666667 426.666667 0 1 0-764.16 260.693333l17.92 20.48A426.666667 426.666667 0 0 0 512 938.666667a403.626667 403.626667 0 0 0 45.653333-2.56 426.666667 426.666667 0 0 0 243.2-110.08 384 384 0 0 0 31.573334-32.853334l16.64-18.773333A422.4 422.4 0 0 0 938.666667 512zM512 149.333333A362.666667 362.666667 0 0 1 804.693333 725.333333a105.813333 105.813333 0 0 0-29.866666-13.226666 298.666667 298.666667 0 0 1-130.56-69.546667 218.88 218.88 0 1 0-260.266667 3.413333 305.066667 305.066667 0 0 1-117.76 62.72l-10.24 2.56a128 128 0 0 0-34.986667 15.36A359.253333 359.253333 0 0 1 149.333333 512 363.093333 363.093333 0 0 1 512 149.333333z m66.986667 459.946667a153.6 153.6 0 0 1-130.56 0A155.306667 155.306667 0 1 1 667.306667 469.333333a156.16 156.16 0 0 1-85.333334 139.093334z m-103.68 263.253333h-11.946667a239.786667 239.786667 0 0 1-24.32-3.84l-12.373333-5.12-21.333334-5.546666-15.786666-4.693334-20.053334-7.68-13.653333-6.4a201.813333 201.813333 0 0 1-19.2-9.813333l-13.226667-7.253333c-6.4-3.84-12.373333-8.106667-18.346666-12.373334l-11.946667-8.106666-18.346667-15.36-9.813333-8.106667 8.106667-2.986667 10.666666-2.986666a364.8 364.8 0 0 0 161.28-92.586667 235.946667 235.946667 0 0 0 33.28 8.106667h4.266667a187.733333 187.733333 0 0 0 31.146667 2.56h5.12a170.666667 170.666667 0 0 0 29.866666-2.56L554.666667 682.666667a256 256 0 0 0 31.146666-8.106667 363.946667 363.946667 0 0 0 173.653334 98.986667l-9.386667 8.106666c-6.4 5.12-12.373333 10.666667-18.773333 15.36l-11.946667 8.533334-18.346667 11.946666-12.8 7.68-19.2 9.813334-14.08 6.4-20.053333 7.68-14.08 4.693333a174.933333 174.933333 0 0 1-21.333333 5.973333l-14.08 3.413334a213.333333 213.333333 0 0 1-23.893334 3.84h-11.946666a360.96 360.96 0 0 1-37.12 2.133333 346.026667 346.026667 0 0 1-37.12 3.413333z" /></svg>