<?xml version="1.0" standalone="no"?><!DOCTYPE svg PUBLIC "-//W3C//DTD SVG 1.1//EN" "http://www.w3.org/Graphics/SVG/1.1/DTD/svg11.dtd"><svg class="icon" width="128px" height="128.00px" viewBox="0 0 1024 1024" version="1.1" xmlns="http://www.w3.org/2000/svg"><path fill="#666666" d="M906.666667 732.586667a29.44 29.44 0 0 1-15.786667-4.266667l-333.226667-188.586667a32 32 0 0 1 0-55.466666l333.226667-188.586667a32 32 0 0 1 31.573333 0 32.426667 32.426667 0 0 1 16.213334 27.733333v377.173334a32.426667 32.426667 0 0 1-16.213334 27.733333 33.706667 33.706667 0 0 1-15.786666 4.266667zM640 512l236.373333 133.546667V378.453333zM450.133333 714.666667a35.84 35.84 0 0 1-14.506666-3.413334l-333.226667-170.666666a32 32 0 0 1 0-57.173334l333.226667-170.666666A32 32 0 0 1 482.133333 341.333333v341.333334a32 32 0 0 1-14.933333 27.306666 34.133333 34.133333 0 0 1-17.066667 4.693334zM187.306667 512l230.826666 118.186667V393.813333z" /></svg>