<?xml version="1.0" standalone="no"?><!DOCTYPE svg PUBLIC "-//W3C//DTD SVG 1.1//EN" "http://www.w3.org/Graphics/SVG/1.1/DTD/svg11.dtd"><svg class="icon" width="128px" height="128.00px" viewBox="0 0 1024 1024" version="1.1" xmlns="http://www.w3.org/2000/svg"><path fill="#666666" d="M831.573333 430.08a116.48 116.48 0 0 0-115.626666-110.506667h-25.173334V266.666667a178.773333 178.773333 0 1 0-357.546666 0v52.906666h-25.173334a116.48 116.48 0 0 0-115.626666 110.506667l-21.76 384a119.04 119.04 0 0 0 32 87.893333 114.346667 114.346667 0 0 0 85.333333 36.266667h449.706667a114.346667 114.346667 0 0 0 85.333333-36.266667 119.04 119.04 0 0 0 30.293333-87.466666zM397.226667 266.666667a114.773333 114.773333 0 1 1 229.546666 0v52.906666H397.226667z m377.6 591.786666a51.2 51.2 0 0 1-37.12 16.213334H286.293333a51.2 51.2 0 0 1-37.12-16.213334 53.333333 53.333333 0 0 1-14.506666-40.106666l21.76-384A52.48 52.48 0 0 1 308.053333 384h25.173334v21.333333a32 32 0 1 0 64 0V384h229.546666v21.333333a32 32 0 0 0 64 0V384h25.173334A52.053333 52.053333 0 0 1 768 433.92l21.76 384a53.333333 53.333333 0 0 1-14.933333 40.533333z" /></svg>