<?xml version="1.0" standalone="no"?><!DOCTYPE svg PUBLIC "-//W3C//DTD SVG 1.1//EN" "http://www.w3.org/Graphics/SVG/1.1/DTD/svg11.dtd"><svg class="icon" width="128px" height="128.00px" viewBox="0 0 1024 1024" version="1.1" xmlns="http://www.w3.org/2000/svg"><path fill="#666666" d="M576 874.666667a63.146667 63.146667 0 0 1-8.533333 32 64 64 0 0 1-110.933334 0 63.146667 63.146667 0 0 1-8.533333-32zM512 149.333333a55.466667 55.466667 0 0 1 55.466667 55.466667 21.333333 21.333333 0 0 1 0 7.253333 213.333333 213.333333 0 0 1 101.12 57.173334A221.013333 221.013333 0 0 1 732.16 426.666667v123.306666a221.866667 221.866667 0 0 0 64.426667 155.733334 36.693333 36.693333 0 0 1 11.093333 26.453333 37.546667 37.546667 0 0 1-37.546667 37.973333H256a37.546667 37.546667 0 0 1-37.546667-37.973333 36.693333 36.693333 0 0 1 11.093334-26.453333 221.866667 221.866667 0 0 0 64.426666-155.733334v-113.92A233.386667 233.386667 0 0 1 457.386667 213.333333a46.933333 46.933333 0 0 1 0-7.68A55.466667 55.466667 0 0 1 512 149.333333M512 85.333333a119.466667 119.466667 0 0 0-113.066667 80.64 301.226667 301.226667 0 0 0-170.666666 270.08v112.213334a155.306667 155.306667 0 0 1-46.08 110.506666A101.973333 101.973333 0 0 0 256 832.426667h516.266667a101.546667 101.546667 0 0 0 71.68-173.653334 156.586667 156.586667 0 0 1-45.653334-110.506666V426.666667a284.16 284.16 0 0 0-170.666666-261.12A119.466667 119.466667 0 0 0 512 85.333333z" /></svg>