<?xml version="1.0" standalone="no"?><!DOCTYPE svg PUBLIC "-//W3C//DTD SVG 1.1//EN" "http://www.w3.org/Graphics/SVG/1.1/DTD/svg11.dtd"><svg class="icon" width="128px" height="128.00px" viewBox="0 0 1024 1024" version="1.1" xmlns="http://www.w3.org/2000/svg"><path fill="#666666" d="M929.45 347.74c-16.84 0-30.5 13.66-30.5 30.5v475c0 24.89-20.25 45.14-45.14 45.14l-683.62 0.06c-12.06 0-23.4-4.7-31.93-13.22-8.53-8.53-13.22-19.87-13.22-31.93l0.18-681.93c0.01-24.85 20.23-45.09 45.07-45.13l469.5-0.68c16.84-0.02 30.48-13.7 30.46-30.54-0.02-16.83-13.67-30.46-30.5-30.46h-0.05l-469.5 0.68c-58.4 0.09-105.95 47.69-105.97 106.12l-0.18 681.93c-0.01 28.36 11.03 55.02 31.08 75.07 20.05 20.05 46.71 31.1 75.07 31.09l683.62-0.06c58.52-0.01 106.13-47.62 106.13-106.14v-475c0-16.84-13.66-30.5-30.5-30.5zM312.79 568.74l-31.42 130.31a35.68 35.68 0 0 0 9.17 34.74 35.692 35.692 0 0 0 34.74 9.17l130.31-32.13c6.33-1.7 12.12-5.03 16.78-9.64l471.97-471.97c20.37-20.7 20.37-53.91 0-74.62l-74.26-74.62c-20.82-20.41-54.15-20.41-74.97 0L322.07 551.96a35.803 35.803 0 0 0-9.28 16.78z m67.84 26.78l451.98-451.98 48.2 48.2-451.99 451.97-63.55 15.35 15.36-63.54z" /></svg>