<?xml version="1.0" standalone="no"?><!DOCTYPE svg PUBLIC "-//W3C//DTD SVG 1.1//EN" "http://www.w3.org/Graphics/SVG/1.1/DTD/svg11.dtd"><svg class="icon" width="128px" height="128.00px" viewBox="0 0 1024 1024" version="1.1" xmlns="http://www.w3.org/2000/svg"><path fill="#666666" d="M512 567.04a462.933333 462.933333 0 0 1-424.106667-277.333333 32 32 0 1 1 58.88-25.6 398.506667 398.506667 0 0 0 730.453334 0 32 32 0 0 1 58.88 25.6 462.933333 462.933333 0 0 1-424.106667 277.333333zM512 779.093333a32 32 0 0 1-32-32v-91.733333a32 32 0 0 1 64 0v91.733333a32 32 0 0 1-32 32zM223.573333 673.706667a32.853333 32.853333 0 0 1-22.613333-9.386667 32 32 0 0 1 0-45.226667L265.813333 554.666667a32 32 0 0 1 45.226667 42.666666l-64.853333 66.986667a33.706667 33.706667 0 0 1-22.613334 9.386667zM800.426667 673.706667a33.706667 33.706667 0 0 1-22.613334-9.386667L712.96 597.333333a32 32 0 0 1 45.226667-42.666666l64.853333 65.28a32 32 0 0 1 0 45.226666 32.853333 32.853333 0 0 1-22.613333 8.533334z" /></svg>