<?xml version="1.0" standalone="no"?><!DOCTYPE svg PUBLIC "-//W3C//DTD SVG 1.1//EN" "http://www.w3.org/Graphics/SVG/1.1/DTD/svg11.dtd"><svg class="icon" width="128px" height="128.00px" viewBox="0 0 1024 1024" version="1.1" xmlns="http://www.w3.org/2000/svg"><path fill="#666666" d="M826.88 476.586667a31.573333 31.573333 0 0 0-25.173333-9.386667l-267.093334 22.613333 22.613334-267.093333a30.72 30.72 0 0 0-9.386667-25.173333 31.573333 31.573333 0 0 0-25.173333-9.386667L218.026667 213.333333a32.426667 32.426667 0 0 0-27.306667 20.906667 32 32 0 0 0 7.253333 33.706667l224.426667 224.853333H219.733333a32 32 0 0 0 0 64H469.333333v247.466667a32 32 0 0 0 64 0v-202.24l224.426667 224.426666a30.293333 30.293333 0 0 0 22.613333 9.386667 31.146667 31.146667 0 0 0 31.573334-29.013333l25.6-305.066667a32.426667 32.426667 0 0 0-10.666667-25.173333zM490.24 256l-16.64 198.4-181.76-182.613333z m261.973333 477.44l-181.333333-181.76 197.12-17.493333z" /></svg>