<?xml version="1.0" standalone="no"?><!DOCTYPE svg PUBLIC "-//W3C//DTD SVG 1.1//EN" "http://www.w3.org/Graphics/SVG/1.1/DTD/svg11.dtd"><svg class="icon" width="128px" height="128.00px" viewBox="0 0 1024 1024" version="1.1" xmlns="http://www.w3.org/2000/svg"><path fill="#666666" d="M902.016 106.666667c32.896 0 49.066667 40.362667 25.386667 63.36C882.773333 213.333333 861.866667 253.738667 861.866667 291.456c0 37.674667 20.906667 77.610667 65.322666 120.149333 23.168 22.144 8.874667 60.842667-21.930666 63.402667l-3.242667 0.128H268.16c-99.797333 0-181.12-80.682667-182.741333-181.248-1.621333-100.565333 77.098667-183.850667 176.853333-187.136l5.888-0.085333h633.856zM823.893333 180.352H362.026667c0.256 1.28 0.512 2.602667 0.597333 3.925333l0.170667 3.541334v83.456c0 19.626667-15.36 35.84-34.816 36.778666a36.693333 36.693333 0 0 1-38.144-33.28l-0.170667-3.498666V187.818667a37.546667 37.546667 0 0 1 0.725333-7.424h-22.186666a110.037333 110.037333 0 0 0-109.226667 100.010666l-0.384 5.290667-0.128 5.205333a110.165333 110.165333 0 0 0 104.533333 110.421334l5.162667 0.128H823.466667l-0.938667-1.408c-19.285333-30.506667-30.464-61.738667-33.152-93.653334l-0.469333-7.978666-0.128-6.954667c0-33.536 9.386667-66.474667 27.648-98.730667l4.394666-7.466666 3.072-4.906667zM122.026667 917.333333h633.856C856.746667 917.333333 938.666667 834.858667 938.666667 733.098667s-81.877333-184.234667-182.826667-184.234667H121.984c-33.024 0-49.152 40.661333-25.173333 63.573333C141.226667 654.933333 162.133333 694.869333 162.133333 732.544c0 37.717333-20.949333 78.122667-65.536 121.429333-23.68 23.04-7.552 63.36 25.386667 63.36z m81.237333-78.592c21.162667-34.645333 32.042667-70.058667 32.042667-106.24l-0.128-6.912c-1.365333-34.688-12.757333-68.565333-33.664-101.632l-0.853334-1.408h555.221334c60.586667 0 109.653333 49.493333 109.653333 110.506667l-0.085333 5.248a110.08 110.08 0 0 1-109.568 105.344H200.106667l3.114666-4.906667z" /></svg>