<?xml version="1.0" standalone="no"?><!DOCTYPE svg PUBLIC "-//W3C//DTD SVG 1.1//EN" "http://www.w3.org/Graphics/SVG/1.1/DTD/svg11.dtd"><svg class="icon" width="128px" height="128.00px" viewBox="0 0 1024 1024" version="1.1" xmlns="http://www.w3.org/2000/svg"><path fill="#666666" d="M560.725333 85.333333a134.101333 134.101333 0 0 1 133.973334 128.725334l0.128 5.376v12.202666h60.970666a182.869333 182.869333 0 0 1 182.784 176.896l0.085334 5.973334v341.333333a182.869333 182.869333 0 0 1-176.938667 182.741333l-5.973333 0.085334H268.117333A182.869333 182.869333 0 0 1 85.333333 761.728l-0.085333-5.930667v-341.333333a182.869333 182.869333 0 0 1 176.938667-182.741333l5.930666-0.085334h60.970667v-12.202666a134.101333 134.101333 0 0 1 128.725333-133.973334L463.189333 85.333333h97.536z m304.768 483.114667h-219.648a134.101333 134.101333 0 0 1-267.776 0H158.378667v187.349333a109.696 109.696 0 0 0 104.533333 109.610667l5.205333 0.128h487.68a109.696 109.696 0 0 0 109.568-104.533333l0.128-5.205334v-187.306666z m-293.077333 0.042667h-120.96a60.970667 60.970667 0 0 0 120.96 0z m183.381333-263.722667H268.117333a109.738667 109.738667 0 0 0-109.610666 104.533333l-0.128 5.162667v80.853333h707.114666V414.464a109.738667 109.738667 0 0 0-104.533333-109.568l-5.162667-0.128z m-195.072-146.304h-97.536c-32.128 0-58.752 24.917333-60.842666 56.96l-0.128 4.010667v12.202666h219.434666v-12.202666c0-32.128-24.874667-58.709333-56.96-60.842667l-3.968-0.128z" /></svg>