<?xml version="1.0" standalone="no"?><!DOCTYPE svg PUBLIC "-//W3C//DTD SVG 1.1//EN" "http://www.w3.org/Graphics/SVG/1.1/DTD/svg11.dtd"><svg class="icon" width="128px" height="128.00px" viewBox="0 0 1024 1024" version="1.1" xmlns="http://www.w3.org/2000/svg"><path fill="#666666" d="M813.653333 136.533333A32 32 0 1 0 768 181.76a362.666667 362.666667 0 0 1 0 512 32 32 0 0 0 0 45.226667 32 32 0 0 0 45.226667 0 426.666667 426.666667 0 0 0 0-603.306667zM149.333333 438.186667A359.68 359.68 0 0 1 256 181.76 32 32 0 0 0 210.346667 136.533333a426.666667 426.666667 0 0 0 0 603.306667 32 32 0 0 0 45.226666 0 32 32 0 0 0 0-45.226667 359.253333 359.253333 0 0 1-106.24-256.426666zM376.32 256a31.573333 31.573333 0 0 0-45.226667 0 256 256 0 0 0 0 361.813333 31.146667 31.146667 0 0 0 22.613334 9.386667 31.573333 31.573333 0 0 0 22.613333-9.386667 32 32 0 0 0 0-45.226666 191.573333 191.573333 0 0 1 0-271.36 32 32 0 0 0 0-45.226667zM692.906667 256a31.573333 31.573333 0 0 0-45.226667 0 32 32 0 0 0 0 45.226667 191.573333 191.573333 0 0 1 0 271.36 32 32 0 0 0 0 45.226666 31.573333 31.573333 0 0 0 22.613333 9.386667 31.146667 31.146667 0 0 0 22.613334-9.386667 256 256 0 0 0 0-361.813333zM512 352.853333a85.333333 85.333333 0 0 0-32 164.266667v347.733333a32 32 0 0 0 64 0v-347.733333A85.333333 85.333333 0 0 0 512 352.853333z m0 64a21.333333 21.333333 0 0 1 21.333333 21.333334 21.333333 21.333333 0 0 1-42.666666 0 21.333333 21.333333 0 0 1 21.333333-21.333334z" /></svg>