<?xml version="1.0" standalone="no"?><!DOCTYPE svg PUBLIC "-//W3C//DTD SVG 1.1//EN" "http://www.w3.org/Graphics/SVG/1.1/DTD/svg11.dtd"><svg class="icon" width="128px" height="128.00px" viewBox="0 0 1024 1024" version="1.1" xmlns="http://www.w3.org/2000/svg"><path fill="#666666" d="M441.173333 725.333333a104.96 104.96 0 0 1-75.093333-30.72 106.666667 106.666667 0 0 1-31.146667-78.08 105.813333 105.813333 0 0 1 35.413334-75.946666l445.866666-395.946667a73.386667 73.386667 0 0 1 103.68 103.68L520.533333 691.626667a105.386667 105.386667 0 0 1-75.946666 34.986666z m424.106667-535.466666a9.386667 9.386667 0 0 0-6.4 2.56L413.013333 589.653333a42.666667 42.666667 0 0 0-14.08 29.866667 42.666667 42.666667 0 0 0 42.666667 42.666667 42.666667 42.666667 0 0 0 30.293333-14.08l400.213334-442.88a8.96 8.96 0 0 0 0-12.373334 8.96 8.96 0 0 0-6.826667-2.986666zM244.906667 898.133333a284.16 284.16 0 0 1-145.92-47.786666 32.426667 32.426667 0 0 1-13.653334-35.84 32 32 0 0 1 30.72-22.186667s55.466667 0 71.253334-36.266667a106.24 106.24 0 0 1 94.72-68.693333A99.84 99.84 0 0 1 384 785.066667 116.48 116.48 0 0 1 280.746667 896a213.333333 213.333333 0 0 1-35.84 2.133333z m-37.546667-68.693333a151.04 151.04 0 0 0 60.586667 2.56c12.373333-2.56 52.906667-13.226667 52.906666-46.933333a36.693333 36.693333 0 0 0-37.546666-33.706667c-20.48 0-32.853333 23.893333-36.266667 31.573333a116.053333 116.053333 0 0 1-39.68 46.506667z" /></svg>