<?xml version="1.0" standalone="no"?><!DOCTYPE svg PUBLIC "-//W3C//DTD SVG 1.1//EN" "http://www.w3.org/Graphics/SVG/1.1/DTD/svg11.dtd"><svg class="icon" width="128px" height="128.00px" viewBox="0 0 1024 1024" version="1.1" xmlns="http://www.w3.org/2000/svg"><path fill="#666666" d="M775.253333 85.333333h-113.066666a32 32 0 0 0-22.613334 9.386667l-20.48 20.48a32 32 0 0 0-32-29.866667h-112.64a32 32 0 0 0-22.613333 9.386667L393.813333 152.746667v-35.413334A32.426667 32.426667 0 0 0 361.813333 85.333333H248.746667A69.546667 69.546667 0 0 0 179.2 154.88V605.866667a69.546667 69.546667 0 0 0 69.546667 69.546666h188.586666l-21.333333 152.32a96.853333 96.853333 0 1 0 192 0l-21.333333-152.32h188.586666a69.546667 69.546667 0 0 0 69.546667-69.546666V154.88A69.546667 69.546667 0 0 0 775.253333 85.333333zM248.746667 149.333333h81.066666v80.64A32 32 0 0 0 384 252.586667l103.68-103.253334H554.666667v42.666667a32 32 0 0 0 55.04 21.333333l65.706666-64h99.84a5.546667 5.546667 0 0 1 5.546667 5.546667v306.346667H243.2V154.88a5.546667 5.546667 0 0 1 5.546667-5.546667z m296.106666 687.36a32.853333 32.853333 0 0 1-7.68 26.453334 33.706667 33.706667 0 0 1-50.346666 0 32.853333 32.853333 0 0 1-7.68-26.453334l23.04-161.28h19.626666z m230.4-225.28H248.746667a5.546667 5.546667 0 0 1-5.546667-5.546666v-80.64h537.6v80.64a5.546667 5.546667 0 0 1-5.546667 5.546666z" /></svg>