<?xml version="1.0" standalone="no"?><!DOCTYPE svg PUBLIC "-//W3C//DTD SVG 1.1//EN" "http://www.w3.org/Graphics/SVG/1.1/DTD/svg11.dtd"><svg class="icon" width="128px" height="128.00px" viewBox="0 0 1024 1024" version="1.1" xmlns="http://www.w3.org/2000/svg"><path fill="#666666" d="M512 42.666667c259.2 0 469.333333 210.133333 469.333333 469.333333s-210.133333 469.333333-469.333333 469.333333S42.666667 771.2 42.666667 512 252.8 42.666667 512 42.666667z m0 70.4A398.933333 398.933333 0 0 0 113.066667 512 398.933333 398.933333 0 0 0 512 910.933333 398.933333 398.933333 0 0 0 910.933333 512 398.933333 398.933333 0 0 0 512 113.066667zM545.706667 285.269333l9.301333 7.466667 15.530667 12.16 11.52 8.832 19.2 14.506667 120.405333 88.661333 11.178667 8.448a35.2 35.2 0 1 1-42.752 55.978667l-19.072-14.336-89.941334-66.048-25.216-18.773334-22.016-16.64-9.984-7.765333-55.978666 45.397333-97.024 77.696a35.2 35.2 0 0 1-43.861334-55.04L402.346667 365.525333 463.957333 315.733333l37.12-30.378666a35.2 35.2 0 0 1 44.672-0.128zM688 664.533333a35.2 35.2 0 0 1 3.413333 70.229334l-3.413333 0.170666h-328.533333a35.2 35.2 0 0 1-3.413334-70.229333l3.413334-0.170667h328.533333zM551.936 418.133333c18.133333 0 33.28 13.781333 34.986667 31.829334l0.213333 3.370666v234.069334a35.2 35.2 0 0 1-70.272 3.413333l-0.128-3.413333v-234.069334c0-19.456 15.744-35.2 35.2-35.2zM441.6 487.936c18.133333 0 33.28 13.738667 35.029333 31.786667l0.170667 3.413333v164.266667a35.2 35.2 0 0 1-70.229333 3.413333l-0.170667-3.413333v-164.266667c0-19.456 15.786667-35.2 35.2-35.2zM642.773333 505.045333a35.2 35.2 0 0 1 3.370667 70.229334l-3.413333 0.170666h-76.245334a35.2 35.2 0 0 1-3.413333-70.272l3.413333-0.128h76.288z" /></svg>