<?xml version="1.0" standalone="no"?><!DOCTYPE svg PUBLIC "-//W3C//DTD SVG 1.1//EN" "http://www.w3.org/Graphics/SVG/1.1/DTD/svg11.dtd"><svg class="icon" width="128px" height="128.00px" viewBox="0 0 1024 1024" version="1.1" xmlns="http://www.w3.org/2000/svg"><path fill="#666666" d="M810.666667 170.666667h-96V128a32 32 0 0 0-64 0v42.666667h-277.333334V128a32 32 0 0 0-64 0v42.666667H213.333333a128 128 0 0 0-128 128v426.666666a128 128 0 0 0 128 128h597.333334a128 128 0 0 0 128-128V298.666667a128 128 0 0 0-128-128z m64 554.666666a64 64 0 0 1-64 64H213.333333A64 64 0 0 1 149.333333 725.333333V298.666667A64 64 0 0 1 213.333333 234.666667h96v32a32 32 0 0 0 64 0V234.666667h277.333334v32a32 32 0 0 0 64 0V234.666667H810.666667A64 64 0 0 1 874.666667 298.666667zM341.333333 608a32 32 0 0 0 0 64 32 32 0 0 0 0-64zM512 608a32 32 0 0 0 0 64 32 32 0 0 0 0-64zM682.666667 608a32 32 0 0 0 0 64 32 32 0 0 0 0-64zM341.333333 437.333333a32 32 0 0 0 0 64 32 32 0 0 0 0-64zM512 437.333333a32 32 0 0 0 0 64 32 32 0 0 0 0-64zM682.666667 437.333333a32 32 0 0 0 0 64 32 32 0 0 0 0-64z" /></svg>