<?xml version="1.0" standalone="no"?><!DOCTYPE svg PUBLIC "-//W3C//DTD SVG 1.1//EN" "http://www.w3.org/Graphics/SVG/1.1/DTD/svg11.dtd"><svg class="icon" width="128px" height="128.00px" viewBox="0 0 1024 1024" version="1.1" xmlns="http://www.w3.org/2000/svg"><path fill="#666666" d="M658.005333 85.589333c18.858667 0 34.645333 14.293333 36.437334 33.066667l0.128 3.498667V183.04h61.226666a182.826667 182.826667 0 0 1 182.784 176.896l0.085334 5.888v389.973333a182.826667 182.826667 0 0 1-176.938667 182.741334l-5.973333 0.085333H268.16A182.826667 182.826667 0 0 1 85.333333 761.770667l-0.085333-5.888v-389.973334a182.826667 182.826667 0 0 1 176.938667-182.741333l5.973333-0.085333h60.672V122.154667a36.565333 36.565333 0 0 1 73.002667-3.498667l0.170666 3.498667V183.04h219.434667V122.154667c0-20.181333 16.384-36.565333 36.565333-36.565334zM328.832 256.213333H268.117333a109.696 109.696 0 0 0-109.610666 104.533334l-0.128 5.12v389.973333a109.696 109.696 0 0 0 104.576 109.568l5.162666 0.128h487.68a109.696 109.696 0 0 0 109.610667-104.533333l0.128-5.12v-389.973334a109.696 109.696 0 0 0-104.533333-109.568l-5.205334-0.128h-61.226666v12.16a36.565333 36.565333 0 0 1-72.96 3.541334l-0.170667-3.541334v-12.16H402.005333v12.16a36.565333 36.565333 0 0 1-72.96 3.541334l-0.213333-3.541334v-12.16zM682.624 674.816a36.437333 36.437333 0 0 1-32.597333 38.186667l-3.498667 0.128H377.472A36.352 36.352 0 0 1 341.333333 678.314667a36.437333 36.437333 0 0 1 32.597334-38.144L377.472 640h269.056c19.285333 0 35.157333 15.36 36.096 34.816zM646.272 469.333333a36.309333 36.309333 0 0 1 36.352 34.816 36.437333 36.437333 0 0 1-32.853333 38.186667l-3.498667 0.128H377.429333a36.309333 36.309333 0 0 1-36.053333-34.816 36.437333 36.437333 0 0 1 32.597333-38.144L377.429333 469.333333h268.842667z" /></svg>