<?xml version="1.0" standalone="no"?><!DOCTYPE svg PUBLIC "-//W3C//DTD SVG 1.1//EN" "http://www.w3.org/Graphics/SVG/1.1/DTD/svg11.dtd"><svg class="icon" width="128px" height="128.00px" viewBox="0 0 1024 1024" version="1.1" xmlns="http://www.w3.org/2000/svg"><path fill="#666666" d="M627.626667 915.2a327.68 327.68 0 0 1-144.213334-33.706667c-16.64-8.106667-32.853333-16.64-48.64-26.026666a734.293333 734.293333 0 0 1-274.773333-285.866667A679.253333 679.253333 0 0 1 128 497.92 289.706667 289.706667 0 0 1 200.106667 179.2a97.28 97.28 0 0 1 91.306666-24.746667 99.413333 99.413333 0 0 1 70.826667 63.573334 705.706667 705.706667 0 0 0 37.973333 88.32 96.853333 96.853333 0 0 1-20.053333 115.2l-38.826667 35.413333A669.44 669.44 0 0 0 561.92 682.666667l45.653333-42.666667a96 96 0 0 1 109.226667-14.506667 775.253333 775.253333 0 0 0 90.88 40.106667 101.546667 101.546667 0 0 1 64.853333 75.093333 96 96 0 0 1-29.013333 89.6 318.293333 318.293333 0 0 1-215.893333 84.906667zM267.946667 215.466667a32.426667 32.426667 0 0 0-21.333334 8.106666 226.133333 226.133333 0 0 0-60.586666 250.453334c8.96 22.186667 19.2 42.666667 30.293333 65.28A670.72 670.72 0 0 0 469.333333 800.426667c14.08 8.106667 29.013333 16.213333 42.666667 23.466666a256 256 0 0 0 288.853333-40.106666 30.293333 30.293333 0 0 0 9.386667-29.866667 36.266667 36.266667 0 0 0-23.466667-27.306667 805.12 805.12 0 0 1-98.56-42.666666 32.426667 32.426667 0 0 0-36.693333 4.693333L597.333333 736a51.2 51.2 0 0 1-61.44 5.973333 734.293333 734.293333 0 0 1-256-261.546666 52.48 52.48 0 0 1 10.24-63.573334l46.506667-42.666666a32 32 0 0 0 6.826667-38.4 836.693333 836.693333 0 0 1-42.666667-96 35.413333 35.413333 0 0 0-25.6-23.466667zM885.76 567.893333a32.426667 32.426667 0 0 1-32-32 363.093333 363.093333 0 0 0-362.666667-362.666666 32 32 0 0 1 0-64 426.666667 426.666667 0 0 1 426.666667 426.666666 32.426667 32.426667 0 0 1-32 32zM714.666667 568.32a32 32 0 0 1-32-32 192.426667 192.426667 0 0 0-192-192 32 32 0 0 1 0-64 256 256 0 0 1 256 256 32.426667 32.426667 0 0 1-32 32z" /></svg>