<?xml version="1.0" standalone="no"?><!DOCTYPE svg PUBLIC "-//W3C//DTD SVG 1.1//EN" "http://www.w3.org/Graphics/SVG/1.1/DTD/svg11.dtd"><svg class="icon" width="128px" height="128.00px" viewBox="0 0 1024 1024" version="1.1" xmlns="http://www.w3.org/2000/svg"><path fill="#666666" d="M649.386667 896a327.68 327.68 0 0 1-144.213334-33.706667c-16.64-8.106667-32.853333-17.066667-48.64-26.453333a734.293333 734.293333 0 0 1-274.773333-285.866667 640 640 0 0 1-33.28-71.68 288.853333 288.853333 0 0 1 73.386667-320 97.706667 97.706667 0 0 1 91.306666-25.173333A99.413333 99.413333 0 0 1 384 197.12a777.386667 777.386667 0 0 0 38.4 88.32 96 96 0 0 1-20.053333 114.773333l-39.253334 35.84a672 672 0 0 0 221.013334 225.28l45.653333-42.666666a96 96 0 0 1 109.226667-14.506667 778.24 778.24 0 0 0 90.88 42.666667A100.266667 100.266667 0 0 1 896 720.64a95.146667 95.146667 0 0 1-30.72 90.026667 318.72 318.72 0 0 1-215.893333 85.333333zM289.706667 194.133333a29.866667 29.866667 0 0 0-21.333334 8.533334 226.133333 226.133333 0 0 0-60.586666 250.453333c8.96 21.76 19.2 42.666667 30.293333 64.853333a667.733333 667.733333 0 0 0 250.88 261.12c14.08 8.533333 29.013333 16.64 42.666667 23.893334a256 256 0 0 0 288.853333-40.106667 30.72 30.72 0 0 0 9.386667-29.866667 34.986667 34.986667 0 0 0-23.466667-27.306666 844.373333 844.373333 0 0 1-98.986667-42.666667 32 32 0 0 0-36.266666 5.12l-52.48 48.213333a51.2 51.2 0 0 1-61.44 5.973334 738.986667 738.986667 0 0 1-256-261.973334 52.48 52.48 0 0 1 9.813333-63.573333l46.506667-42.666667a31.573333 31.573333 0 0 0 6.826666-38.4 805.546667 805.546667 0 0 1-42.666666-96 36.693333 36.693333 0 0 0-23.04-24.32 26.88 26.88 0 0 0-8.96-1.28z" /></svg>