<?xml version="1.0" standalone="no"?><!DOCTYPE svg PUBLIC "-//W3C//DTD SVG 1.1//EN" "http://www.w3.org/Graphics/SVG/1.1/DTD/svg11.dtd"><svg class="icon" width="128px" height="128.00px" viewBox="0 0 1024 1024" version="1.1" xmlns="http://www.w3.org/2000/svg"><path fill="#666666" d="M821.333333 266.24h-88.746666l-17.92-55.466667a95.573333 95.573333 0 0 0-91.306667-66.133333H400.213333a95.573333 95.573333 0 0 0-91.306666 66.133333l-17.493334 55.466667H202.666667A117.333333 117.333333 0 0 0 85.333333 384v378.88a117.333333 117.333333 0 0 0 117.333334 116.906667h618.666666A117.333333 117.333333 0 0 0 938.666667 762.453333V384a117.333333 117.333333 0 0 0-117.333334-117.76z m53.333334 496.213333a53.333333 53.333333 0 0 1-53.333334 52.906667H202.666667a53.333333 53.333333 0 0 1-53.333334-52.906667V384a53.333333 53.333333 0 0 1 53.333334-53.76H298.666667a53.333333 53.333333 0 0 0 51.2-37.12l20.053333-62.72a31.573333 31.573333 0 0 1 30.293333-21.76h223.146667a31.146667 31.146667 0 0 1 30.293333 21.76l20.48 63.146667a53.76 53.76 0 0 0 51.2 36.693333h96.426667A53.333333 53.333333 0 0 1 874.666667 384zM512 361.813333A192 192 0 1 0 704 554.666667 192.426667 192.426667 0 0 0 512 361.813333zM512 682.666667a128 128 0 1 1 128-128 128 128 0 0 1-128 128zM197.12 234.666667h32.426667a32 32 0 0 0 0-64h-32.426667a32 32 0 0 0 0 64zM512 553.813333m-42.666667 0a42.666667 42.666667 0 1 0 85.333334 0 42.666667 42.666667 0 1 0-85.333334 0Z" /></svg>