<?xml version="1.0" standalone="no"?><!DOCTYPE svg PUBLIC "-//W3C//DTD SVG 1.1//EN" "http://www.w3.org/Graphics/SVG/1.1/DTD/svg11.dtd"><svg class="icon" width="128px" height="128.00px" viewBox="0 0 1024 1024" version="1.1" xmlns="http://www.w3.org/2000/svg"><path fill="#666666" d="M780.16 128c108.586667 0 197.546667 85.034667 201.088 192.170667l0.085333 6.442666v370.773334c0 107.178667-86.144 195.029333-194.645333 198.485333l-6.528 0.128H243.754667C135.168 896 46.208 810.965333 42.666667 703.829333l-0.085334-6.442666v-370.773334c0-107.178667 86.144-195.029333 194.645334-198.528L243.754667 128h536.405333z m120.746667 334.037333H123.008v235.349334c0 63.616 50.602667 116.053333 114.986667 119.04l5.717333 0.128h536.405333c64.426667 0 117.546667-50.005333 120.576-113.578667l0.128-5.589333v-235.349334z m-120.746667 185.386667c21.461333 0 39.125333 16.64 40.192 37.802667a39.893333 39.893333 0 0 1-36.309333 41.429333l-3.84 0.213333h-168.149334a40.021333 40.021333 0 0 1-40.192-37.802666 39.893333 39.893333 0 0 1 36.266667-41.472l3.925333-0.170667h168.106667z m0-439.978667H243.754667c-64.426667 0-117.546667 50.005333-120.576 113.578667l-0.128 5.589333v55.978667h777.813333V326.613333c0-63.616-50.645333-116.053333-114.986667-119.04l-5.717333-0.128z" /></svg>