<?xml version="1.0" standalone="no"?><!DOCTYPE svg PUBLIC "-//W3C//DTD SVG 1.1//EN" "http://www.w3.org/Graphics/SVG/1.1/DTD/svg11.dtd"><svg class="icon" width="128px" height="128.00px" viewBox="0 0 1024 1024" version="1.1" xmlns="http://www.w3.org/2000/svg"><path fill="#666666" d="M821.333333 794.453333H768a32 32 0 0 1 0-64h53.333333a53.333333 53.333333 0 0 0 53.333334-53.333333v-362.666667a53.333333 53.333333 0 0 0-53.333334-53.333333H202.666667A53.333333 53.333333 0 0 0 149.333333 314.453333v362.666667a53.333333 53.333333 0 0 0 53.333334 53.333333H256a32 32 0 0 1 0 64H202.666667A117.333333 117.333333 0 0 1 85.333333 677.12v-362.666667a117.333333 117.333333 0 0 1 117.333334-117.333333h618.666666A117.333333 117.333333 0 0 1 938.666667 314.453333v362.666667a117.333333 117.333333 0 0 1-117.333334 117.333333zM725.333333 612.266667a31.146667 31.146667 0 0 1-22.613333-9.386667 268.8 268.8 0 0 0-381.44 0 32 32 0 0 1-45.226667 0 32 32 0 0 1 0-45.226667 331.52 331.52 0 0 1 471.893334 0 32 32 0 0 1 0 45.226667 32.853333 32.853333 0 0 1-22.613334 9.386667zM633.173333 705.28a31.146667 31.146667 0 0 1-22.613333-9.386667 142.08 142.08 0 0 0-197.12 0 32 32 0 0 1-45.226667-45.226666 203.093333 203.093333 0 0 1 287.573334 0 32 32 0 0 1 0 45.226666 31.573333 31.573333 0 0 1-22.613334 9.386667zM548.266667 739.413333a53.333333 53.333333 0 0 0-72.106667 0 52.906667 52.906667 0 0 0 0 76.373334 53.333333 53.333333 0 0 0 75.093333 0 53.333333 53.333333 0 0 0-2.986666-76.373334z" /></svg>