<?xml version="1.0" standalone="no"?><!DOCTYPE svg PUBLIC "-//W3C//DTD SVG 1.1//EN" "http://www.w3.org/Graphics/SVG/1.1/DTD/svg11.dtd"><svg class="icon" width="128px" height="128.00px" viewBox="0 0 1024 1024" version="1.1" xmlns="http://www.w3.org/2000/svg"><path fill="#666666" d="M512 53.333333A458.666667 458.666667 0 1 0 970.666667 512 459.093333 459.093333 0 0 0 512 53.333333z m392.96 426.666667h-360.96V119.04a394.666667 394.666667 0 0 1 360.96 360.96z m-392.96 426.666667a394.666667 394.666667 0 0 1-32-787.626667V512a32.426667 32.426667 0 0 0 32 32h392.96a394.666667 394.666667 0 0 1-392.96 362.666667zM187.52 791.552l301.653333-301.738667 45.269334 45.269334-301.653334 301.696z" /></svg>