<?xml version="1.0" standalone="no"?><!DOCTYPE svg PUBLIC "-//W3C//DTD SVG 1.1//EN" "http://www.w3.org/Graphics/SVG/1.1/DTD/svg11.dtd"><svg class="icon" width="128px" height="128.00px" viewBox="0 0 1024 1024" version="1.1" xmlns="http://www.w3.org/2000/svg"><path fill="#666666" d="M488.96 131.456a34.56 34.56 0 0 1 34.56 34.56v276.778667a57.642667 57.642667 0 0 0 57.685333 57.685333h276.736a34.56 34.56 0 0 1 34.56 34.56A403.626667 403.626667 0 0 1 488.96 938.666667a403.626667 403.626667 0 1 1 0-807.210667z m-34.602667 70.954667l-8.789333 1.024a334.464 334.464 0 1 0 375.893333 367.616l0.128-1.408h-240.384a126.848 126.848 0 0 1-126.762666-121.728l-0.085334-5.12V202.410667zM581.205333 85.333333A357.504 357.504 0 0 1 938.666667 442.794667a34.56 34.56 0 0 1-34.56 34.602666h-276.778667a80.725333 80.725333 0 0 1-80.725333-80.725333V119.936A34.56 34.56 0 0 1 581.12 85.333333z m34.56 71.253334v240.085333c0 5.546667 4.010667 10.368 9.472 11.349333l2.090667 0.213334h240.085333l-0.981333-7.509334a288.426667 288.426667 0 0 0-250.154667-244.053333l-0.512-0.085333z" /></svg>