<?xml version="1.0" standalone="no"?><!DOCTYPE svg PUBLIC "-//W3C//DTD SVG 1.1//EN" "http://www.w3.org/Graphics/SVG/1.1/DTD/svg11.dtd"><svg class="icon" width="128px" height="128.00px" viewBox="0 0 1024 1024" version="1.1" xmlns="http://www.w3.org/2000/svg"><path fill="#666666" d="M309.333333 885.333333a32 32 0 0 1-10.666666-2.56 31.573333 31.573333 0 0 1-21.333334-29.44v-138.666666H202.666667A117.333333 117.333333 0 0 1 85.333333 597.333333V256a117.333333 117.333333 0 0 1 117.333334-117.333333h618.666666A117.333333 117.333333 0 0 1 938.666667 256v341.333333a117.333333 117.333333 0 0 1-117.333334 117.333334h-328.106666l-161.28 161.28a32 32 0 0 1-22.613334 9.386666z m-106.666666-682.666666A53.333333 53.333333 0 0 0 149.333333 256v341.333333a53.333333 53.333333 0 0 0 53.333334 53.333334h106.666666A31.573333 31.573333 0 0 1 341.333333 682.666667v93.44l116.053334-116.053334a32 32 0 0 1 22.613333-9.386666h341.333333A53.333333 53.333333 0 0 0 874.666667 597.333333V256a53.333333 53.333333 0 0 0-53.333334-53.333333z" /></svg>