<?xml version="1.0" standalone="no"?><!DOCTYPE svg PUBLIC "-//W3C//DTD SVG 1.1//EN" "http://www.w3.org/Graphics/SVG/1.1/DTD/svg11.dtd"><svg class="icon" width="128px" height="128.00px" viewBox="0 0 1024 1024" version="1.1" xmlns="http://www.w3.org/2000/svg"><path fill="#666666" d="M271.317333 42.666667a228.650667 228.650667 0 0 0 0 457.301333h192.554667a36.096 36.096 0 0 0 36.096-36.096V271.317333c0-126.293333-102.4-228.650667-228.693333-228.650666z m5.589334 72.32a156.458667 156.458667 0 0 1 150.869333 156.330666v156.458667H271.317333a156.458667 156.458667 0 1 1 0-312.917333l5.589334 0.128z m186.965333 409.045333H271.317333a228.650667 228.650667 0 1 0 228.650667 228.650667v-192.554667a36.096 36.096 0 0 0-36.096-36.096z m-192.554667 72.192h156.458667v156.458667a156.458667 156.458667 0 1 1-156.458667-156.458667zM752.64 42.666667c-126.293333 0-228.650667 102.4-228.650667 228.650666v192.554667c0 19.925333 16.170667 36.096 36.096 36.096h192.554667A228.650667 228.650667 0 0 0 752.64 42.666667z m0 72.192a156.458667 156.458667 0 0 1 156.458667 156.458666l-0.128 5.589334a156.458667 156.458667 0 0 1-156.330667 150.869333h-156.458667V271.317333a156.458667 156.458667 0 0 1 156.458667-156.458666z m0 409.173333h-192.554667a36.096 36.096 0 0 0-36.096 36.096v192.554667a228.650667 228.650667 0 1 0 228.650667-228.650667z m-156.458667 228.650667v-156.458667h156.458667a156.458667 156.458667 0 1 1-156.458667 156.458667z" /></svg>