<?xml version="1.0" standalone="no"?><!DOCTYPE svg PUBLIC "-//W3C//DTD SVG 1.1//EN" "http://www.w3.org/Graphics/SVG/1.1/DTD/svg11.dtd"><svg class="icon" width="128px" height="128.00px" viewBox="0 0 1024 1024" version="1.1" xmlns="http://www.w3.org/2000/svg"><path fill="#666666" d="M513.024 112.426667c-235.093333 0-425.642667 189.738667-425.642667 423.808 0 234.026667 190.549333 423.765333 425.642667 423.765333 235.093333 0 425.642667-189.738667 425.642667-423.765333 0-234.069333-190.592-423.808-425.642667-423.808z m0 72.661333c194.773333 0 352.682667 157.226667 352.682667 351.146667s-157.909333 351.146667-352.682667 351.146666c-194.773333 0-352.682667-157.226667-352.682667-351.146666s157.866667-351.146667 352.682667-351.146667z m240-108.586667a36.608 36.608 0 0 1 48.554667-5.888l2.901333 2.304 110.165333 95.274667c14.72 12.672 16.853333 34.56 4.864 49.834667a36.608 36.608 0 0 1-49.749333 7.296l-2.901333-2.304-110.208-95.232a36.266667 36.266667 0 0 1-3.626667-51.285334z m-493.44 0a36.608 36.608 0 0 0-48.554667-5.888l-2.901333 2.304-110.208 95.274667a36.224 36.224 0 0 0-4.821333 49.834667 36.608 36.608 0 0 0 49.706666 7.296l2.944-2.304 110.165334-95.232a36.266667 36.266667 0 0 0 3.669333-51.285334z m380.970667 457.642667a36.352 36.352 0 0 1 3.712 72.448l-3.712 0.170667h-137.6a36.437333 36.437333 0 0 1-36.309334-32.554667l-0.170666-3.754667v-136.96c0-19.328 15.232-35.285333 34.602666-36.266666a36.437333 36.437333 0 0 1 38.144 32.554666l0.213334 3.712v100.650667h101.12z" /></svg>