<?xml version="1.0" standalone="no"?><!DOCTYPE svg PUBLIC "-//W3C//DTD SVG 1.1//EN" "http://www.w3.org/Graphics/SVG/1.1/DTD/svg11.dtd"><svg class="icon" width="128px" height="128.00px" viewBox="0 0 1024 1024" version="1.1" xmlns="http://www.w3.org/2000/svg"><path fill="#666666" d="M519.381333 163.797333a288.341333 288.341333 0 0 1 366.208 17.834667l5.76 5.376 5.205334 5.12c107.52 108.202667 113.237333 281.088 14.506666 396.757333l-5.12 5.930667-9.386666 9.856-258.218667 259.968a177.749333 177.749333 0 0 1-247.978667 4.48l-4.608-4.48-258.816-260.608-9.386666-9.898667a293.12 293.12 0 0 1 9.984-402.005333 288.341333 288.341333 0 0 1 376.746666-28.629333l7.765334 5.973333 7.338666-5.674667z m326.656 79.189334a217.258667 217.258667 0 0 0-308.736 0 35.541333 35.541333 0 0 1-50.517333 0 217.258667 217.258667 0 0 0-308.736 0C97.322667 324.266667 92.757333 453.973333 165.376 539.989333l4.522667 5.205334 8.149333 8.618666 258.218667 259.968a106.666667 106.666667 0 0 0 147.541333 3.84l4.010667-3.84 257.621333-259.370666 8.106667-8.618667a220.885333 220.885333 0 0 0-7.509334-302.848z m-213.461333 297.813333a36.138667 36.138667 0 0 1 2.432 48.128l-2.432 2.730667-95.274667 95.914666a35.541333 35.541333 0 0 1-47.786666 2.474667l-2.730667-2.474667-95.232-95.914666a36.138667 36.138667 0 0 1-1.237333-49.493334 35.541333 35.541333 0 0 1 49.024-3.84l2.688 2.474667 70.016 70.485333 69.973333-70.485333a35.541333 35.541333 0 0 1 50.517333 0z" /></svg>