<?xml version="1.0" standalone="no"?><!DOCTYPE svg PUBLIC "-//W3C//DTD SVG 1.1//EN" "http://www.w3.org/Graphics/SVG/1.1/DTD/svg11.dtd"><svg class="icon" width="128px" height="128.00px" viewBox="0 0 1024 1024" version="1.1" xmlns="http://www.w3.org/2000/svg"><path fill="#666666" d="M512 879.786667a32.853333 32.853333 0 0 1-22.613333-8.96l-150.613334-150.613334H202.666667A117.333333 117.333333 0 0 1 85.333333 602.88v-341.333333a117.333333 117.333333 0 0 1 117.333334-117.333334h618.666666A117.333333 117.333333 0 0 1 938.666667 261.12v341.333333a117.333333 117.333333 0 0 1-117.333334 117.333334h-136.106666l-150.613334 150.613333a32.853333 32.853333 0 0 1-22.613333 9.386667zM202.666667 208.213333A52.906667 52.906667 0 0 0 149.333333 261.12v341.333333a53.333333 53.333333 0 0 0 53.333334 53.333334h149.333333a31.573333 31.573333 0 0 1 22.613333 8.96L512 802.56l137.386667-137.386667a31.573333 31.573333 0 0 1 22.613333-8.96h149.333333a53.333333 53.333333 0 0 0 53.333334-53.333333v-341.333333a52.906667 52.906667 0 0 0-53.333334-52.906667zM384 330.666667m32 0l192 0q32 0 32 32l0 0q0 32-32 32l-192 0q-32 0-32-32l0 0q0-32 32-32ZM384 458.666667m32 0l192 0q32 0 32 32l0 0q0 32-32 32l-192 0q-32 0-32-32l0 0q0-32 32-32Z" /></svg>