<?xml version="1.0" standalone="no"?><!DOCTYPE svg PUBLIC "-//W3C//DTD SVG 1.1//EN" "http://www.w3.org/Graphics/SVG/1.1/DTD/svg11.dtd"><svg class="icon" width="128px" height="128.00px" viewBox="0 0 1024 1024" version="1.1" xmlns="http://www.w3.org/2000/svg"><path fill="#666666" d="M512.042667 85.333333c19.84 0 36.138667 15.36 37.12 34.858667a36.778667 36.778667 0 0 1-33.536 38.144L512 158.506667H313.813333c-59.52 0-108.544 45.994667-111.36 104.533333l-0.128 5.162667v487.594666c0 58.581333 46.762667 106.837333 106.24 109.610667l5.248 0.128h396.458667c59.52 0 108.544-46.037333 111.36-104.533333l0.128-5.205334v-292.565333c0-19.498667 15.573333-35.541333 35.413333-36.48a36.949333 36.949333 0 0 1 38.741334 32.981333l0.170666 3.498667v292.565333c0 98.688-79.573333 179.584-179.797333 182.784l-6.016 0.085334H313.813333c-100.266667 0-182.485333-78.293333-185.728-176.938667L128 755.797333V268.202667c0-98.688 79.573333-179.541333 179.797333-182.741334L313.813333 85.333333h198.229334z m-3.2 487.808a36.778667 36.778667 0 0 1-33.536 38.186667l-3.584 0.128H322.986667a36.906667 36.906667 0 0 1-37.12-34.816 36.778667 36.778667 0 0 1 33.578666-38.144l3.541334-0.170667h148.693333c19.797333 0 36.138667 15.36 37.12 34.816z m371.84-480.853333c16.64 11.776 20.394667 34.645333 8.362666 51.029333l-225.792 307.754667a37.546667 37.546667 0 0 1-51.626666 7.808 36.181333 36.181333 0 0 1-8.661334-50.645333l225.834667-307.754667a37.546667 37.546667 0 0 1 51.882667-8.234667z m-408.96 299.733333a36.906667 36.906667 0 0 1 37.376 34.816 36.778667 36.778667 0 0 1-33.792 38.186667l-3.584 0.170667H322.986667a36.906667 36.906667 0 0 1-37.12-34.816 36.778667 36.778667 0 0 1 33.578666-38.186667l3.541334-0.170667h148.693333z" /></svg>