<?xml version="1.0" standalone="no"?><!DOCTYPE svg PUBLIC "-//W3C//DTD SVG 1.1//EN" "http://www.w3.org/Graphics/SVG/1.1/DTD/svg11.dtd"><svg class="icon" width="128px" height="128.00px" viewBox="0 0 1024 1024" version="1.1" xmlns="http://www.w3.org/2000/svg"><path fill="#666666" d="M245.333333 413.866667V117.333333A32.426667 32.426667 0 0 0 213.333333 85.333333a32.426667 32.426667 0 0 0-32.426666 32v298.666667a31.146667 31.146667 0 0 1-13.653334 26.453333 85.333333 85.333333 0 0 0 0 143.36 31.146667 31.146667 0 0 1 13.653334 26.453334v298.666666A32.426667 32.426667 0 0 0 213.333333 938.666667a32.426667 32.426667 0 0 0 32-32V610.133333a31.146667 31.146667 0 0 1 13.653334-26.453333 85.333333 85.333333 0 0 0 0-143.36 31.146667 31.146667 0 0 1-13.653334-26.453333zM544 670.293333v-554.666666A32.426667 32.426667 0 0 0 512 85.333333a32.426667 32.426667 0 0 0-32 32v554.666667a31.573333 31.573333 0 0 1-14.08 26.453333 85.333333 85.333333 0 0 0 0 143.36 31.573333 31.573333 0 0 1 14.08 26.453334v40.106666A32.426667 32.426667 0 0 0 512 938.666667a32.426667 32.426667 0 0 0 32-32v-40.106667a30.293333 30.293333 0 0 1 14.08-26.026667A85.333333 85.333333 0 0 0 597.333333 768a85.333333 85.333333 0 0 0-39.253333-71.68 31.573333 31.573333 0 0 1-14.08-26.026667zM896 256a85.333333 85.333333 0 0 0-39.68-71.68 30.72 30.72 0 0 1-13.653333-26.453333v-42.666667A32.426667 32.426667 0 0 0 810.666667 85.333333a32.426667 32.426667 0 0 0-32 32v42.666667a30.72 30.72 0 0 1-13.653334 26.453333A85.333333 85.333333 0 0 0 725.333333 256a85.333333 85.333333 0 0 0 39.68 72.106667 29.866667 29.866667 0 0 1 13.653334 26.026666v554.666667a32.426667 32.426667 0 0 0 32 29.866667 32.426667 32.426667 0 0 0 32.426666-32V354.133333a29.866667 29.866667 0 0 1 13.653334-26.026666A85.333333 85.333333 0 0 0 896 256z" /></svg>