<?xml version="1.0" standalone="no"?><!DOCTYPE svg PUBLIC "-//W3C//DTD SVG 1.1//EN" "http://www.w3.org/Graphics/SVG/1.1/DTD/svg11.dtd"><svg class="icon" width="128px" height="128.00px" viewBox="0 0 1024 1024" version="1.1" xmlns="http://www.w3.org/2000/svg"><path fill="#666666" d="M923.306667 170.666667a31.573333 31.573333 0 0 0-37.546667 3.413333l-233.813333 202.666667-112.213334-196.266667a33.28 33.28 0 0 0-55.466666 0l-112.213334 196.266667L138.24 170.666667a31.573333 31.573333 0 0 0-37.546667 0 32 32 0 0 0-15.36 33.28l157.866667 631.466666a32.426667 32.426667 0 0 0 31.146667 24.32h473.6a32.426667 32.426667 0 0 0 31.146666-24.32L938.666667 203.946667a32 32 0 0 0-15.36-33.28zM725.333333 795.733333H298.666667l-20.48-81.066666h465.92z m36.266667-145.066666H264.106667L173.226667 287.573333l186.453333 162.986667a30.72 30.72 0 0 0 26.026667 7.68 31.146667 31.146667 0 0 0 22.613333-15.786667L512 260.693333l103.68 181.76a31.146667 31.146667 0 0 0 22.613333 15.786667 32.426667 32.426667 0 0 0 26.026667-7.68l186.453333-162.986667z" /></svg>