<?xml version="1.0" standalone="no"?><!DOCTYPE svg PUBLIC "-//W3C//DTD SVG 1.1//EN" "http://www.w3.org/Graphics/SVG/1.1/DTD/svg11.dtd"><svg class="icon" width="128px" height="128.00px" viewBox="0 0 1024 1024" version="1.1" xmlns="http://www.w3.org/2000/svg"><path fill="#666666" d="M646.058667 85.333333c108.586667 0 197.546667 87.210667 201.045333 197.034667l0.128 6.613333v67.84h40.234667c49.834667 0 91.008 39.466667 93.738666 89.856l0.128 5.205334v135.765333c0 50.432-38.954667 92.117333-88.746666 94.890667L887.466667 682.666667h-40.234667v2.432c0 163.669333-130.986667 296.234667-292.650667 296.234666a39.04 39.04 0 0 1-5.632-0.426666l-4.48 0.298666-5.674666 0.128a120.746667 120.746667 0 0 1-112.725334-78.506666 123.178667 123.178667 0 0 1 32.085334-134.570667 119.552 119.552 0 0 1 135.68-17.834667 122.538667 122.538667 0 0 1 64.938666 121.856 215.04 215.04 0 0 0 107.861334-180.48l0.128-6.656V288.981333c0-65.28-50.645333-118.997333-115.029334-122.026666l-5.674666-0.170667H351.018667c-64.426667 0-117.504 51.242667-120.576 116.437333l-0.128 5.76v352.938667a40.533333 40.533333 0 0 1-36.352 40.533333l-3.84 0.213334H136.405333l-5.12-0.128A94.464 94.464 0 0 1 42.666667 592.853333l-0.128-5.205333V451.84L42.666667 446.677333a94.464 94.464 0 0 1 88.576-89.685333l5.162666-0.128h13.397334V288.981333c0-109.909333 86.186667-199.978667 194.645333-203.52L351.018667 85.333333h295.04z m-107.264 733.098667a40.490667 40.490667 0 0 0-40.234667 40.704c0 22.528 18.005333 40.746667 40.234667 40.746667 22.186667 0 40.192-18.218667 40.192-40.746667a40.490667 40.490667 0 0 0-40.192-40.704z m-388.949334-380.16h-13.397333l-2.389333 0.256a13.482667 13.482667 0 0 0-10.794667 10.922667l-0.213333 2.432v135.765333l0.213333 2.432c0.981333 5.546667 5.290667 9.898667 10.794667 10.922667l2.389333 0.213333h13.397333v-162.901333z m737.621334 0h-40.234667v162.944h40.234667c6.485333 0 12.032-4.693333 13.226666-11.136l0.170667-2.432V451.84a13.525333 13.525333 0 0 0-11.008-13.354667l-2.389333-0.213333zM587.093333 563.2a39.936 39.936 0 0 1 56.32-8.106667c17.792 13.568 21.333333 39.082667 7.978667 57.088-32.725333 43.989333-90.368 70.485333-152.832 70.485334s-120.192-26.453333-152.874667-70.485334a41.088 41.088 0 0 1 6.4-55.893333 39.893333 39.893333 0 0 1 55.466667 3.882667l2.474667 2.986666c16.768 22.613333 50.346667 38.058667 88.533333 38.058667 35.925333 0 67.754667-13.653333 85.376-34.133333l3.157333-3.882667z" /></svg>