<?xml version="1.0" standalone="no"?><!DOCTYPE svg PUBLIC "-//W3C//DTD SVG 1.1//EN" "http://www.w3.org/Graphics/SVG/1.1/DTD/svg11.dtd"><svg class="icon" width="128px" height="128.00px" viewBox="0 0 1024 1024" version="1.1" xmlns="http://www.w3.org/2000/svg"><path fill="#666666" d="M774.50000029 474.49999971a187.49999971 187.49999971 0 0 1 37.53749971 371.25L811.99999971 887.00000029h112.5a37.50000029 37.50000029 0 0 1 0 74.99999971h-299.99999971a37.50000029 37.50000029 0 0 1 0-74.99999971h112.5v-41.25000058a187.57500029 187.57500029 0 0 1-149.81249971-175.6125L586.99999971 662.00000029a187.49999971 187.49999971 0 0 1 187.50000058-187.50000058z m0-412.49999971a112.5 112.5 0 0 1 112.31249942 105.90000029L887.00000029 174.5v225a37.50000029 37.50000029 0 0 1-74.73750029 4.3875L811.99999971 399.5V174.5a37.50000029 37.50000029 0 0 0-33.11249942-37.2375L774.50000029 136.99999971H174.5a37.50000029 37.50000029 0 0 0-37.2375 33.11250029L136.99999971 174.5v637.49999971a37.50000029 37.50000029 0 0 0 33.11250029 37.2375L174.5 849.5h262.50000029a37.50000029 37.50000029 0 0 1 4.3875 74.73750029L437.00000029 924.49999971H174.5a112.5 112.5 0 0 1-112.31250029-105.89999942L62 811.99999971V174.5A112.5 112.5 0 0 1 167.90000029 62.18749971L174.5 62h600.00000029z m0 487.50000029a112.5 112.5 0 1 0 0 225 112.5 112.5 0 0 0 0-225z m-300.00000058-37.50000029a37.50000029 37.50000029 0 0 1 0 74.99999971H287a37.50000029 37.50000029 0 0 1 0-74.99999971h187.49999971z m187.50000058-187.49999971a37.50000029 37.50000029 0 0 1 0 74.99999971H287a37.50000029 37.50000029 0 1 1 0-74.99999971h375.00000029z" /></svg>