<?xml version="1.0" standalone="no"?><!DOCTYPE svg PUBLIC "-//W3C//DTD SVG 1.1//EN" "http://www.w3.org/Graphics/SVG/1.1/DTD/svg11.dtd"><svg class="icon" width="128px" height="128.00px" viewBox="0 0 1024 1024" version="1.1" xmlns="http://www.w3.org/2000/svg"><path fill="#666666" d="M928.426667 317.866667L689.066667 93.866667a31.573333 31.573333 0 0 0-21.76-8.533334H356.693333a31.573333 31.573333 0 0 0-21.76 8.533334L95.573333 317.866667a32 32 0 0 0-4.266666 42.666666l394.666666 565.333334a28.16 28.16 0 0 0 9.813334 8.96h2.986666a27.306667 27.306667 0 0 0 26.453334 0h2.986666a28.16 28.16 0 0 0 9.813334-8.96l394.666666-566.186667a32 32 0 0 0-4.266666-41.813333z m-597.333334 102.4L423.253333 725.333333 190.293333 389.973333z m173.653334 37.546666h13.653333l101.973333-21.76L512 796.16l-108.8-360.106667z m-99.84-85.333333l104.106666-188.16 108.8 188.16-105.813333 21.333333z m286.72 49.493333l141.653333-30.293333L600.746667 725.333333z m148.053333-97.28L682.666667 356.693333 564.053333 149.333333h90.453334zM369.493333 149.333333h85.333334L341.333333 356.693333l-157.44-33.706666z" /></svg>