<?xml version="1.0" standalone="no"?><!DOCTYPE svg PUBLIC "-//W3C//DTD SVG 1.1//EN" "http://www.w3.org/Graphics/SVG/1.1/DTD/svg11.dtd"><svg class="icon" width="128px" height="128.00px" viewBox="0 0 1024 1024" version="1.1" xmlns="http://www.w3.org/2000/svg"><path fill="#666666" d="M755.797333 119.466667c98.688 0 179.584 77.653333 182.784 175.488L938.666667 300.8v435.2c0 97.877333-78.293333 178.048-176.938667 181.248l-5.973333 0.085333H268.16c-98.688 0-179.584-77.653333-182.784-175.445333l-0.085333-5.888V300.8c0-100.138667 81.877333-181.333333 182.869333-181.333333 20.224 0 36.565333 16.213333 36.565333 36.266666s-16.341333 36.266667-36.565333 36.266667a109.312 109.312 0 0 0-109.610667 103.68l-0.128 5.12v435.2a109.226667 109.226667 0 0 0 104.576 108.672l5.162667 0.128h487.68a109.312 109.312 0 0 0 109.610667-103.68l0.128-5.12V300.8a109.226667 109.226667 0 0 0-109.738667-108.8 36.437333 36.437333 0 0 1-36.565333-36.266667c0-20.053333 16.341333-36.266667 36.565333-36.266666z m-243.84-12.8c18.858667 0 34.56 14.208 36.394667 32.768l0.170667 3.541333v380.245333l79.573333-78.848a36.821333 36.821333 0 0 1 49.109333-2.346666l2.602667 2.346666c13.312 13.226667 14.378667 34.304 2.389333 48.725334l-2.389333 2.56-141.994667 140.8a36.778667 36.778667 0 0 1-49.109333 2.346666l-2.602667-2.346666-141.994666-140.8a36.053333 36.053333 0 0 1-1.28-50.048 36.778667 36.778667 0 0 1 50.346666-3.584l2.645334 2.346666 79.573333 78.933334V142.933333c0-20.053333 16.384-36.266667 36.565333-36.266666z" /></svg>