<?xml version="1.0" standalone="no"?><!DOCTYPE svg PUBLIC "-//W3C//DTD SVG 1.1//EN" "http://www.w3.org/Graphics/SVG/1.1/DTD/svg11.dtd"><svg class="icon" width="128px" height="128.00px" viewBox="0 0 1024 1024" version="1.1" xmlns="http://www.w3.org/2000/svg"><path fill="#666666" d="M800 693.333333A32.426667 32.426667 0 0 0 768 725.333333v52.906667a11.093333 11.093333 0 0 1-10.666667 11.093333H266.666667a11.093333 11.093333 0 0 1-10.666667-11.093333V725.333333a32 32 0 0 0-64 0v52.906667A75.093333 75.093333 0 0 0 266.666667 853.333333h490.666666a75.093333 75.093333 0 0 0 74.666667-75.093333V725.333333a32.426667 32.426667 0 0 0-32-32zM487.68 617.386667a30.72 30.72 0 0 0 48.64 0l173.653333-180.053334a32 32 0 0 0-46.08-42.666666l-119.893333 124.16V170.666667a32 32 0 0 0-64 0v346.453333L360.106667 392.96a32 32 0 1 0-46.08 42.666667z" /></svg>