<?xml version="1.0" standalone="no"?><!DOCTYPE svg PUBLIC "-//W3C//DTD SVG 1.1//EN" "http://www.w3.org/Graphics/SVG/1.1/DTD/svg11.dtd"><svg class="icon" width="128px" height="128.00px" viewBox="0 0 1024 1024" version="1.1" xmlns="http://www.w3.org/2000/svg"><path fill="#666666" d="M463.872 85.333333a41.301333 41.301333 0 0 1 3.968 82.389334l-3.968 0.170666H271.146667a103.253333 103.253333 0 0 0-103.082667 97.706667l-0.128 5.546667v481.706666a103.253333 103.253333 0 0 0 97.706667 103.082667l5.546666 0.170667h481.749334a103.253333 103.253333 0 0 0 103.082666-97.706667l0.170667-5.546667V560.213333a41.301333 41.301333 0 0 1 82.346667-3.968l0.213333 3.968v192.682667a185.813333 185.813333 0 0 1-179.285333 185.685333l-6.528 0.128H271.146667a185.813333 185.813333 0 0 1-185.728-179.285333L85.333333 752.853333V271.146667a185.813333 185.813333 0 0 1 179.285334-185.685334L271.146667 85.333333h192.725333z m428.032 51.626667c14.933333 14.976 16.213333 38.826667 2.816 55.296l-2.816 3.114667-330.368 330.325333a41.301333 41.301333 0 0 1-61.269333-55.210667l2.816-3.157333 330.410666-330.325333a41.301333 41.301333 0 0 1 58.410667 0z" /></svg>