<?xml version="1.0" standalone="no"?><!DOCTYPE svg PUBLIC "-//W3C//DTD SVG 1.1//EN" "http://www.w3.org/Graphics/SVG/1.1/DTD/svg11.dtd"><svg class="icon" width="128px" height="128.00px" viewBox="0 0 1024 1024" version="1.1" xmlns="http://www.w3.org/2000/svg"><path fill="#666666" d="M512 85.333333a426.666667 426.666667 0 1 0 426.666667 426.666667A426.666667 426.666667 0 0 0 512 85.333333z m0 789.333334a362.666667 362.666667 0 1 1 362.666667-362.666667 363.093333 363.093333 0 0 1-362.666667 362.666667zM640 608a181.76 181.76 0 0 1-256 0 32.853333 32.853333 0 0 0-45.653333 0 32 32 0 0 0 0 45.226667 246.186667 246.186667 0 0 0 347.306666 0 32 32 0 0 0 0-45.226667 32 32 0 0 0-45.653333 0zM382.72 384m-42.666667 0a42.666667 42.666667 0 1 0 85.333334 0 42.666667 42.666667 0 1 0-85.333334 0ZM640 384m-42.666667 0a42.666667 42.666667 0 1 0 85.333334 0 42.666667 42.666667 0 1 0-85.333334 0Z" /></svg>