<?xml version="1.0" standalone="no"?><!DOCTYPE svg PUBLIC "-//W3C//DTD SVG 1.1//EN" "http://www.w3.org/Graphics/SVG/1.1/DTD/svg11.dtd"><svg class="icon" width="128px" height="128.00px" viewBox="0 0 1024 1024" version="1.1" xmlns="http://www.w3.org/2000/svg"><path fill="#666666" d="M924.16 433.92A82.346667 82.346667 0 0 0 853.333333 400.213333V274.773333a130.986667 130.986667 0 0 0-130.986666-130.56H215.893333A130.56 130.56 0 0 0 85.333333 274.773333v542.72a30.72 30.72 0 0 0 11.52 22.186667 79.36 79.36 0 0 0 73.813334 40.106667h533.333333a149.333333 149.333333 0 0 0 131.413333-96l96.426667-265.386667a90.026667 90.026667 0 0 0-7.68-84.48zM149.333333 274.773333a66.56 66.56 0 0 1 66.56-66.56h504.32a66.986667 66.986667 0 0 1 66.986667 66.56v125.44h-85.333333a18.346667 18.346667 0 0 1-16.64-6.4L627.2 298.666667a82.346667 82.346667 0 0 0-72.533333-36.693334H370.346667a149.333333 149.333333 0 0 0-130.986667 96L149.333333 604.586667z m722.346667 221.866667l-96.426667 264.96a85.333333 85.333333 0 0 1-71.253333 54.186667H170.666667c-9.813333 0-15.786667-2.986667-18.346667-9.813334a33.28 33.28 0 0 1 0-6.826666 42.666667 42.666667 0 0 1 2.986667-15.36L298.666667 379.733333a85.333333 85.333333 0 0 1 71.68-53.76H554.666667a21.76 21.76 0 0 1 17.066666 6.826667l60.586667 93.866667a80.64 80.64 0 0 0 71.253333 37.12H853.333333a20.053333 20.053333 0 0 1 16.64 6.4 30.293333 30.293333 0 0 1 1.706667 26.453333z" /></svg>