<?xml version="1.0" standalone="no"?><!DOCTYPE svg PUBLIC "-//W3C//DTD SVG 1.1//EN" "http://www.w3.org/Graphics/SVG/1.1/DTD/svg11.dtd"><svg class="icon" width="128px" height="128.00px" viewBox="0 0 1024 1024" version="1.1" xmlns="http://www.w3.org/2000/svg"><path fill="#666666" d="M896.426667 213.461333a293.12 293.12 0 0 1 71.466666 294.144 35.541333 35.541333 0 1 1-60.970666 14.293334 36.138667 36.138667 0 0 1-7.125334-35.882667 220.544 220.544 0 0 0-94.848-254.208 217.173333 217.173333 0 0 0-267.690666 32.512 35.584 35.584 0 0 1-50.517334 0 217.173333 217.173333 0 0 0-308.693333 0C97.28 345.6 92.757333 475.349333 165.376 561.322667l4.522667 5.205333 8.106666 8.661333 258.218667 259.925334c35.626667 35.925333 91.306667 41.941333 133.674667 14.506666a35.584 35.584 0 0 1 48.896 11.008 36.138667 36.138667 0 0 1-10.154667 49.365334 177.578667 177.578667 0 0 1-218.026667-19.2l-4.906666-4.821334-258.773334-260.608-9.386666-9.856a293.205333 293.205333 0 0 1 9.984-402.048 288.256 288.256 0 0 1 380.032-26.112l4.394666 3.413334 4.437334-3.413334a288.256 288.256 0 0 1 380.032 26.112z m-134.4 338.176a35.84 35.84 0 0 1 35.541333 32.469334l0.170667 3.498666v71.893334h71.424a35.84 35.84 0 0 1 35.925333 34.218666 35.882667 35.882667 0 0 1-32.469333 37.546667l-3.456 0.213333h-71.424v71.893334c0 19.2-14.976 34.986667-34.005334 35.925333a35.84 35.84 0 0 1-37.290666-32.426667l-0.170667-3.456v-71.978666h-71.424a35.84 35.84 0 0 1-35.413333-34.218667 35.882667 35.882667 0 0 1 32-37.546667l3.413333-0.128h71.424V587.52a35.84 35.84 0 0 1 35.712-35.968z" /></svg>