<?xml version="1.0" standalone="no"?><!DOCTYPE svg PUBLIC "-//W3C//DTD SVG 1.1//EN" "http://www.w3.org/Graphics/SVG/1.1/DTD/svg11.dtd"><svg class="icon" width="128px" height="128.00px" viewBox="0 0 1024 1024" version="1.1" xmlns="http://www.w3.org/2000/svg"><path fill="#666666" d="M227.541333 938.666667a142.506667 142.506667 0 0 1-142.08-137.130667L85.333333 795.733333V228.224c0-47.061333 23.04-91.050667 61.610667-117.76a141.653333 141.653333 0 0 1 131.498667-15.658667l6.869333 2.858667 227.882667 101.76a194.858667 194.858667 0 0 1 115.029333 170.837333l0.128 7.210667v483.242667h168.106667c34.048 0 62.293333-26.538667 64.512-60.672l0.128-4.266667v-198.272c0-54.4-37.845333-97.664-83.882667-100.394667l-4.693333-0.128h-102.4V419.072h102.4c90.624 0 162.986667 77.226667 166.058666 172.202667l0.085334 6.229333v198.272a142.592 142.592 0 0 1-136.533334 142.805333l-5.674666 0.085334H227.541333z m0-775.381334c-34.048 0-62.293333 26.538667-64.512 60.672l-0.128 4.266667v567.552c0 34.218667 26.453333 62.592 60.416 64.853333l4.266667 0.085334h323.2V377.472c0-42.069333-22.485333-80.896-58.88-101.674667l-5.034667-2.688-5.162666-2.474666-227.925334-101.76a64.426667 64.426667 0 0 0-26.24-5.589334zM416.426667 613.930667a38.826667 38.826667 0 0 1 38.698666 37.077333 38.912 38.912 0 0 1-34.986666 40.661333l-3.712 0.170667H279.253333a38.869333 38.869333 0 0 1-38.698666-37.12 38.912 38.912 0 0 1 34.986666-40.618667l3.712-0.170666H416.426667z m0-155.904c20.693333 0 37.717333 16.341333 38.698666 37.12a38.912 38.912 0 0 1-34.986666 40.618666l-3.712 0.213334H279.253333a38.869333 38.869333 0 0 1-38.698666-37.12 38.912 38.912 0 0 1 34.986666-40.661334l3.712-0.170666H416.426667z" /></svg>