<?xml version="1.0" standalone="no"?><!DOCTYPE svg PUBLIC "-//W3C//DTD SVG 1.1//EN" "http://www.w3.org/Graphics/SVG/1.1/DTD/svg11.dtd"><svg class="icon" width="128px" height="128.00px" viewBox="0 0 1024 1024" version="1.1" xmlns="http://www.w3.org/2000/svg"><path fill="#666666" d="M512 170.666667C286.634667 170.666667 92.586667 318.421333 43.605333 524.032a40.533333 40.533333 0 0 0 0 18.688C92.629333 748.245333 286.72 896 512 896c225.28 0 419.413333-147.754667 468.266667-353.28a40.405333 40.405333 0 0 0 0-18.773333C931.328 318.464 737.28 170.666667 512 170.666667z m9.216 80.682666c178.474667 3.84 330.837333 117.461333 376.405333 274.901334l1.962667 7.082666-1.962667 7.082667c-46.378667 160.128-203.221333 274.986667-385.706666 274.986667l-9.216-0.085334c-178.474667-3.84-330.794667-117.461333-376.405334-274.816l-1.962666-7.125333 1.962666-7.125333C172.629333 366.122667 329.514667 251.306667 512 251.306667l9.216 0.085333zM512 412.458667c-43.093333 0-82.944 23.04-104.533333 60.416a121.045333 121.045333 0 0 0 0 120.917333 120.661333 120.661333 0 0 0 225.237333-60.458667 120.746667 120.746667 0 0 0-120.704-120.874666z m0 80.597333a40.234667 40.234667 0 0 1 34.858667 60.416 40.234667 40.234667 0 0 1-75.093334-20.138667c0-22.272 18.005333-40.277333 40.234667-40.277333z" /></svg>