<?xml version="1.0" standalone="no"?><!DOCTYPE svg PUBLIC "-//W3C//DTD SVG 1.1//EN" "http://www.w3.org/Graphics/SVG/1.1/DTD/svg11.dtd"><svg class="icon" width="128px" height="128.00px" viewBox="0 0 1024 1024" version="1.1" xmlns="http://www.w3.org/2000/svg"><path fill="#666666" d="M511.957333 42.666667C771.2 42.666667 981.333333 252.8 981.333333 512s-210.133333 469.333333-469.376 469.333333S42.581333 771.2 42.581333 512 252.714667 42.666667 511.957333 42.666667z m0 80.469333a388.906667 388.906667 0 1 0 0 777.728 388.906667 388.906667 0 1 0 0-777.728z m155.093334 226.346667c14.592 14.592 15.786667 37.845333 2.773333 53.802666l-2.773333 3.072-101.973334 101.930667 101.973334 101.930667a40.234667 40.234667 0 0 1-53.802667 59.648l-3.072-2.773334-101.973333-101.973333-101.888 101.973333a40.234667 40.234667 0 0 1-59.690667-53.845333l2.773333-3.029333 101.973334-101.973334-101.973334-101.888a40.234667 40.234667 0 0 1 53.845334-59.648l3.072 2.730667 101.888 101.973333 101.973333-101.973333a40.234667 40.234667 0 0 1 56.874667 0z" /></svg>