<?xml version="1.0" standalone="no"?><!DOCTYPE svg PUBLIC "-//W3C//DTD SVG 1.1//EN" "http://www.w3.org/Graphics/SVG/1.1/DTD/svg11.dtd"><svg class="icon" width="128px" height="128.00px" viewBox="0 0 1024 1024" version="1.1" xmlns="http://www.w3.org/2000/svg"><path fill="#666666" d="M810.666667 307.2l-177.066667-186.88A111.36 111.36 0 0 0 554.666667 85.333333H293.973333a114.773333 114.773333 0 0 0-112.64 117.333334v618.666666A114.773333 114.773333 0 0 0 293.973333 938.666667h436.053334a114.773333 114.773333 0 0 0 112.64-117.333334V389.546667A119.04 119.04 0 0 0 810.666667 307.2z m-181.333334-98.133333L725.333333 309.333333h-96z m149.333334 612.266666a51.2 51.2 0 0 1-48.64 53.333334H293.973333a51.2 51.2 0 0 1-48.64-53.333334V202.666667A51.2 51.2 0 0 1 293.973333 149.333333H554.666667a37.546667 37.546667 0 0 1 11.946666 2.56V341.333333a32.426667 32.426667 0 0 0 32 32h178.346667a52.053333 52.053333 0 0 1 2.986667 16.213334z" /></svg>