<?xml version="1.0" standalone="no"?><!DOCTYPE svg PUBLIC "-//W3C//DTD SVG 1.1//EN" "http://www.w3.org/Graphics/SVG/1.1/DTD/svg11.dtd"><svg class="icon" width="128px" height="128.00px" viewBox="0 0 1024 1024" version="1.1" xmlns="http://www.w3.org/2000/svg"><path fill="#666666" d="M834.986667 253.013333a177.92 177.92 0 0 1-74.24-21.333333 241.066667 241.066667 0 0 0-118.613334-28.16 243.2 243.2 0 0 0-119.04 28.16 180.053333 180.053333 0 0 1-90.453333 21.76A180.053333 180.053333 0 0 1 341.333333 231.68a242.346667 242.346667 0 0 0-85.333333-26.453333v-26.453334a48.64 48.64 0 0 0-32.426667-85.333333 49.066667 49.066667 0 0 0-32.853333 85.333333v735.573334a32.853333 32.853333 0 0 0 32.853333 32.426666 32.426667 32.426667 0 0 0 32.426667-32.426666v-329.386667a178.346667 178.346667 0 0 1 58.026667 19.626667 241.92 241.92 0 0 0 119.04 28.16 241.066667 241.066667 0 0 0 118.613333-28.16 175.36 175.36 0 0 1 90.453333-22.186667 175.36 175.36 0 0 1 90.453334 22.186667 241.493333 241.493333 0 0 0 94.72 27.306666 52.48 52.48 0 0 0 56.746666-52.053333V305.92a52.906667 52.906667 0 0 0-49.066666-52.906667z m-16.213334 312.32a175.786667 175.786667 0 0 1-57.6-19.626666 242.346667 242.346667 0 0 0-119.04-28.586667 240.64 240.64 0 0 0-118.613333 28.586667 181.333333 181.333333 0 0 1-90.453333 21.76A181.76 181.76 0 0 1 341.333333 545.706667a238.506667 238.506667 0 0 0-85.333333-26.88V270.933333a178.346667 178.346667 0 0 1 58.026667 19.626667 241.066667 241.066667 0 0 0 118.613333 28.16 243.2 243.2 0 0 0 119.04-28.16 175.36 175.36 0 0 1 90.453333-22.186667 175.36 175.36 0 0 1 90.453334 22.186667 251.306667 251.306667 0 0 0 85.333333 26.453333z" /></svg>