<?xml version="1.0" standalone="no"?><!DOCTYPE svg PUBLIC "-//W3C//DTD SVG 1.1//EN" "http://www.w3.org/Graphics/SVG/1.1/DTD/svg11.dtd"><svg class="icon" width="128px" height="128.00px" viewBox="0 0 1024 1024" version="1.1" xmlns="http://www.w3.org/2000/svg"><path fill="#666666" d="M402.688 85.333333c63.189333 0 121.941333 32.64 155.306667 86.314667l3.456 5.802667L606.336 256h149.461333a182.869333 182.869333 0 0 1 182.784 176.938667l0.085334 5.930666v316.928a182.869333 182.869333 0 0 1-176.938667 182.784l-5.973333 0.085334H268.16A182.869333 182.869333 0 0 1 85.333333 761.728l-0.085333-5.930667V268.202667a182.869333 182.869333 0 0 1 176.938667-182.784L268.16 85.333333h134.528z m353.109333 243.797334H158.378667v426.666666a109.696 109.696 0 0 0 104.576 109.610667l5.162666 0.128h487.68a109.696 109.696 0 0 0 109.610667-104.533333l0.128-5.205334v-316.928a109.696 109.696 0 0 0-104.533333-109.610666l-5.205334-0.128z m-170.666666 353.536a36.565333 36.565333 0 0 1 3.498666 72.96l-3.541333 0.170666h-146.261333a36.565333 36.565333 0 0 1-3.541334-72.96l3.541334-0.170666h146.261333zM402.645333 158.464H268.117333a109.738667 109.738667 0 0 0-107.818666 89.301333l-0.853334 5.12L159.104 256h362.965333l-24.149333-42.24a109.738667 109.738667 0 0 0-83.797333-54.698667l-5.845334-0.426666-5.589333-0.170667z" /></svg>