<?xml version="1.0" standalone="no"?><!DOCTYPE svg PUBLIC "-//W3C//DTD SVG 1.1//EN" "http://www.w3.org/Graphics/SVG/1.1/DTD/svg11.dtd"><svg class="icon" width="128px" height="128.00px" viewBox="0 0 1024 1024" version="1.1" xmlns="http://www.w3.org/2000/svg"><path fill="#666666" d="M463.829333 85.333333a41.301333 41.301333 0 0 1 3.968 82.389334l-3.968 0.170666H271.146667a103.253333 103.253333 0 0 0-103.082667 97.706667l-0.170667 5.546667v481.706666a103.253333 103.253333 0 0 0 97.706667 103.082667l5.546667 0.170667h481.706666a103.253333 103.253333 0 0 0 103.082667-97.706667l0.170667-5.546667V560.213333a41.301333 41.301333 0 0 1 82.346666-3.968l0.213334 3.968v192.682667a185.813333 185.813333 0 0 1-179.285334 185.685333l-6.528 0.128H271.146667a185.813333 185.813333 0 0 1-185.728-179.285333L85.333333 752.853333V271.146667a185.813333 185.813333 0 0 1 179.285334-185.685334L271.146667 85.333333h192.682666z m353.365334 44.544l3.2 2.816 70.058666 67.754667 2.645334 2.773333a41.301333 41.301333 0 0 1-20.181334 74.624l-3.968 0.170667h-81.664a233.984 233.984 0 0 0-233.898666 226.986667l-0.085334 6.997333v13.781333a41.301333 41.301333 0 0 1-82.389333 3.925334l-0.213333-3.925334V512a316.586667 316.586667 0 0 1 296.490666-315.904l-4.266666-4.053333a41.301333 41.301333 0 0 1 54.272-62.165334z" /></svg>