<?xml version="1.0" standalone="no"?><!DOCTYPE svg PUBLIC "-//W3C//DTD SVG 1.1//EN" "http://www.w3.org/Graphics/SVG/1.1/DTD/svg11.dtd"><svg class="icon" width="128px" height="128.00px" viewBox="0 0 1024 1024" version="1.1" xmlns="http://www.w3.org/2000/svg"><path fill="#666666" d="M511.957333 42.666667c-212.096 0-384.042667 172.714667-384.042666 385.749333l0.085333 8.789333a385.749333 385.749333 0 0 0 261.248 356.864l6.656 2.133334 52.693333 52.906666 3.84 3.626667c35.413333 31.658667 89.344 30.08 122.88-3.626667l52.693334-52.906666 6.656-2.133334A385.749333 385.749333 0 0 0 896 428.373333C896 215.381333 724.053333 42.666667 511.957333 42.666667z m0 77.141333c169.685333 0 307.2 138.197333 307.2 308.608a308.608 308.608 0 0 1-222.165333 296.661333 38.4 38.4 0 0 0-16.512 9.770667l-59.477333 59.733333a12.8 12.8 0 0 1-18.133334 0l-59.434666-59.733333a38.4 38.4 0 0 0-16.512-9.813333 308.565333 308.565333 0 0 1-222.208-296.618667c0-170.410667 137.557333-308.608 307.2-308.608z m107.264 270.037333c21.205333 0 38.4 17.28 38.4 38.570667 0 52.266667-27.733333 100.608-72.832 126.72a145.109333 145.109333 0 0 1-145.664 0 146.432 146.432 0 0 1-72.832-126.72c0-21.333333 17.194667-38.570667 38.4-38.570667s38.4 17.28 38.4 38.570667c0 38.229333 30.805333 69.162667 68.864 69.162667 38.016 0 68.864-30.933333 68.864-69.12 0-21.333333 17.194667-38.613333 38.4-38.613334zM601.6 904.192c20.48 0 37.376 16.170667 38.357333 36.693333a38.528 38.528 0 0 1-34.645333 40.277334l-3.712 0.170666H422.4A38.485333 38.485333 0 0 1 384 944.64a38.528 38.528 0 0 1 34.645333-40.277333l3.712-0.170667h179.2z" /></svg>