<?xml version="1.0" standalone="no"?><!DOCTYPE svg PUBLIC "-//W3C//DTD SVG 1.1//EN" "http://www.w3.org/Graphics/SVG/1.1/DTD/svg11.dtd"><svg class="icon" width="128px" height="128.00px" viewBox="0 0 1024 1024" version="1.1" xmlns="http://www.w3.org/2000/svg"><path fill="#666666" d="M443.690667 85.333333a182.869333 182.869333 0 0 1 182.741333 176.938667l0.128 5.930667v597.333333h177.962667c32.128 0 58.752-24.917333 60.842666-56.96l0.128-4.010667v-186.026666c0-50.645333-38.613333-91.733333-86.784-94.208l-4.650666-0.128h-100.608V450.986667h100.608c89.173333 0 161.536 72.106667 164.522666 161.706666l0.085334 5.76v186.069334a134.101333 134.101333 0 0 1-128.725334 133.973333l-5.418666 0.128H219.349333a134.101333 134.101333 0 0 1-133.973333-128.725333l-0.128-5.376V219.434667a134.101333 134.101333 0 0 1 128.725333-133.973334L219.306667 85.333333H443.733333z m0 73.130667H219.306667c-32.128 0-58.709333 24.917333-60.842667 56.96l-0.128 4.010667v585.130666c0 32.128 24.917333 58.752 56.96 60.842667l4.010667 0.128h334.08v-597.333333a109.696 109.696 0 0 0-99.328-109.226667l-5.248-0.384-5.162667-0.128zM354.304 227.968c18.858667 0 34.56 14.293333 36.394667 33.024l0.170666 3.498667v49.621333h49.621334a36.565333 36.565333 0 0 1 3.498666 72.96l-3.498666 0.213333-49.621334-0.042666v49.621333a36.565333 36.565333 0 0 1-72.96 3.541333l-0.170666-3.541333V387.242667H268.074667a36.565333 36.565333 0 0 1-3.498667-72.96l3.498667-0.170667h49.578666V264.490667c0-20.181333 16.384-36.565333 36.608-36.565334z" /></svg>