<?xml version="1.0" standalone="no"?><!DOCTYPE svg PUBLIC "-//W3C//DTD SVG 1.1//EN" "http://www.w3.org/Graphics/SVG/1.1/DTD/svg11.dtd"><svg class="icon" width="128px" height="128.00px" viewBox="0 0 1024 1024" version="1.1" xmlns="http://www.w3.org/2000/svg"><path fill="#666666" d="M791.04 881.066667a33.706667 33.706667 0 0 1-22.613333-9.386667 32 32 0 0 1 0-45.226667 362.666667 362.666667 0 1 0-512 0 32 32 0 0 1-45.226667 45.226667A426.666667 426.666667 0 1 1 938.666667 569.6a424.106667 424.106667 0 0 1-125.013334 302.08 33.706667 33.706667 0 0 1-22.613333 9.386667zM670.293333 760.32a33.706667 33.706667 0 0 1-22.613333-9.386667 32 32 0 0 1 0-45.226666 192 192 0 1 0-271.36 0 32 32 0 0 1-45.226667 45.226666A256 256 0 0 1 256 569.6a256 256 0 0 1 512 0 256 256 0 0 1-75.093333 181.333333 32.853333 32.853333 0 0 1-22.613334 9.386667zM512 654.933333a85.333333 85.333333 0 1 1 85.333333-85.333333 85.333333 85.333333 0 0 1-85.333333 85.333333z m0-106.666666a21.333333 21.333333 0 0 0-21.333333 21.333333 21.333333 21.333333 0 1 0 42.666666 0 21.333333 21.333333 0 0 0-21.333333-21.333333z" /></svg>