<?xml version="1.0" standalone="no"?><!DOCTYPE svg PUBLIC "-//W3C//DTD SVG 1.1//EN" "http://www.w3.org/Graphics/SVG/1.1/DTD/svg11.dtd"><svg class="icon" width="128px" height="128.00px" viewBox="0 0 1024 1024" version="1.1" xmlns="http://www.w3.org/2000/svg"><path fill="#666666" d="M780.202667 128c108.544 0 197.546667 85.034667 201.045333 192.170667l0.085333 6.442666v370.773334a195.84 195.84 0 0 1-11.861333 67.413333l-0.426667 1.322667-0.725333 1.962666-0.853333 1.92a201.130667 201.130667 0 0 1-179.797334 125.866667l-7.466666 0.128H243.797333c-108.544 0-197.546667-85.034667-201.045333-192.170667L42.666667 697.386667v-370.773334c0-107.178667 86.144-195.029333 194.645333-198.528L243.797333 128h536.405334z m0 79.445333H243.797333c-64.426667 0-117.504 50.005333-120.533333 113.578667l-0.128 5.589333v370.773334c0 63.616 50.602667 116.053333 114.986667 119.04l5.674666 0.128h147.754667c5.76-90.325333 114.773333-155.648 253.141333-169.429334a145.621333 145.621333 0 0 1-91.434666-119.466666l-0.512-6.4-3.157334-50.048a148.053333 148.053333 0 0 1 69.717334-134.4 152.106667 152.106667 0 0 1 152.832-4.693334 148.309333 148.309333 0 0 1 78.08 129.834667l-0.128 4.650667-0.213334 4.608-3.157333 50.048a145.621333 145.621333 0 0 1-91.989333 125.909333c54.485333 5.461333 104.917333 18.986667 146.176 39.168v-359.68c0-63.658667-50.645333-116.053333-115.029334-119.04l-5.674666-0.170667zM699.733333 723.882667c-122.197333 0-217.642667 46.506667-227.157333 92.672h307.626667c41.173333 0 77.482667-20.352 99.285333-51.370667-43.008-25.301333-108.288-41.301333-179.754667-41.301333z m0-331.093334a69.546667 69.546667 0 0 0-69.973333 69.12l0.128 4.352 3.157333 50.048c2.176 33.92 30.08 60.629333 64.469334 61.738667a66.56 66.56 0 0 0 68.48-57.429333l0.426666-4.266667 3.2-50.090667 0.128-4.309333c0-18.346667-7.381333-35.925333-20.522666-48.896a70.4 70.4 0 0 0-49.493334-20.224z m-268.202666-63.146666c21.461333 0 39.125333 16.64 40.192 37.802666a39.893333 39.893333 0 0 1-36.309334 41.429334l-3.84 0.170666h-168.106666a40.021333 40.021333 0 0 1-40.234667-37.802666 39.893333 39.893333 0 0 1 36.309333-41.429334l3.882667-0.213333h168.106667z" /></svg>