<?xml version="1.0" standalone="no"?><!DOCTYPE svg PUBLIC "-//W3C//DTD SVG 1.1//EN" "http://www.w3.org/Graphics/SVG/1.1/DTD/svg11.dtd"><svg class="icon" width="128px" height="128.00px" viewBox="0 0 1024 1024" version="1.1" xmlns="http://www.w3.org/2000/svg"><path fill="#666666" d="M431.573333 132.906667a136.533333 136.533333 0 0 1 155.946667-3.498667l4.992 3.498667 292.522667 214.570666c32 23.466667 51.626667 59.648 53.504 98.730667l0.128 6.186667v286.122666c0 96.512-78.293333 175.616-176.938667 178.730667l-5.930667 0.085333H268.202667c-98.688 0-179.584-76.586667-182.784-173.013333L85.333333 738.517333v-286.122666c0-39.125333 17.877333-76.202667 48.682667-101.12l4.949333-3.797334 292.608-214.613333z m117.034667 57.173333a62.08 62.08 0 0 0-69.248-2.56l-3.84 2.56-292.693333 214.613333a59.306667 59.306667 0 0 0-24.192 43.392l-0.170667 4.266667v286.165333c0 57.301333 46.037333 104.448 104.533333 107.178667l5.205334 0.128h487.594666c58.581333 0 106.837333-45.013333 109.610667-102.272l0.128-5.034667v-286.122666c0-17.237333-7.68-33.664-20.992-44.970667l-3.413333-2.730667-292.522667-214.613333z m36.522667 476.885333c19.541333 0 35.584 15.018667 36.522666 34.048a36.053333 36.053333 0 0 1-32.981333 37.333334l-3.541333 0.170666h-146.261334a36.224 36.224 0 0 1-36.522666-34.048 36.053333 36.053333 0 0 1 32.981333-37.333333l3.541333-0.170667h146.261334z" /></svg>