<?xml version="1.0" standalone="no"?><!DOCTYPE svg PUBLIC "-//W3C//DTD SVG 1.1//EN" "http://www.w3.org/Graphics/SVG/1.1/DTD/svg11.dtd"><svg class="icon" width="128px" height="128.00px" viewBox="0 0 1024 1024" version="1.1" xmlns="http://www.w3.org/2000/svg"><path fill="#666666" d="M819 64.58H205c-59.65 0-108 48.35-108 108v678.84c0 59.65 48.35 108 108 108h614c59.65 0 108-48.35 108-108V172.58c0-59.65-48.36-108-108-108z m-534.98 61h198.11v237.01l-80.88-54.33a30.49 30.49 0 0 0-34.01 0l-83.21 55.9V125.58zM866 851.42c0 25.92-21.08 47-47 47H205c-25.92 0-47-21.08-47-47V172.58c0-25.92 21.08-47 47-47h18.02v295.81a30.495 30.495 0 0 0 30.5 30.5c5.95 0 11.89-1.74 17.01-5.18l113.71-76.39 111.38 74.82a30.502 30.502 0 0 0 47.51-25.32V125.58H819c25.92 0 47 21.08 47 47v678.84z" /></svg>