<?xml version="1.0" standalone="no"?><!DOCTYPE svg PUBLIC "-//W3C//DTD SVG 1.1//EN" "http://www.w3.org/Graphics/SVG/1.1/DTD/svg11.dtd"><svg class="icon" width="128px" height="127.88px" viewBox="0 0 1025 1024" version="1.1" xmlns="http://www.w3.org/2000/svg"><path fill="#666666" d="M712.95999969 250.88h240.96a38.08000031 38.08000031 0 1 0 0-76.15999969h-240.96a38.08000031 38.08000031 0 1 0 0 76.15999969zM953.91999969 374.07999969H768.00000031a38.08000031 38.08000031 0 1 0 0 76.16000062h186.87999938a38.08000031 38.08000031 0 1 0 0-76.16000062zM953.91999969 576.00000031h-79.03999969a38.08000031 38.08000031 0 1 0 0 76.15999969h79.03999969a38.08000031 38.08000031 0 1 0 0-76.15999969zM953.91999969 773.12h-79.03999969a38.08000031 38.08000031 0 0 0 0 76.15999969h79.03999969a38.08000031 38.08000031 0 1 0 0-76.15999969zM552.32 547.20000031a250.56 250.56 0 1 0-290.23999969 0A376.00000031 376.00000031 0 0 0 32 893.12a38.08000031 38.08000031 0 1 0 76.15999969 0 299.20000031 299.20000031 0 0 1 598.08 0 38.08000031 38.08000031 0 1 0 76.16000062 0 376.00000031 376.00000031 0 0 0-230.08000031-345.91999969z m-319.99999969-203.52a174.40000031 174.40000031 0 1 1 174.39999938 174.39999938 174.72 174.72 0 0 1-173.76-174.72z" /></svg>