<?xml version="1.0" standalone="no"?><!DOCTYPE svg PUBLIC "-//W3C//DTD SVG 1.1//EN" "http://www.w3.org/Graphics/SVG/1.1/DTD/svg11.dtd"><svg class="icon" width="128px" height="128.00px" viewBox="0 0 1024 1024" version="1.1" xmlns="http://www.w3.org/2000/svg"><path fill="#666666" d="M822.56 382.5104c47.9568-31.896 79.5936-86.376 79.5936-148.2672 0-98.2992-79.68-178.008-178.008-178.008-98.2992 0-178.008 79.68-178.008 178.008 0 61.896 31.6368 116.376 79.5936 148.2672-91.632 36.5808-156.7152 122.6688-160.0512 223.896 0 0 3.5328 28.992 35.3424 27.4128 25.4592 1.5792 39.9408-27.4128 39.9408-27.4128 17.2128-110.28 79.392-170.1936 183.1824-170.1936s171.5136 59.9088 188.7552 170.1936c0 0 12.7872 24.2208 35.0544 25.8048 29.712 3.3888 34.68-25.8048 34.68-25.8048C979.304 505.2032 914.192 419.0864 822.56 382.5104zM724.1456 341.4176c-59.1936 0-107.1792-47.9856-107.1792-107.1792s47.9856-107.1792 107.1792-107.1792c59.1936 0 107.1792 47.9856 107.1792 107.1792C831.3248 293.432 783.3392 341.4176 724.1456 341.4176zM981.632 688.8464l0-5.4576c0-19.1664-16.4928-34.7088-36.8352-34.7088s-36.8352 15.5472-36.8352 34.7088l0 199.8192c0 0.864 0.0576 1.7232 0.144 2.5872L112.2176 885.7952 112.2176 135.1664l143.472 0.0864c2.2704 0.4896 4.5984 0.7488 6.984 0.7488l199.8192 0c19.1664 0 34.7088-16.4928 34.7088-36.8352s-15.5472-36.8352-34.7088-36.8352L262.6736 62.3312c-0.0864 0-0.144 0-0.2304 0L101.504 62.3312c-32.64 0-59.0784 26.4336-59.0784 59.0784l0 778.1232c0 32.64 26.4336 59.0784 59.0784 59.0784L923.216 958.6112c32.6112 0 59.0784-26.4336 59.0784-59.0784l0.3168-210.7104L981.632 688.8464zM205.2032 326.5616l199.8192 0c19.1664 0 34.7088-16.4928 34.7088-36.8352s-15.5472-36.8352-34.7088-36.8352L205.2032 252.8912c-19.1664 0-34.7088 16.4928-34.7088 36.8352C170.4944 310.0688 186.0368 326.5616 205.2032 326.5616zM200.12 547.5584l199.8192 0c19.1664 0 34.7088-16.4928 34.7088-36.8352 0-20.3424-15.5472-36.8352-34.7088-36.8352L200.12 473.888c-19.1664 0-34.7088 16.4928-34.7088 36.8352C165.4064 531.0656 180.9536 547.5584 200.12 547.5584zM165.4064 747.7232c0 19.8576 15.1728 35.9472 33.8784 35.9472l550.3776 0c18.7056 0 33.8784-16.0896 33.8784-35.9472s-15.1728-35.9472-33.8784-35.9472L199.2848 711.776C180.5792 711.776 165.4064 727.8656 165.4064 747.7232z" /></svg>