<?xml version="1.0" standalone="no"?><!DOCTYPE svg PUBLIC "-//W3C//DTD SVG 1.1//EN" "http://www.w3.org/Graphics/SVG/1.1/DTD/svg11.dtd"><svg class="icon" width="128px" height="128.00px" viewBox="0 0 1024 1024" version="1.1" xmlns="http://www.w3.org/2000/svg"><path fill="#666666" d="M505.6 115.2c-102.4 0-198.4 70.4-224 166.4-32 102.4 6.4 211.2 96 268.8-134.4 51.2-217.6 179.2-217.6 326.4 0 19.2 12.8 32 32 32s32-12.8 32-32c0-160 128-288 281.6-288 64 0 121.6-25.6 166.4-70.4 44.8-44.8 70.4-102.4 70.4-166.4 0-134.4-108.8-236.8-236.8-236.8z m0 409.6C409.6 524.8 332.8 448 332.8 352c0-64 32-115.2 83.2-147.2 51.2-32 115.2-32 172.8 0s83.2 89.6 83.2 147.2c6.4 96-70.4 172.8-166.4 172.8zM512 672c12.8 0 25.6-12.8 25.6-25.6s-12.8-25.6-25.6-25.6-25.6 12.8-25.6 25.6c0 19.2 12.8 25.6 25.6 25.6zM268.8 531.2c12.8 0 19.2-6.4 25.6-12.8 6.4-6.4 6.4-19.2 0-32s-12.8-19.2-25.6-19.2c-64-12.8-102.4-70.4-102.4-128 0-57.6 32-108.8 89.6-128 6.4-19.2 19.2-44.8 38.4-57.6-83.2 0-147.2 51.2-172.8 128C96 364.8 128 448 198.4 492.8 96 537.6 25.6 640 25.6 755.2c0 12.8 12.8 25.6 25.6 25.6s25.6-12.8 25.6-25.6c0-115.2 83.2-204.8 192-224zM492.8 691.2c-19.2 44.8-44.8 102.4-44.8 128 0 38.4 70.4 64 70.4 64s70.4-25.6 70.4-64c0-25.6-25.6-83.2-44.8-128-19.2 6.4-38.4 6.4-51.2 0zM723.2 576c-6.4-6.4-19.2-6.4-32-6.4-12.8 6.4-19.2 12.8-19.2 25.6s6.4 25.6 12.8 32c70.4 51.2 108.8 140.8 108.8 230.4 0 19.2 12.8 38.4 32 38.4s32-19.2 32-38.4c6.4-108.8-44.8-217.6-134.4-281.6zM825.6 492.8c70.4-44.8 102.4-128 76.8-211.2-25.6-76.8-89.6-128-166.4-134.4l38.4 57.6c51.2 19.2 89.6 70.4 89.6 128 0 64-44.8 115.2-102.4 134.4-12.8 0-19.2 6.4-25.6 12.8-6.4 12.8-6.4 19.2 0 32 6.4 6.4 19.2 12.8 25.6 12.8 108.8 19.2 192 108.8 192 224 0 12.8 12.8 25.6 25.6 25.6s25.6-12.8 25.6-25.6c-6.4-108.8-76.8-211.2-179.2-256z" /></svg>