<?xml version="1.0" standalone="no"?><!DOCTYPE svg PUBLIC "-//W3C//DTD SVG 1.1//EN" "http://www.w3.org/Graphics/SVG/1.1/DTD/svg11.dtd"><svg class="icon" width="128px" height="128.00px" viewBox="0 0 1024 1024" version="1.1" xmlns="http://www.w3.org/2000/svg"><path fill="#666666" d="M777.813333 922.453333A97.706667 97.706667 0 0 1 686.08 853.333333a32.853333 32.853333 0 0 0-24.32-23.893333l-50.773333-13.226667a32.853333 32.853333 0 0 1-14.506667-8.106666l-62.293333-62.293334-38.826667 11.52a31.146667 31.146667 0 0 1-31.573333-8.106666l-58.026667-59.733334A294.826667 294.826667 0 0 1 128 546.986667a291.413333 291.413333 0 0 1 5.973333-311.04 294.4 294.4 0 0 1 539.733334 185.173333l58.026666 58.026667a32.853333 32.853333 0 0 1 8.106667 32l-11.946667 38.826666 193.706667 193.28a58.453333 58.453333 0 0 1 13.226667 61.866667L915.626667 896a32 32 0 0 1-31.146667 25.6h-106.666667z m-142.08-168.106666l42.666667 11.093333a98.986667 98.986667 0 0 1 70.4 67.84 33.706667 33.706667 0 0 0 37.12 24.746667h73.386667l14.506666-69.12a10.24 10.24 0 0 1 0-3.413334l-204.373333-204.373333a31.146667 31.146667 0 0 1-8.106667-31.573333l11.52-38.826667-55.04-55.466667a31.573333 31.573333 0 0 1-9.386666-26.88 230.826667 230.826667 0 1 0-426.666667 85.333334 231.68 231.68 0 0 0 231.253333 110.506666 32 32 0 0 1 26.88 8.96l55.466667 55.466667 38.826667-11.52a32.426667 32.426667 0 0 1 32 7.68zM334.933333 351.573333m-58.026666 0a58.026667 58.026667 0 1 0 116.053333 0 58.026667 58.026667 0 1 0-116.053333 0Z" /></svg>