<?xml version="1.0" standalone="no"?><!DOCTYPE svg PUBLIC "-//W3C//DTD SVG 1.1//EN" "http://www.w3.org/Graphics/SVG/1.1/DTD/svg11.dtd"><svg class="icon" width="128px" height="128.00px" viewBox="0 0 1024 1024" version="1.1" xmlns="http://www.w3.org/2000/svg"><path fill="#666666" d="M851.42 64.58H172.58c-59.65 0-108 48.35-108 108v678.84c0 59.65 48.35 108 108 108h678.84c59.65 0 108-48.35 108-108V172.58c0-59.65-48.35-108-108-108z m47 786.84c0 25.92-21.08 47-47 47H172.58c-25.92 0-47-21.08-47-47V172.58c0-25.92 21.08-47 47-47h678.84c25.92 0 47 21.08 47 47v678.84zM499.53 492.95L326.16 384.03c-15.71-9.87-36.13 1.42-36.13 19.97v217.99c0 18.56 20.44 29.85 36.15 19.96l173.37-109.07c14.7-9.25 14.7-30.69-0.02-39.93zM740.93 492.95L567.56 384.03c-15.71-9.87-36.13 1.42-36.13 19.97v217.99c0 18.56 20.44 29.85 36.15 19.96l173.37-109.07c14.7-9.25 14.69-30.69-0.02-39.93z" /></svg>