<?xml version="1.0" standalone="no"?><!DOCTYPE svg PUBLIC "-//W3C//DTD SVG 1.1//EN" "http://www.w3.org/Graphics/SVG/1.1/DTD/svg11.dtd"><svg class="icon" width="128px" height="128.00px" viewBox="0 0 1024 1024" version="1.1" xmlns="http://www.w3.org/2000/svg"><path fill="#666666" d="M821.333333 85.333333H202.666667A117.333333 117.333333 0 0 0 85.333333 202.666667v618.666666A117.333333 117.333333 0 0 0 202.666667 938.666667h618.666666A117.333333 117.333333 0 0 0 938.666667 821.333333V202.666667A117.333333 117.333333 0 0 0 821.333333 85.333333z m53.333334 736a53.333333 53.333333 0 0 1-53.333334 53.333334H202.666667a53.333333 53.333333 0 0 1-53.333334-53.333334V202.666667A53.333333 53.333333 0 0 1 202.666667 149.333333h618.666666a53.333333 53.333333 0 0 1 53.333334 53.333334zM444.586667 486.826667a31.573333 31.573333 0 0 0-21.333334-8.106667M800 384a32.426667 32.426667 0 0 1-32 32h-99.84A486.4 486.4 0 0 1 554.666667 604.16c33.706667 32.426667 70.826667 66.133333 107.093333 96.853333a32 32 0 0 1-42.666667 48.64c-27.733333-23.466667-67.84-58.88-108.8-98.56-49.92 51.626667-94.72 89.6-105.813333 98.986667a33.28 33.28 0 0 1-20.48 7.253333 32 32 0 0 1-20.48-56.746666 1305.173333 1305.173333 0 0 0 101.546667-94.72 855.893333 855.893333 0 0 1-64-72.106667l-5.546667-7.68a29.013333 29.013333 0 0 1-4.266667-14.08 32 32 0 0 1 53.333334-23.893333l5.12 7.253333c14.933333 17.92 34.133333 39.68 56.746666 63.146667a489.813333 489.813333 0 0 0 93.866667-144.64H256a32 32 0 0 1 0-64h224V298.666667a32 32 0 0 1 64 0v51.626666H768a32.426667 32.426667 0 0 1 32 33.706667z" /></svg>