<?xml version="1.0" standalone="no"?><!DOCTYPE svg PUBLIC "-//W3C//DTD SVG 1.1//EN" "http://www.w3.org/Graphics/SVG/1.1/DTD/svg11.dtd"><svg class="icon" width="128px" height="128.00px" viewBox="0 0 1024 1024" version="1.1" xmlns="http://www.w3.org/2000/svg"><path fill="#666666" d="M511.957333 42.666667C252.714667 42.666667 42.581333 252.8 42.581333 512s210.133333 469.333333 469.376 469.333333S981.333333 771.2 981.333333 512 771.2 42.666667 511.957333 42.666667z m0 80.469333a388.906667 388.906667 0 1 1 0 777.728 388.906667 388.906667 0 1 1 0-777.728z m92.885334 199.509333a40.234667 40.234667 0 0 0-53.845334-2.773333l-3.072 2.773333-160.938666 160.896a40.234667 40.234667 0 0 0-2.730667 53.845334l2.730667 3.072 160.938666 160.896a40.234667 40.234667 0 0 0 59.690667-53.845334l-2.773333-3.072L472.362667 512l132.48-132.48a40.234667 40.234667 0 0 0 2.773333-53.845333l-2.773333-3.029334z" /></svg>