<?xml version="1.0" standalone="no"?><!DOCTYPE svg PUBLIC "-//W3C//DTD SVG 1.1//EN" "http://www.w3.org/Graphics/SVG/1.1/DTD/svg11.dtd"><svg class="icon" width="128px" height="128.00px" viewBox="0 0 1024 1024" version="1.1" xmlns="http://www.w3.org/2000/svg"><path fill="#666666" d="M896 354.986667a72.533333 72.533333 0 0 0-46.08-17.493334h-227.413333l28.586666-92.586666a120.32 120.32 0 0 0-30.72-121.173334l-5.12-5.12a76.8 76.8 0 0 0-114.773333 6.4 1483.52 1483.52 0 0 1-153.6 152.32A116.48 116.48 0 0 0 298.666667 266.24H202.666667A117.333333 117.333333 0 0 0 85.333333 384v426.666667a116.906667 116.906667 0 0 0 117.333334 116.48H298.666667a117.333333 117.333333 0 0 0 90.88-42.666667 241.493333 241.493333 0 0 0 137.386666 42.666667h162.986667a121.173333 121.173333 0 0 0 115.2-81.066667l128-358.4A118.613333 118.613333 0 0 0 896 354.986667zM298.666667 864H202.666667A52.906667 52.906667 0 0 1 149.333333 810.666667V384a52.906667 52.906667 0 0 1 53.333334-53.76H298.666667a54.613333 54.613333 0 0 1 32 11.093333 53.76 53.76 0 0 1 20.48 42.666667v426.666667a65.28 65.28 0 0 1 0 12.8 53.333333 53.333333 0 0 1-52.48 40.533333zM871.253333 469.333333l-128 358.826667a57.6 57.6 0 0 1-54.613333 37.973333h-162.986667a176.64 176.64 0 0 1-111.36-37.973333V384a141.226667 141.226667 0 0 0-2.56-23.466667v-5.546666a98.133333 98.133333 0 0 0-7.68-21.333334v-2.986666c0-3.413333-3.413333-6.826667-5.546666-10.24a1588.48 1588.48 0 0 0 154.453333-154.88 12.373333 12.373333 0 0 1 8.96-4.693334 13.226667 13.226667 0 0 1 10.24 3.84l5.12 5.12a55.893333 55.893333 0 0 1 14.506667 57.173334l-42.666667 133.973333a32.426667 32.426667 0 0 0 5.12 28.586667 31.573333 31.573333 0 0 0 25.6 12.8h270.506667a17.92 17.92 0 0 1 5.973333 3.413333 55.893333 55.893333 0 0 1 14.933333 63.573333z" /></svg>