<?xml version="1.0" standalone="no"?><!DOCTYPE svg PUBLIC "-//W3C//DTD SVG 1.1//EN" "http://www.w3.org/Graphics/SVG/1.1/DTD/svg11.dtd"><svg class="icon" width="128px" height="128.00px" viewBox="0 0 1024 1024" version="1.1" xmlns="http://www.w3.org/2000/svg"><path fill="#666666" d="M179.029333 393.856a45.568 45.568 0 0 1 67.456 61.184l-2.986666 3.285333L200.533333 501.248a227.84 227.84 0 0 0 316.928 327.381333l5.290667-5.162666 42.922667-42.965334a45.568 45.568 0 0 1 67.413333 61.226667l-2.944 3.242667-42.965333 42.965333A318.976 318.976 0 0 1 130.090667 443.008l5.973333-6.186667 42.965333-42.965333z m257.792-257.792a318.976 318.976 0 0 1 457.088 444.928l-5.973333 6.186667-42.965333 42.965333a45.568 45.568 0 0 1-67.413334-61.184l2.944-3.285333 42.965334-42.922667a227.84 227.84 0 0 0-316.928-327.338667l-5.290667 5.12-42.922667 42.965334a45.568 45.568 0 0 1-67.413333-61.226667l2.986667-3.242667 42.922666-42.965333z m139.648 225.578667a45.568 45.568 0 0 1 67.413334 61.184l-2.986667 3.242666-214.784 214.826667a45.568 45.568 0 0 1-67.413333-61.184l2.944-3.242667 214.784-214.826666z" /></svg>