<?xml version="1.0" standalone="no"?><!DOCTYPE svg PUBLIC "-//W3C//DTD SVG 1.1//EN" "http://www.w3.org/Graphics/SVG/1.1/DTD/svg11.dtd"><svg class="icon" width="128px" height="128.00px" viewBox="0 0 1024 1024" version="1.1" xmlns="http://www.w3.org/2000/svg"><path fill="#666666" d="M937.386667 170.666667c23.466667 0 42.752 18.645333 43.904 42.368a44.373333 44.373333 0 0 1-39.68 46.506666l-4.266667 0.170667H292.010667c-23.466667 0-42.837333-18.645333-43.946667-42.368a44.373333 44.373333 0 0 1 39.68-46.506667l4.266667-0.170666h645.333333zM115.925333 170.666667c23.466667 0 42.794667 18.645333 43.946667 42.368a44.373333 44.373333 0 0 1-39.68 46.506666l-4.266667 0.170667h-29.312c-23.466667 0-42.794667-18.645333-43.946666-42.368a44.373333 44.373333 0 0 1 39.68-46.506667l4.266666-0.170666h29.312z m821.376 296.832c23.466667 0 42.794667 18.645333 43.946667 42.368a44.373333 44.373333 0 0 1-39.68 46.464l-4.266667 0.170666H292.010667c-23.466667 0-42.837333-18.645333-43.946667-42.368a44.373333 44.373333 0 0 1 39.68-46.464l4.266667-0.170666h645.333333z m-821.333333 0c23.466667 0 42.752 18.645333 43.904 42.368a44.373333 44.373333 0 0 1-39.68 46.464l-4.266667 0.170666h-29.312c-23.466667 0-42.794667-18.645333-43.946666-42.368a44.373333 44.373333 0 0 1 39.68-46.464l4.266666-0.170666h29.312z m821.333333 296.789333c23.466667 0 42.794667 18.645333 43.946667 42.368a44.373333 44.373333 0 0 1-39.68 46.506667l-4.266667 0.170666H292.010667c-23.466667 0-42.837333-18.645333-43.946667-42.368a44.373333 44.373333 0 0 1 39.68-46.506666l4.266667-0.170667h645.333333z m-821.333333 0c23.466667 0 42.752 18.645333 43.904 42.368a44.373333 44.373333 0 0 1-39.68 46.506667l-4.266667 0.170666h-29.312c-23.466667 0-42.794667-18.645333-43.946666-42.368a44.373333 44.373333 0 0 1 39.68-46.506666l4.266666-0.170667h29.312z" /></svg>