<?xml version="1.0" standalone="no"?><!DOCTYPE svg PUBLIC "-//W3C//DTD SVG 1.1//EN" "http://www.w3.org/Graphics/SVG/1.1/DTD/svg11.dtd"><svg class="icon" width="128px" height="128.00px" viewBox="0 0 1024 1024" version="1.1" xmlns="http://www.w3.org/2000/svg"><path fill="#666666" d="M512 611.413333a53.333333 53.333333 0 0 0-53.333333 53.333334 51.2 51.2 0 0 0 21.333333 42.666666v14.08a32 32 0 0 0 64 0v-14.08a51.2 51.2 0 0 0 21.333333-42.666666A53.333333 53.333333 0 0 0 512 611.413333zM735.573333 426.666667V309.333333A223.573333 223.573333 0 0 0 489.813333 85.333333a229.973333 229.973333 0 0 0-201.386666 233.813334V426.666667a117.333333 117.333333 0 0 0-107.093334 116.906666v261.973334a116.906667 116.906667 0 0 0 108.8 117.333333l217.173334 15.786667H512l221.44-15.786667a109.226667 109.226667 0 0 0 109.226667-109.226667v-269.653333A117.333333 117.333333 0 0 0 735.573333 426.666667z m-189.866666-273.92a162.56 162.56 0 0 1 128 160.853333V422.4L512 410.453333h-4.693333l-154.88 11.52V309.333333a160.426667 160.426667 0 0 1 193.28-156.586666z m232.96 653.226666a53.333333 53.333333 0 0 1-49.493334 52.906667l-219.733333 15.786667-213.333333-15.786667a53.333333 53.333333 0 0 1-49.493334-52.906667v-261.973333a53.333333 53.333333 0 0 1 48.213334-53.333333l213.333333-16.213334 219.733333 16.213334a53.333333 53.333333 0 0 1 49.493334 53.333333z" /></svg>