<?xml version="1.0" standalone="no"?><!DOCTYPE svg PUBLIC "-//W3C//DTD SVG 1.1//EN" "http://www.w3.org/Graphics/SVG/1.1/DTD/svg11.dtd"><svg class="icon" width="128px" height="128.00px" viewBox="0 0 1024 1024" version="1.1" xmlns="http://www.w3.org/2000/svg"><path fill="#666666" d="M512.042667 42.666667c134.485333 0 244.522667 106.666667 248.32 240.64l0.128 7.082666v78.208c0 5.802667-1.28 11.349333-3.541334 16.298667a195.754667 195.754667 0 0 1 160.384 185.642667l0.085334 6.656v208.597333a195.84 195.84 0 0 1-189.781334 195.413333l-6.4 0.128H302.848a195.84 195.84 0 0 1-196.053333-189.226666l-0.085334-6.314667v-208.64A195.754667 195.754667 0 0 1 267.178667 384.853333a37.333333 37.333333 0 0 1-3.413334-12.501333l-0.170666-3.754667V290.389333C263.594667 153.557333 374.826667 42.666667 512 42.666667z m209.237333 417.194666H302.805333a117.546667 117.546667 0 0 0-117.546666 111.786667l-0.128 5.546667v208.597333a117.504 117.504 0 0 0 112.128 117.205333l5.546666 0.128h418.474667a117.546667 117.546667 0 0 0 117.546667-111.786666l0.128-5.546667v-208.64a117.504 117.504 0 0 0-112.128-117.162667l-5.546667-0.128zM512 120.874667a169.770667 169.770667 0 0 0-169.898667 163.413333l-0.085333 6.101333v78.208c0 4.565333-0.810667 8.96-2.261333 13.013334h344.490666a38.826667 38.826667 0 0 1-2.090666-9.258667l-0.170667-3.754667V290.389333a169.728 169.728 0 0 0-169.984-169.514666z m13.098667 443.306666c20.181333 0 37.12 15.274667 39.04 35.328l0.170666 3.754667v156.458667a39.168 39.168 0 1 1-78.293333 3.754666l-0.170667-3.754666v-156.458667a39.04 39.04 0 0 1 39.253334-39.125333z" /></svg>