<?xml version="1.0" standalone="no"?><!DOCTYPE svg PUBLIC "-//W3C//DTD SVG 1.1//EN" "http://www.w3.org/Graphics/SVG/1.1/DTD/svg11.dtd"><svg class="icon" width="128px" height="128.00px" viewBox="0 0 1024 1024" version="1.1" xmlns="http://www.w3.org/2000/svg"><path fill="#666666" d="M775.850667 42.666667c110.933333 0 201.813333 86.144 205.397333 194.602666l0.085333 6.528v536.405334c0 108.544-87.978667 197.546667-198.826666 201.045333l-6.656 0.085333H337.536c-110.890667 0-201.770667-86.144-205.354667-194.645333l-0.085333-6.485333v-131.072H83.626667A40.704 40.704 0 0 1 42.666667 610.816a40.533333 40.533333 0 0 1 37.077333-41.941333l3.925333-0.213334h48.469334V407.765333H83.626667A40.704 40.704 0 0 1 42.666667 369.450667a40.533333 40.533333 0 0 1 37.077333-41.984l3.925333-0.170667h48.469334V243.797333c0-108.544 87.978667-197.546667 198.826666-201.045333L337.493333 42.666667h438.314667z m0 80.469333H337.536c-65.834667 0-120.021333 50.602667-123.136 114.986667l-0.128 5.674666v83.498667h41.088c21.930667 0 39.978667 16.853333 41.045333 38.272a40.533333 40.533333 0 0 1-37.077333 41.984l-3.968 0.213333h-41.088v160.896h41.088c21.930667 0 39.978667 16.853333 41.045333 38.272a40.533333 40.533333 0 0 1-37.077333 41.984l-3.968 0.213334h-41.088v131.072c0 64.426667 51.712 117.504 117.461333 120.533333l5.802667 0.128h438.314667c65.834667 0 120.064-50.602667 123.178666-114.986667l0.128-5.674666V243.797333c0-64.426667-51.712-117.504-117.504-120.533333l-5.802666-0.128z m-3.669334 468.736c21.162667 0 38.869333 15.786667 40.96 36.394667l0.128 3.84v168.106666a40.618667 40.618667 0 0 1-39.082666 40.192 40.832 40.832 0 0 1-42.88-36.266666l-0.213334-3.925334v-168.064c0-22.186667 18.389333-40.234667 41.088-40.234666z" /></svg>