<?xml version="1.0" standalone="no"?><!DOCTYPE svg PUBLIC "-//W3C//DTD SVG 1.1//EN" "http://www.w3.org/Graphics/SVG/1.1/DTD/svg11.dtd"><svg class="icon" width="128px" height="128.00px" viewBox="0 0 1024 1024" version="1.1" xmlns="http://www.w3.org/2000/svg"><path fill="#666666" d="M780.16 106.666667c108.586667 0 197.546667 83.968 201.088 189.781333l0.085333 6.357333v418.389334c0 105.856-86.144 192.597333-194.645333 196.053333l-6.528 0.085333H243.754667c-108.586667 0-197.546667-83.968-201.088-189.781333l-0.085334-6.357333V302.805333c0-105.856 86.144-192.597333 194.645334-196.053333l6.528-0.085333h536.405333z m107.776 143.061333l-255.146667 186.794667a205.354667 205.354667 0 0 1-235.946666 4.053333l-5.717334-4.053333-255.146666-186.794667A114.773333 114.773333 0 0 0 123.306667 295.68l-0.213334 7.125333v418.389334c0 62.848 50.602667 114.602667 114.986667 117.546666l5.717333 0.128h536.405334c64.426667 0 117.546667-49.365333 120.576-112.128l0.128-5.546666V302.805333c0-19.114667-4.693333-37.12-12.928-53.077333z m-107.776-64.597333H243.754667a123.306667 123.306667 0 0 0-48.469334 9.813333L439.466667 373.845333a123.221333 123.221333 0 0 0 140.288 3.242667l4.693333-3.242667L828.586667 194.986667a122.581333 122.581333 0 0 0-41.130667-9.642667l-7.338667-0.213333z" /></svg>