<?xml version="1.0" standalone="no"?><!DOCTYPE svg PUBLIC "-//W3C//DTD SVG 1.1//EN" "http://www.w3.org/Graphics/SVG/1.1/DTD/svg11.dtd"><svg class="icon" width="128px" height="128.00px" viewBox="0 0 1024 1024" version="1.1" xmlns="http://www.w3.org/2000/svg"><path fill="#666666" d="M902.101333 719.232c20.181333 0 36.565333 16.384 36.565334 36.565333 0 75.392-89.045333 132.906667-219.776 161.92l-16.256 3.413334-16.64 3.114666-8.405334 1.450667-17.194666 2.645333A1033.941333 1033.941333 0 0 1 512 938.666667c-52.096 0-102.101333-3.541333-148.394667-10.325334l-17.194666-2.645333-8.448-1.493333-16.597334-3.114667-16.213333-3.413333C174.336 888.661333 85.333333 831.232 85.333333 755.797333a36.565333 36.565333 0 0 1 72.96-3.498666l0.170667 3.498666c0 22.954667 32.042667 47.573333 85.290667 67.626667l11.690666 4.266667c6.058667 2.048 12.288 4.053333 18.773334 6.016l13.226666 3.84 6.826667 1.834666 14.122667 3.541334 14.634666 3.328 15.104 3.114666 15.616 2.901334 16.042667 2.645333 16.512 2.389333 16.896 2.090667 8.618667 0.981333 17.493333 1.621334c55.04 4.736 110.378667 4.736 165.376 0l17.493333-1.664 8.618667-0.938667 16.896-2.133333 16.512-2.346667 16.085333-2.645333 15.573334-2.901334 15.146666-3.114666 14.592-3.328 14.08-3.541334 6.826667-1.834666 13.226667-3.84c6.528-1.962667 12.8-3.968 18.773333-6.058667l11.733333-4.266667c51.328-19.328 82.944-42.88 85.162667-65.109333l0.128-2.474667c0-20.181333 16.341333-36.565333 36.565333-36.565333z m0-243.797333c20.181333 0 36.565333 16.384 36.565334 36.565333 0 75.392-89.045333 132.864-219.776 161.877333l-16.256 3.413334-16.64 3.114666-8.405334 1.450667-17.194666 2.688a1034.154667 1034.154667 0 0 1-148.394667 10.325333c-52.096 0-102.101333-3.584-148.394667-10.325333l-17.194666-2.688-8.448-1.450667-16.597334-3.114666-16.213333-3.413334C174.336 644.864 85.333333 587.392 85.333333 512a36.565333 36.565333 0 0 1 72.96-3.498667l0.170667 3.498667c0 22.954667 32.042667 47.530667 85.290667 67.626667l11.690666 4.224c6.058667 2.090667 12.288 4.096 18.773334 6.058666l13.226666 3.84 6.826667 1.834667 14.122667 3.541333 14.634666 3.328 15.104 3.114667 15.616 2.901333 16.042667 2.645334 16.512 2.346666 16.896 2.133334 8.618667 0.938666 17.493333 1.706667c55.04 4.693333 110.378667 4.693333 165.376 0l17.493333-1.706667 8.618667-0.981333 16.896-2.090667 16.512-2.346666 16.085333-2.645334 15.573334-2.901333 15.146666-3.114667 14.592-3.328 14.08-3.541333 6.826667-1.877333 13.226667-3.84c6.528-1.92 12.8-3.925333 18.773333-6.016l11.733333-4.266667c51.328-19.328 82.944-42.88 85.162667-65.109333l0.128-2.474667c0-20.181333 16.341333-36.565333 36.565333-36.565333zM512 85.333333l9.770667 0.042667c40.832 0.298667 81.664 2.986667 122.197333 8.021333l16.426667 2.261334 17.194666 2.688 8.448 1.450666 16.597334 3.114667 16.213333 3.413333C849.664 135.338667 938.666667 192.768 938.666667 268.202667c0 73.770667-85.290667 130.389333-211.498667 160l-8.277333 1.877333-16.256 3.413333-16.64 3.114667-8.405334 1.450667-17.194666 2.688A1034.154667 1034.154667 0 0 1 512 450.986667c-45.568 0-89.6-2.730667-130.858667-7.893334l-17.536-2.389333-17.194666-2.688-8.448-1.450667-16.597334-3.157333-16.213333-3.413333C174.336 401.066667 85.333333 343.594667 85.333333 268.202667c0-73.813333 85.290667-130.432 211.498667-160l8.277333-1.92 16.256-3.413334 16.64-3.114666 8.405334-1.408 17.194666-2.688a1018.197333 1018.197333 0 0 1 128.981334-10.154667L512 85.333333z m0 73.130667l-9.472 0.042667c-18.901333 0.170667-37.376 0.938667-55.381333 2.133333l-17.834667 1.365333-17.493333 1.664-8.618667 0.938667-16.896 2.133333-16.512 2.346667-16.085333 2.645333-15.573334 2.901334-15.146666 3.114666-14.592 3.328-14.08 3.541334-6.826667 1.834666-13.226667 3.84-9.6 2.986667-9.216 3.072-11.690666 4.266667c-53.248 20.053333-85.290667 44.629333-85.290667 67.584 0 22.016 29.525333 45.568 79.018667 65.194666l6.272 2.432 11.690666 4.224 9.216 3.072 9.557334 2.986667 13.226666 3.84 6.826667 1.834667 14.122667 3.498666 14.634666 3.370667 15.104 3.114667 15.616 2.858666 16.042667 2.688 16.512 2.346667 21.205333 2.56 4.309334 0.512 17.493333 1.664c49.664 4.266667 99.584 4.693333 149.333333 1.194667l16.042667-1.194667 17.493333-1.706667 8.618667-0.938666 16.896-2.090667 16.512-2.346667 16.085333-2.688 15.573334-2.858666 15.146666-3.114667 14.592-3.370667 14.08-3.498666 6.826667-1.877334 13.226667-3.84 9.6-2.986666 9.216-3.029334 11.690666-4.266666c53.290667-20.053333 85.290667-44.672 85.290667-67.584 0-22.016-29.525333-45.610667-79.018667-65.194667l-6.229333-2.432-11.733333-4.266667-9.216-3.029333-9.557334-2.986667-13.226666-3.84-6.826667-1.834666-14.08-3.541334-14.677333-3.328-15.104-3.114666-15.616-2.901334-16.042667-2.645333-16.512-2.389333-21.205333-2.56-4.309334-0.512-17.493333-1.621334a963.242667 963.242667 0 0 0-65.706667-3.413333L512 158.506667z" /></svg>