<?xml version="1.0" standalone="no"?><!DOCTYPE svg PUBLIC "-//W3C//DTD SVG 1.1//EN" "http://www.w3.org/Graphics/SVG/1.1/DTD/svg11.dtd"><svg class="icon" width="128px" height="128.00px" viewBox="0 0 1024 1024" version="1.1" xmlns="http://www.w3.org/2000/svg"><path fill="#666666" d="M884.31 63.78H715.68c-41.77 0-75.64 33.87-75.64 75.64v41.55c0 41.77 33.87 75.64 75.64 75.64h168.63c41.77 0 75.64-33.87 75.64-75.64v-41.55c0-41.77-33.87-75.64-75.64-75.64z m14.64 117.19c0 8.07-6.57 14.64-14.64 14.64H715.68c-8.07 0-14.64-6.57-14.64-14.64v-41.55c0-8.07 6.57-14.64 14.64-14.64h168.63c8.07 0 14.64 6.57 14.64 14.64v41.55zM884.31 415.58H715.68c-41.77 0-75.64 33.87-75.64 75.64v41.55c0 41.77 33.87 75.64 75.64 75.64h168.63c41.77 0 75.64-33.87 75.64-75.64v-41.55c0-41.77-33.87-75.64-75.64-75.64z m14.64 117.19c0 8.07-6.57 14.64-14.64 14.64H715.68c-8.07 0-14.64-6.57-14.64-14.64v-41.55c0-8.07 6.57-14.64 14.64-14.64h168.63c8.07 0 14.64 6.57 14.64 14.64v41.55zM884.31 767.39H715.68c-41.77 0-75.64 33.87-75.64 75.64v41.55c0 41.77 33.87 75.64 75.64 75.64h168.63c41.77 0 75.64-33.87 75.64-75.64v-41.55c0-41.78-33.87-75.64-75.64-75.64z m14.64 117.19c0 8.07-6.57 14.64-14.64 14.64H715.68c-8.07 0-14.64-6.57-14.64-14.64v-41.55c0-8.07 6.57-14.64 14.64-14.64h168.63c8.07 0 14.64 6.57 14.64 14.64v41.55zM482.34 235.84V481.2h-98.38v-22.22c0-41.77-33.87-75.64-75.64-75.64H139.69c-41.77 0-75.64 33.87-75.64 75.64v106.04c0 41.77 33.86 75.64 75.64 75.64h168.63c41.77 0 75.64-33.87 75.64-75.64V542.2h98.38v245.96c0 58.53 47.61 106.14 106.14 106.14h51.48v-61h-51.48c-24.89 0-45.14-20.25-45.14-45.14V542.2h96.62v-61h-96.62V235.84c0-24.89 20.25-45.14 45.14-45.14h51.48v-61h-51.48c-58.53 0-106.14 47.61-106.14 106.14zM322.96 565.02c0 8.07-6.57 14.64-14.64 14.64H139.69c-8.07 0-14.64-6.57-14.64-14.64V458.98c0-8.07 6.57-14.64 14.64-14.64h168.63c8.07 0 14.64 6.57 14.64 14.64v106.04z" /></svg>