<?xml version="1.0" standalone="no"?><!DOCTYPE svg PUBLIC "-//W3C//DTD SVG 1.1//EN" "http://www.w3.org/Graphics/SVG/1.1/DTD/svg11.dtd"><svg class="icon" width="128px" height="128.00px" viewBox="0 0 1024 1024" version="1.1" xmlns="http://www.w3.org/2000/svg"><path fill="#666666" d="M802.261333 48.725333a137.386667 137.386667 0 0 1 135.552 32.426667 142.336 142.336 0 0 1 39.68 135.466667l-1.962666 7.253333-1.109334 3.242667-240.042666 613.034666-0.981334 3.2c-22.741333 67.370667-91.306667 106.922667-159.957333 92.288l-5.674667-1.365333-5.376-1.493333a137.685333 137.685333 0 0 1-46.08-24.32l-6.186666-5.162667-181.504-177.536v52.48a38.229333 38.229333 0 0 1-34.218667 38.272l-3.669333 0.170667a38.101333 38.101333 0 0 1-37.674667-34.773334l-0.170667-3.669333v-126.549333l-161.664-158.08a142.464 142.464 0 0 1-19.114666-193.877334l3.925333-4.906666a138.794667 138.794667 0 0 1 58.453333-40.96l6.826667-2.261334 660.949333-202.88z m100.608 116.352a63.018667 63.018667 0 0 0-74.666666-43.861333l-4.010667 1.066667-660.906667 202.922666c-11.52 3.498667-21.845333 10.325333-29.696 19.626667-21.674667 25.728-19.797333 63.829333 5.077334 88.576l3.498666 3.285333L298.666667 589.824l352.426666-278.314667a37.461333 37.461333 0 0 1 51.925334 5.333334c13.141333 15.530667 11.946667 38.826667-2.645334 52.906666l-2.773333 2.432-343.893333 271.530667 207.274666 202.666667c5.376 4.693333 11.477333 8.362667 18.048 10.965333l4.992 1.749333a62.890667 62.890667 0 0 0 77.141334-39.125333l2.432-7.168 239.573333-611.925333 1.024-4.138667c1.450667-6.954667 1.706667-14.122667 0.853333-21.205333l-0.896-5.248-1.28-5.205334z" /></svg>