<?xml version="1.0" standalone="no"?><!DOCTYPE svg PUBLIC "-//W3C//DTD SVG 1.1//EN" "http://www.w3.org/Graphics/SVG/1.1/DTD/svg11.dtd"><svg class="icon" width="128px" height="128.00px" viewBox="0 0 1024 1024" version="1.1" xmlns="http://www.w3.org/2000/svg"><path fill="#666666" d="M847.701333 48.981333A98.901333 98.901333 0 0 1 974.506667 177.493333l-2.432 5.589334-341.674667 740.693333a98.858667 98.858667 0 0 1-164.736 23.125333 40.106667 40.106667 0 0 1-8.192-15.232l-0.981333-4.266666-51.626667-304.085334a40.234667 40.234667 0 0 1 4.693333-26.666666l2.133334-3.413334 113.365333-159.232a40.234667 40.234667 0 0 1 67.626667 43.392l-2.133334 3.242667-103.594666 145.706667 46.378666 272.938666 2.090667 0.810667a18.517333 18.517333 0 0 0 20.608-7.637333l1.28-2.389334 341.717333-740.693333a18.432 18.432 0 0 0-20.565333-25.856l-2.645333 0.768-740.864 277.333333a18.474667 18.474667 0 0 0-11.946667 18.858667l0.426667 2.304 187.008 50.346667a40.234667 40.234667 0 0 1 29.226666 45.482666l-0.810666 3.797334a40.234667 40.234667 0 0 1-45.525334 29.226666l-3.754666-0.853333-203.050667-54.613333a40.192 40.192 0 0 1-20.053333-12.586667 98.986667 98.986667 0 0 1 33.834666-154.581333l6.442667-2.688 740.906667-277.376z" /></svg>