<?xml version="1.0" standalone="no"?><!DOCTYPE svg PUBLIC "-//W3C//DTD SVG 1.1//EN" "http://www.w3.org/Graphics/SVG/1.1/DTD/svg11.dtd"><svg class="icon" width="128px" height="128.00px" viewBox="0 0 1024 1024" version="1.1" xmlns="http://www.w3.org/2000/svg"><path fill="#666666" d="M960.05 575.07c0-17.22-14.67-32.68-31.84-32.68h-52.12V303.92c0-58.53-47.61-106.14-106.14-106.14h-51.68v-26.71c0-58.53-47.61-106.14-106.14-106.14H249.69c-58.53 0-106.14 47.61-106.14 106.14V542.4H96.01c-17.16 0-31.21 14.09-31.21 31.32l-0.87 255.76c0 74.64 33.36 128.49 107.73 128.49l660.58 0.92c101.99 4.29 127.17-64.52 127.82-108.83l-0.01-274.99z m-190.1-316.29c24.89 0 45.14 20.25 45.14 45.14V542.4h-96.82V258.78h51.68z m-565.4-87.71c0-24.89 20.25-45.14 45.14-45.14h362.44c24.89 0 45.14 20.25 45.14 45.14V542.4H204.55V171.07z m632.7 726.88l-663.52-0.99c-36.58 1.06-49.39-32.26-48.13-52.27l0.04-240.66 773.55-0.15v219.17c0 40.18 2.72 76.86-61.94 74.9zM668.15 716.63H356.07c-17.16 0-31.21 14.09-31.21 31.32s14.04 31.32 31.21 31.32h312.08c17.16 0 31.21-14.09 31.21-31.32s-14.05-31.32-31.21-31.32z" /></svg>