<?xml version="1.0" standalone="no"?><!DOCTYPE svg PUBLIC "-//W3C//DTD SVG 1.1//EN" "http://www.w3.org/Graphics/SVG/1.1/DTD/svg11.dtd"><svg class="icon" width="128px" height="128.00px" viewBox="0 0 1024 1024" version="1.1" xmlns="http://www.w3.org/2000/svg"><path fill="#666666" d="M780.16 42.666667a201.173333 201.173333 0 0 1 201.088 194.602666l0.085333 6.528v429.098667a201.130667 201.130667 0 0 1-194.645333 201.045333l-6.528 0.085334h-99.84l-64.042667 64.085333a147.541333 147.541333 0 0 1-198.570666 9.173333l-5.162667-4.522666-4.906667-4.693334-64.042666-64h-99.84a201.173333 201.173333 0 0 1-200.746667-188.074666L42.666667 679.424l-0.085334-6.528V243.797333A201.173333 201.173333 0 0 1 237.226667 42.752L243.754667 42.666667h536.405333z m0 80.469333H243.754667A120.704 120.704 0 0 0 123.178667 238.08l-0.128 5.674667v429.098666a120.704 120.704 0 0 0 114.986666 120.533334l5.717334 0.170666h116.48c9.301333 0 18.346667 3.2 25.514666 9.088l2.944 2.688 75.818667 75.861334a67.072 67.072 0 0 0 91.349333 3.242666l3.498667-3.242666 75.904-75.904a40.277333 40.277333 0 0 1 24.448-11.562667l3.968-0.170667h116.48a120.704 120.704 0 0 0 120.576-115.029333l0.128-5.674667V243.797333A120.704 120.704 0 0 0 785.92 123.306667l-5.717333-0.128z m-469.333333 281.6a67.072 67.072 0 1 1 0 134.101333 67.072 67.072 0 0 1 0-134.144z m201.130666 0a67.072 67.072 0 1 1 0 134.101333 67.072 67.072 0 0 1 0-134.144z m201.173334 0a67.072 67.072 0 1 1 0 134.101333 67.072 67.072 0 0 1 0-134.144z" /></svg>