<?xml version="1.0" standalone="no"?><!DOCTYPE svg PUBLIC "-//W3C//DTD SVG 1.1//EN" "http://www.w3.org/Graphics/SVG/1.1/DTD/svg11.dtd"><svg class="icon" width="128px" height="128.00px" viewBox="0 0 1024 1024" version="1.1" xmlns="http://www.w3.org/2000/svg"><path fill="#666666" d="M511.616 938.666667a39.082667 39.082667 0 0 1-24.490667-8.490667 39.253333 39.253333 0 0 1-8.874666-9.386667 174.506667 174.506667 0 0 0-121.898667-64.810666l-7.509333-0.426667-7.125334-0.128H243.754667c-108.586667 0-197.546667-85.290667-201.088-192.682667l-0.085334-6.485333V284.501333c0-107.52 86.144-195.584 194.645334-199.04L243.754667 85.333333h160.896c42.282667 0 80.426667 17.621333 107.306666 45.824A147.626667 147.626667 0 0 1 619.221333 85.333333h160.938667C891.306667 85.333333 981.333333 174.506667 981.333333 284.501333v371.754667c0 109.994667-90.026667 199.168-201.173333 199.168H682.24l-7.125333 0.128a174.421333 174.421333 0 0 0-129.365334 65.152 38.357333 38.357333 0 0 1-8.96 9.472 38.826667 38.826667 0 0 1-20.778666 8.32L511.573333 938.666667zM404.650667 164.992H243.754667c-64.426667 0-117.546667 50.133333-120.576 113.877333l-0.128 5.632v371.754667c0 63.829333 50.602667 116.394667 114.986666 119.381333l5.717334 0.128h98.688l8.576 0.170667a256.469333 256.469333 0 0 1 111.914666 30.250667l8.789334 4.906666V231.381333l-0.128-4.352a66.645333 66.645333 0 0 0-58.197334-61.44l-4.266666-0.426666-4.48-0.170667z m375.509333 0h-160.938667l-4.394666 0.128a66.688 66.688 0 0 0-62.634667 66.261333V811.093333l0.341333-0.170666a256.426667 256.426667 0 0 1 120.32-34.986667l8.618667-0.170667h98.688c66.688 0 120.746667-53.504 120.746667-119.466666V284.458667c0-66.005333-54.058667-119.466667-120.746667-119.466667z m-429.141333 119.466667c21.461333 0.042667 39.125333 16.725333 40.149333 37.973333a39.978667 39.978667 0 0 1-36.266667 41.557333l-3.84 0.170667H243.712a40.064 40.064 0 0 1-40.192-37.930667 39.978667 39.978667 0 0 1 36.309333-41.557333l3.84-0.170667h107.306667z m429.141333 0c21.461333 0.042667 39.125333 16.725333 40.192 37.973333a39.978667 39.978667 0 0 1-36.309333 41.557333l-3.84 0.170667H672.853333a40.064 40.064 0 0 1-40.192-37.930667 39.978667 39.978667 0 0 1 36.309334-41.557333l3.84-0.170667h107.306666zM351.018667 443.861333c21.461333 0 39.125333 16.725333 40.149333 37.930667a39.978667 39.978667 0 0 1-36.266667 41.557333l-3.84 0.213334H243.712a40.064 40.064 0 0 1-40.192-37.973334 39.978667 39.978667 0 0 1 36.309333-41.514666l3.84-0.213334h107.306667z m429.141333 0c21.461333 0 39.125333 16.725333 40.192 37.930667a39.978667 39.978667 0 0 1-36.309333 41.557333l-3.84 0.213334H672.853333a40.064 40.064 0 0 1-40.192-37.973334 39.978667 39.978667 0 0 1 36.309334-41.514666l3.84-0.213334h107.306666z" /></svg>