<?xml version="1.0" standalone="no"?><!DOCTYPE svg PUBLIC "-//W3C//DTD SVG 1.1//EN" "http://www.w3.org/Graphics/SVG/1.1/DTD/svg11.dtd"><svg class="icon" width="128px" height="128.00px" viewBox="0 0 1024 1024" version="1.1" xmlns="http://www.w3.org/2000/svg"><path fill="#666666" d="M264.106667 128c17.962667 0 32.768 13.781333 33.621333 31.317333a33.152 33.152 0 0 1-30.378667 34.346667l-3.242666 0.170667h-10.368c-53.973333 0-98.389333 41.386667-100.949334 94.08l-0.085333 4.693333v131.626667c0 125.013333 101.930667 226.816 228.992 230.314666l7.125333 0.085334 5.973334-0.085334c125.141333-3.242667 226.005333-101.802667 229.333333-224.085333l0.085333-6.229333V292.565333c0-52.736-42.410667-96.128-96.298666-98.645333l-4.736-0.085333h-10.368a33.365333 33.365333 0 0 1-33.621334-31.317334 33.152 33.152 0 0 1 30.378667-34.346666L512.810667 128h10.368c90.88 0 165.333333 70.485333 168.277333 159.232l0.128 5.333333v131.669334c0 152.490667-117.888 278.016-269.44 294.4v12.8c0 52.736 42.368 96.128 96.256 98.645333l4.778667 0.085333h179.626666c53.930667 0 98.389333-41.386667 100.906667-94.08l0.128-4.693333v-16.554667c-46.336-16.085333-74.112-62.421333-65.792-109.781333 8.32-47.36 50.304-82.005333 99.456-82.090667 49.237333-0.042667 91.349333 34.602667 99.712 82.048 8.32 47.445333-19.541333 93.824-66.005333 109.824v16.597334c0 88.789333-72.106667 161.621333-162.986667 164.48l-5.418667 0.085333h-179.626666c-90.88 0-165.376-70.485333-168.32-159.232l-0.085334-5.333333v-12.8c-149.333333-16.085333-265.898667-138.24-269.354666-287.573334L85.333333 424.192V292.565333C85.333333 203.776 157.44 130.986667 248.277333 128.085333L253.738667 128h10.368z m573.44 460.8a33.365333 33.365333 0 0 0-33.664 31.317333 33.152 33.152 0 0 0 30.378666 34.346667l3.456 0.170667a33.28 33.28 0 0 0 33.578667-33.024 33.28 33.28 0 0 0-33.792-32.810667z" /></svg>