<?xml version="1.0" standalone="no"?><!DOCTYPE svg PUBLIC "-//W3C//DTD SVG 1.1//EN" "http://www.w3.org/Graphics/SVG/1.1/DTD/svg11.dtd"><svg class="icon" width="128px" height="128.00px" viewBox="0 0 1024 1024" version="1.1" xmlns="http://www.w3.org/2000/svg"><path fill="#666666" d="M774.272 64a206.933333 206.933333 0 0 1 206.933333 200.106667l0.128 6.656V601.6a206.933333 206.933333 0 0 1-200.362666 206.634667l-6.698667 0.128h-220.842667v68.906666h110.421334a41.386667 41.386667 0 0 1 3.968 82.517334l-3.968 0.213333H360.106667a41.386667 41.386667 0 0 1-3.968-82.517333l3.968-0.213334h110.421333v-68.906666H249.728a206.933333 206.933333 0 0 1-206.933333-200.106667L42.666667 601.6V270.762667a206.933333 206.933333 0 0 1 200.362666-206.634667l6.698667-0.128h524.544z m0 82.688H249.728A124.16 124.16 0 0 0 125.610667 264.96l-0.128 5.845333V601.6a124.16 124.16 0 0 0 118.4 123.904l5.845333 0.170667h524.544a124.16 124.16 0 0 0 124.117333-118.229334l0.128-5.845333V270.762667a124.16 124.16 0 0 0-118.4-123.904l-5.845333-0.170667z" /></svg>