<?xml version="1.0" standalone="no"?><!DOCTYPE svg PUBLIC "-//W3C//DTD SVG 1.1//EN" "http://www.w3.org/Graphics/SVG/1.1/DTD/svg11.dtd"><svg class="icon" width="128px" height="128.00px" viewBox="0 0 1024 1024" version="1.1" xmlns="http://www.w3.org/2000/svg"><path fill="#666666" d="M673.194667 42.666667H350.805333a201.642667 201.642667 0 0 0-142.464 58.88A200.96 200.96 0 0 0 149.333333 243.84v536.405333A201.301333 201.301333 0 0 0 350.805333 981.333333h322.389334a201.301333 201.301333 0 0 0 201.472-201.130666V243.797333A201.301333 201.301333 0 0 0 673.194667 42.666667zM350.805333 123.136h322.389334a120.576 120.576 0 0 1 120.874666 120.704v536.32a120.789333 120.789333 0 0 1-120.874666 120.746667H350.805333a120.789333 120.789333 0 0 1-120.874666-120.746667V243.882667a120.789333 120.789333 0 0 1 120.874666-120.746667z m268.672 630.229333a40.277333 40.277333 0 0 1 3.84 80.256l-3.84 0.213334H404.48a40.277333 40.277333 0 0 1-3.84-80.256l3.84-0.213334h214.954667z" /></svg>