<?xml version="1.0" standalone="no"?><!DOCTYPE svg PUBLIC "-//W3C//DTD SVG 1.1//EN" "http://www.w3.org/Graphics/SVG/1.1/DTD/svg11.dtd"><svg class="icon" width="128px" height="128.00px" viewBox="0 0 1024 1024" version="1.1" xmlns="http://www.w3.org/2000/svg"><path fill="#666666" d="M780.16 128c108.586667 0 197.546667 83.968 201.088 189.781333l0.085333 6.357334v418.389333c0 105.856-86.144 192.597333-194.645333 196.053333l-6.528 0.085334H243.754667C135.168 938.666667 46.208 854.698667 42.666667 748.885333l-0.085334-6.357333V324.138667c0-105.856 86.144-192.597333 194.645334-196.053334L243.754667 128h536.405333z m-27.733333 369.92l-294.570667 249.173333a41.045333 41.045333 0 0 1-50.517333 1.792l-3.114667-2.56-108.245333-97.152-168.362667 125.568c14.208 48.554667 58.538667 82.858667 110.250667 85.333334l5.888 0.128h536.405333c64.426667 0 117.546667-49.365333 120.576-112.128l0.128-5.546667v-110.378667l-148.437333-134.272z m27.733333-291.456H243.754667c-64.426667 0-117.546667 49.365333-120.576 112.128l-0.128 5.546667v355.242666l150.869333-112.512a41.045333 41.045333 0 0 1 48.725333-0.128l2.986667 2.432 106.666667 95.701334 294.698666-249.258667a41.045333 41.045333 0 0 1 50.602667-1.664l3.114667 2.56 120.149333 108.629333V324.138667c0-62.848-50.645333-114.602667-114.986667-117.546667l-5.717333-0.128zM324.181333 297.984c44.458667 0 80.469333 35.114667 80.469334 78.464 0 43.306667-36.010667 78.421333-80.469334 78.421333-44.416 0-80.426667-35.114667-80.426666-78.421333 0-43.349333 36.010667-78.506667 80.426666-78.506667z" /></svg>