<?xml version="1.0" standalone="no"?><!DOCTYPE svg PUBLIC "-//W3C//DTD SVG 1.1//EN" "http://www.w3.org/Graphics/SVG/1.1/DTD/svg11.dtd"><svg class="icon" width="128px" height="128.00px" viewBox="0 0 1024 1024" version="1.1" xmlns="http://www.w3.org/2000/svg"><path fill="#666666" d="M783.530667 196.650667c-149.973333-148.437333-393.088-148.437333-543.061334 0a377.258667 377.258667 0 0 0 0 537.429333l160.896 159.232a157.610667 157.610667 0 0 0 221.269334 0l160.896-159.232a377.258667 377.258667 0 0 0 0-537.429333zM723.2 256.341333a293.461333 293.461333 0 0 1 0 418.048l-160.896 159.189334a71.509333 71.509333 0 0 1-100.608 0L300.8 674.389333a293.461333 293.461333 0 0 1 0-418.048c116.608-115.413333 305.792-115.413333 422.4 0zM512 338.688a128.256 128.256 0 0 0-110.848 63.317333 125.525333 125.525333 0 0 0 0 126.72A128.256 128.256 0 0 0 512 592c70.698667 0 128-56.746667 128-126.72 0-69.930667-57.301333-126.634667-128-126.634667z m0 84.48c15.232 0 29.312 8.021333 36.949333 21.077333a41.813333 41.813333 0 0 1 0 42.24 42.752 42.752 0 0 1-36.949333 21.077334c-23.552 0-42.666667-18.901333-42.666667-42.24 0-23.296 19.114667-42.197333 42.666667-42.197334z" /></svg>