<?xml version="1.0" standalone="no"?><!DOCTYPE svg PUBLIC "-//W3C//DTD SVG 1.1//EN" "http://www.w3.org/Graphics/SVG/1.1/DTD/svg11.dtd"><svg class="icon" width="128px" height="128.00px" viewBox="0 0 1024 1024" version="1.1" xmlns="http://www.w3.org/2000/svg"><path fill="#666666" d="M341.333333 938.666667a31.573333 31.573333 0 0 1-19.2-6.4 32.853333 32.853333 0 0 1-12.8-25.6v-42.666667a32 32 0 0 1 9.386667-22.613333l103.68-105.386667-16.213333-91.733333-286.293334 23.04a33.28 33.28 0 0 1-24.32-8.533334 32.426667 32.426667 0 0 1-10.24-23.466666 128 128 0 0 1 70.826667-114.346667L401.066667 398.506667V256a189.44 189.44 0 0 1 95.146666-166.4 32 32 0 0 1 31.573334 0 200.533333 200.533333 0 0 1 39.253333 29.44A190.72 190.72 0 0 1 622.933333 256v142.506667l244.906667 122.453333A128 128 0 0 1 938.666667 635.306667a32.426667 32.426667 0 0 1-10.24 23.466666 34.133333 34.133333 0 0 1-24.32 8.533334l-286.293334-23.04-14.08 93.44 103.68 105.386666a32 32 0 0 1 9.386667 22.613334v42.666666a32.853333 32.853333 0 0 1-12.8 25.6 30.72 30.72 0 0 1-27.733333 5.12l-164.266667-42.666666-164.266667 42.24A29.44 29.44 0 0 1 341.333333 938.666667z m93.866667-360.533334a32 32 0 0 1 31.573333 27.306667l21.333334 138.666667a32.426667 32.426667 0 0 1-8.533334 27.306666l-85.333333 88.32 113.493333-30.72a29.013333 29.013333 0 0 1 17.066667 0l113.493333 30.72-85.333333-88.32a32.426667 32.426667 0 0 1-8.533333-27.306666l21.333333-139.093334a32.426667 32.426667 0 0 1 34.133333-26.88l270.506667 21.76a64.426667 64.426667 0 0 0-24.746667-21.76l-262.826666-131.413333a31.573333 31.573333 0 0 1-17.493334-28.586667V256a128 128 0 0 0-37.12-89.173333L512 155.733333A128 128 0 0 0 465.066667 256v162.133333a31.573333 31.573333 0 0 1-17.493334 28.586667l-262.826666 131.413333a64.426667 64.426667 0 0 0-24.746667 21.76l270.506667-21.76z" /></svg>