<?xml version="1.0" standalone="no"?><!DOCTYPE svg PUBLIC "-//W3C//DTD SVG 1.1//EN" "http://www.w3.org/Graphics/SVG/1.1/DTD/svg11.dtd"><svg class="icon" width="128px" height="128.00px" viewBox="0 0 1024 1024" version="1.1" xmlns="http://www.w3.org/2000/svg"><path fill="#666666" d="M853.333333 588.8l-67.84 29.44a75.52 75.52 0 0 0-45.653333 69.12V768a110.506667 110.506667 0 0 0-64 16.213333A85.333333 85.333333 0 0 0 626.773333 896a69.546667 69.546667 0 0 0 57.173334 32.853333h6.4a116.906667 116.906667 0 0 0 57.6-16.213333 113.066667 113.066667 0 0 0 45.653333-47.36 70.826667 70.826667 0 0 0 8.106667-37.546667v-140.373333a11.946667 11.946667 0 0 1 6.826666-10.24l23.466667-10.24v47.786667a32 32 0 0 0 64 0v-96.426667a32.853333 32.853333 0 0 0-14.506667-26.88 32 32 0 0 0-28.16-2.56z m-135.253333 267.946667a42.666667 42.666667 0 0 1-33.28 6.4 42.666667 42.666667 0 0 1 22.186667-25.6 50.773333 50.773333 0 0 1 33.28-7.253334 39.68 39.68 0 0 1-24.32 26.453334zM512 85.333333a426.666667 426.666667 0 0 0 0 853.333334 32 32 0 0 0 0-64 362.666667 362.666667 0 1 1 362.666667-362.666667 32 32 0 0 0 64 0A426.666667 426.666667 0 0 0 512 85.333333zM512 373.333333A138.666667 138.666667 0 1 0 650.666667 512 139.093333 139.093333 0 0 0 512 373.333333z m0 213.333334A74.666667 74.666667 0 1 1 586.666667 512 75.093333 75.093333 0 0 1 512 586.666667zM353.706667 670.293333a32 32 0 0 0-45.226667 0 31.573333 31.573333 0 0 0 0 45.226667 285.013333 285.013333 0 0 0 203.52 85.333333 32 32 0 0 0 0-64 222.72 222.72 0 0 1-158.293333-66.56zM669.44 352.853333a32.853333 32.853333 0 0 0 22.613333 8.96 32 32 0 0 0 22.186667-54.613333A285.013333 285.013333 0 0 0 512 224a32 32 0 0 0 0 64 222.293333 222.293333 0 0 1 157.44 64.853333z" /></svg>