<?xml version="1.0" standalone="no"?><!DOCTYPE svg PUBLIC "-//W3C//DTD SVG 1.1//EN" "http://www.w3.org/Graphics/SVG/1.1/DTD/svg11.dtd"><svg class="icon" width="128px" height="128.00px" viewBox="0 0 1024 1024" version="1.1" xmlns="http://www.w3.org/2000/svg"><path fill="#666666" d="M292.266667 835.413333a75.093333 75.093333 0 0 1-74.666667-75.093333V263.68A74.24 74.24 0 0 1 256 198.826667a73.386667 73.386667 0 0 1 74.24 0L768 447.146667a74.24 74.24 0 0 1 0 128L328.96 825.6a75.093333 75.093333 0 0 1-36.693333 9.813333z m0-582.826666a10.666667 10.666667 0 0 0-5.546667 0 11.093333 11.093333 0 0 0-5.12 9.386666v498.346667a11.093333 11.093333 0 0 0 5.12 9.386667A10.24 10.24 0 0 0 298.666667 768l439.04-248.32a10.666667 10.666667 0 0 0 0-18.773333L298.666667 256a10.24 10.24 0 0 0-6.4-3.413333zM774.4 885.333333a32.426667 32.426667 0 0 1-32-32V170.666667a32 32 0 0 1 64 0v682.666666a32.426667 32.426667 0 0 1-32 32z" /></svg>