<?xml version="1.0" standalone="no"?><!DOCTYPE svg PUBLIC "-//W3C//DTD SVG 1.1//EN" "http://www.w3.org/Graphics/SVG/1.1/DTD/svg11.dtd"><svg class="icon" width="128px" height="128.00px" viewBox="0 0 1024 1024" version="1.1" xmlns="http://www.w3.org/2000/svg"><path fill="#666666" d="M906.666667 288H163.413333a32 32 0 0 1 0-64h743.253334a32 32 0 0 1 0 64zM906.666667 544H387.413333a32 32 0 1 1 0-64h519.253334a32 32 0 0 1 0 64zM906.666667 800H163.413333a32 32 0 1 1 0-64h743.253334a32 32 0 0 1 0 64zM282.88 521.386667l-181.333333 107.52a10.666667 10.666667 0 0 1-16.213334-8.96V404.053333a10.666667 10.666667 0 0 1 16.213334-8.96l181.333333 107.52a11.093333 11.093333 0 0 1 0 18.773334z" /></svg>