<?xml version="1.0" standalone="no"?><!DOCTYPE svg PUBLIC "-//W3C//DTD SVG 1.1//EN" "http://www.w3.org/Graphics/SVG/1.1/DTD/svg11.dtd"><svg class="icon" width="128px" height="128.00px" viewBox="0 0 1024 1024" version="1.1" xmlns="http://www.w3.org/2000/svg"><path fill="#666666" d="M511.957333 42.666667C771.2 42.666667 981.333333 252.8 981.333333 512s-210.133333 469.333333-469.376 469.333333S42.581333 771.2 42.581333 512 252.714667 42.666667 511.957333 42.666667z m0 80.469333a388.906667 388.906667 0 1 0 0 777.728 388.906667 388.906667 0 1 0 0-777.728z m0 158.976c20.608 0 37.930667 15.616 40.021334 36.138667l0.213333 4.096v144.128h144.170667a40.234667 40.234667 0 0 1 4.096 80.298666l-4.096 0.213334h-144.213334v144.128a40.234667 40.234667 0 0 1-80.213333 4.096l-0.213333-4.053334v-144.213333H327.509333a40.234667 40.234667 0 0 1-4.096-80.213333l4.096-0.170667 144.170667-0.085333V322.346667c0-22.186667 18.005333-40.234667 40.234667-40.234667z" /></svg>