<?xml version="1.0" standalone="no"?><!DOCTYPE svg PUBLIC "-//W3C//DTD SVG 1.1//EN" "http://www.w3.org/Graphics/SVG/1.1/DTD/svg11.dtd"><svg class="icon" width="128px" height="128.00px" viewBox="0 0 1024 1024" version="1.1" xmlns="http://www.w3.org/2000/svg"><path fill="#666666" d="M864 291.413333h-106.666667V143.786667A74.666667 74.666667 0 0 0 682.666667 69.12H341.333333a74.666667 74.666667 0 0 0-74.666666 74.666667v147.626666h-106.666667A74.666667 74.666667 0 0 0 85.333333 366.08v324.266667a74.666667 74.666667 0 0 0 74.666667 74.666666H256a81.066667 81.066667 0 0 0 10.666667 0v116.48A74.666667 74.666667 0 0 0 341.333333 954.88h341.333334a74.666667 74.666667 0 0 0 74.666666-74.666667V763.733333a81.066667 81.066667 0 0 0 10.666667 0h96A74.666667 74.666667 0 0 0 938.666667 690.346667v-324.266667a74.666667 74.666667 0 0 0-74.666667-74.666667zM330.666667 143.786667A10.666667 10.666667 0 0 1 341.333333 133.12h341.333334a10.666667 10.666667 0 0 1 10.666666 10.666667v147.626666h-362.666666z m362.666666 736.426666a10.666667 10.666667 0 0 1-10.666666 10.666667H341.333333a10.666667 10.666667 0 0 1-10.666666-10.666667v-222.72a10.666667 10.666667 0 0 1 10.666666-10.666666h341.333334a10.666667 10.666667 0 0 1 10.666666 10.666666v222.72z m181.333334-189.866666a10.666667 10.666667 0 0 1-10.666667 10.666666H768a10.666667 10.666667 0 0 1-10.666667-10.666666v-32.853334A74.24 74.24 0 0 0 682.666667 582.826667H341.333333a74.24 74.24 0 0 0-74.666666 74.24v32.853333a10.666667 10.666667 0 0 1-10.666667 10.666667H160a10.666667 10.666667 0 0 1-10.666667-10.666667V366.08a10.666667 10.666667 0 0 1 10.666667-10.666667h704a10.666667 10.666667 0 0 1 10.666667 10.666667zM268.8 439.04m32 0l64 0q32 0 32 32l0 0q0 32-32 32l-64 0q-32 0-32-32l0 0q0-32 32-32Z" /></svg>