<?xml version="1.0" standalone="no"?><!DOCTYPE svg PUBLIC "-//W3C//DTD SVG 1.1//EN" "http://www.w3.org/Graphics/SVG/1.1/DTD/svg11.dtd"><svg class="icon" width="128px" height="128.00px" viewBox="0 0 1024 1024" version="1.1" xmlns="http://www.w3.org/2000/svg"><path fill="#666666" d="M511.957333 42.666667C771.2 42.666667 981.333333 252.8 981.333333 512s-210.133333 469.333333-469.376 469.333333S42.581333 771.2 42.581333 512 252.714667 42.666667 511.957333 42.666667z m0 80.469333a388.906667 388.906667 0 1 0 0 777.728 388.906667 388.906667 0 1 0 0-777.728z m13.397334 576.597333a40.234667 40.234667 0 1 1 0 80.469334 40.234667 40.234667 0 0 1 0-80.469334z m0-469.333333a187.733333 187.733333 0 0 1 43.946666 370.304l-3.712 0.810667v38.613333c0 20.693333-15.744 38.058667-36.352 40.021333l-3.84 0.213334a40.234667 40.234667 0 0 1-40.106666-36.394667l-0.170667-3.84v-74.496c0-22.186667 18.005333-40.234667 40.234667-40.234667A107.264 107.264 0 1 0 418.133333 418.133333a40.234667 40.234667 0 0 1-80.469333 0 187.733333 187.733333 0 0 1 187.733333-187.733333z" /></svg>