<?xml version="1.0" standalone="no"?><!DOCTYPE svg PUBLIC "-//W3C//DTD SVG 1.1//EN" "http://www.w3.org/Graphics/SVG/1.1/DTD/svg11.dtd"><svg class="icon" width="128px" height="128.00px" viewBox="0 0 1024 1024" version="1.1" xmlns="http://www.w3.org/2000/svg"><path fill="#666666" d="M851.42 64.58H172.58c-59.65 0-108 48.35-108 108v678.84c0 59.65 48.35 108 108 108h678.84c59.65 0 108-48.35 108-108V172.58c0-59.65-48.35-108-108-108z m47 786.84c0 25.92-21.08 47-47 47H172.58c-25.92 0-47-21.08-47-47V172.58c0-25.92 21.08-47 47-47h678.84c25.92 0 47 21.08 47 47v678.84zM252.3 415.01c16.84 0 30.5-13.66 30.5-30.5v-99.14l97.26 0.25h0.08c16.81 0 30.46-13.6 30.5-30.42 0.04-16.84-13.58-30.54-30.42-30.58l-127.84-0.33h-0.08c-8.07 0-15.82 3.2-21.54 8.91a30.476 30.476 0 0 0-8.96 21.59v129.72c0 16.84 13.66 30.5 30.5 30.5zM382.02 737.08h-99.14l0.25-97.26c0.04-16.84-13.58-30.54-30.42-30.58-16.84-0.03-30.54 13.58-30.58 30.42l-0.33 127.84a30.49 30.49 0 0 0 8.91 21.62 30.476 30.476 0 0 0 21.59 8.96h129.72c16.84 0 30.5-13.66 30.5-30.5s-13.65-30.5-30.5-30.5zM765.08 224.07l-127.84 0.33c-16.84 0.04-30.46 13.73-30.42 30.58 0.04 16.82 13.69 30.42 30.5 30.42h0.08l97.26-0.25v99.14c0 16.84 13.66 30.5 30.5 30.5s30.5-13.66 30.5-30.5V254.57c0-8.1-3.22-15.87-8.96-21.59-5.74-5.72-13.51-8.97-21.62-8.91zM764.83 609.03h-0.08c-16.84 0.04-30.46 13.73-30.42 30.58l0.25 97.26h-99.14c-16.84 0-30.5 13.66-30.5 30.5s13.66 30.5 30.5 30.5h129.72c8.1 0 15.87-3.22 21.59-8.96s8.93-13.51 8.91-21.62l-0.33-127.84c-0.04-16.82-13.69-30.42-30.5-30.42z" /></svg>