<?xml version="1.0" standalone="no"?><!DOCTYPE svg PUBLIC "-//W3C//DTD SVG 1.1//EN" "http://www.w3.org/Graphics/SVG/1.1/DTD/svg11.dtd"><svg class="icon" width="128px" height="128.00px" viewBox="0 0 1024 1024" version="1.1" xmlns="http://www.w3.org/2000/svg"><path fill="#666666" d="M909.653333 314.88A265.813333 265.813333 0 0 0 637.013333 170.666667h-2.56a231.68 231.68 0 0 0-324.266666 0 224.426667 224.426667 0 0 0-65.28 131.84 203.093333 203.093333 0 0 0-99.413334 53.76A197.546667 197.546667 0 0 0 85.333333 498.773333a202.666667 202.666667 0 0 0 203.52 201.386667h381.013334a267.52 267.52 0 0 0 268.8-265.386667 258.986667 258.986667 0 0 0-29.013334-119.893333z m-239.786666 321.28H288.853333a138.666667 138.666667 0 0 1-139.52-137.386667 134.4 134.4 0 0 1 42.666667-96.853333 139.52 139.52 0 0 1 85.333333-39.68 32.426667 32.426667 0 0 0 29.866667-32.853333A161.706667 161.706667 0 0 1 354.986667 213.333333a168.106667 168.106667 0 0 1 117.76-47.786666A165.973333 165.973333 0 0 1 589.653333 213.333333a131.413333 131.413333 0 0 1 10.24 11.093334 31.146667 31.146667 0 0 0 30.72 11.52 210.773333 210.773333 0 0 1 39.253334-3.84A203.946667 203.946667 0 0 1 853.333333 344.32a190.293333 190.293333 0 0 1 22.186667 90.453333 203.093333 203.093333 0 0 1-205.653333 201.386667zM310.186667 783.786667a32.426667 32.426667 0 0 0-42.666667 14.933333l-37.12 76.373333a32 32 0 0 0 14.506667 42.666667 34.133333 34.133333 0 0 0 14.08 3.413333 32.853333 32.853333 0 0 0 29.013333-17.92l37.12-76.373333a32.426667 32.426667 0 0 0-14.933333-43.093333zM544.853333 783.786667a32.426667 32.426667 0 0 0-42.666666 14.933333l-37.12 76.373333a32 32 0 0 0 14.506666 42.666667 34.133333 34.133333 0 0 0 14.08 3.413333 32.853333 32.853333 0 0 0 29.013334-17.92l37.12-76.373333a32.426667 32.426667 0 0 0-14.933334-43.093333zM779.52 783.786667a32.426667 32.426667 0 0 0-42.666667 14.933333l-37.12 76.373333a32 32 0 0 0 14.506667 42.666667 34.133333 34.133333 0 0 0 14.08 3.413333 32.853333 32.853333 0 0 0 29.013333-17.92l37.12-76.373333a32.426667 32.426667 0 0 0-14.933333-43.093333z" /></svg>