<?xml version="1.0" standalone="no"?><!DOCTYPE svg PUBLIC "-//W3C//DTD SVG 1.1//EN" "http://www.w3.org/Graphics/SVG/1.1/DTD/svg11.dtd"><svg class="icon" width="128px" height="128.00px" viewBox="0 0 1024 1024" version="1.1" xmlns="http://www.w3.org/2000/svg"><path fill="#666666" d="M482.56 337.066667a32.426667 32.426667 0 0 0-32 32v173.653333a32 32 0 0 0 9.386667 22.613333l100.266666 100.266667a32 32 0 0 0 45.653334-45.226667l-81.92-81.493333a32 32 0 0 1-9.386667-22.613333V369.066667a32 32 0 0 0-32-32zM512 85.333333a418.133333 418.133333 0 0 0-56.746667 3.84A32.426667 32.426667 0 0 0 426.666667 128a31.573333 31.573333 0 0 0 34.56 24.746667A392.533333 392.533333 0 0 1 512 149.333333a362.666667 362.666667 0 0 1 0 725.333334 392.533333 392.533333 0 0 1-49.92-3.413334 31.573333 31.573333 0 0 0-35.413333 24.746667 32.426667 32.426667 0 0 0 27.733333 38.826667A418.133333 418.133333 0 0 0 512 938.666667a426.666667 426.666667 0 0 0 0-853.333334zM224.853333 733.44a31.573333 31.573333 0 0 0-42.666666-5.973333 32.426667 32.426667 0 0 0-6.826667 47.36 418.56 418.56 0 0 0 65.28 66.56 32 32 0 0 0 47.36-5.973334 31.573333 31.573333 0 0 0-5.12-42.666666 371.2 371.2 0 0 1-58.026667-59.306667zM128 436.053333a32.426667 32.426667 0 0 0-38.4 28.16A448.426667 448.426667 0 0 0 85.333333 512a426.666667 426.666667 0 0 0 2.56 46.933333 32 32 0 0 0 37.973334 28.16 31.146667 31.146667 0 0 0 25.6-34.133333v-42.666667-42.666666a31.146667 31.146667 0 0 0-23.466667-31.573334zM241.493333 182.186667a401.493333 401.493333 0 0 0-65.28 66.56 32.426667 32.426667 0 0 0 6.826667 47.36 31.146667 31.146667 0 0 0 42.666667-6.4A366.08 366.08 0 0 1 283.733333 230.4a31.573333 31.573333 0 0 0 5.12-42.666667 32 32 0 0 0-47.36-5.546666z" /></svg>