<?xml version="1.0" standalone="no"?><!DOCTYPE svg PUBLIC "-//W3C//DTD SVG 1.1//EN" "http://www.w3.org/Graphics/SVG/1.1/DTD/svg11.dtd"><svg class="icon" width="128px" height="128.00px" viewBox="0 0 1024 1024" version="1.1" xmlns="http://www.w3.org/2000/svg"><path fill="#666666" d="M902.101333 106.666667c19.498667 0 35.584 15.189333 36.522667 34.474666a36.309333 36.309333 0 0 1-32.981333 37.76l-3.541334 0.170667h-36.565333V832.853333c0 44.842667-35.413333 81.92-80.64 84.352l-4.693333 0.128c-15.957333 0-31.573333-4.394667-45.098667-12.714666l-4.949333-3.285334-154.709334-110.805333a110.677333 110.677333 0 0 0-124.245333-2.944l-4.650667 3.2-152.576 109.994667a86.058667 86.058667 0 0 1-86.272 8.277333 84.48 84.48 0 0 1-49.066666-70.656l-0.256-5.930667V179.072h-36.565334a36.394667 36.394667 0 0 1-36.522666-34.474667 36.309333 36.309333 0 0 1 33.024-37.76l3.498666-0.170666h780.288z m-109.738666 84.48H231.552v641.322666c0 1.28 0.213333 2.56 0.597333 3.754667l0.725334 1.706667 0.981333 1.664c3.456 4.693333 9.813333 6.314667 15.146667 3.754666l1.877333-1.109333 152.618667-109.994667a184.405333 184.405333 0 0 1 208.938666-4.394666l5.888 4.053333 154.709334 110.762667c3.413333 2.432 7.808 2.986667 11.690666 1.408a12.117333 12.117333 0 0 0 7.466667-9.045334l0.170667-2.176V191.146667zM512 305.962667c18.773333 0 34.474667 14.08 36.394667 32.512l0.170666 3.712v63.36h64a36.394667 36.394667 0 0 1 36.778667 34.346666 36.309333 36.309333 0 0 1-33.024 37.888l-3.712 0.170667h-64.042667v63.36a36.394667 36.394667 0 0 1-34.688 36.138667 36.48 36.48 0 0 1-38.272-32.426667l-0.170666-3.712v-63.36h-64a36.394667 36.394667 0 0 1-36.522667-34.346667 36.309333 36.309333 0 0 1 32.768-37.888l3.754667-0.170666h64V342.186667c0-20.010667 16.384-36.224 36.565333-36.224z" /></svg>