<?xml version="1.0" standalone="no"?><!DOCTYPE svg PUBLIC "-//W3C//DTD SVG 1.1//EN" "http://www.w3.org/Graphics/SVG/1.1/DTD/svg11.dtd"><svg class="icon" width="128px" height="128.00px" viewBox="0 0 1024 1024" version="1.1" xmlns="http://www.w3.org/2000/svg"><path fill="#666666" d="M697.344 42.666667c107.221333 0 195.114667 86.101333 198.570667 194.602666l0.085333 6.528v536.405334c0 108.544-85.077333 197.546667-192.213333 201.045333l-6.4 0.085333H326.528C219.306667 981.333333 131.498667 895.189333 128 786.688l-0.085333-6.485333V243.797333c0-108.544 85.077333-197.546667 192.213333-201.045333L326.528 42.666667h370.816zM644.693333 420.693333l-22.272 2.56a119.210667 119.210667 0 0 1-110.506666 75.349334A119.210667 119.210667 0 0 1 401.493333 423.253333c-69.418667-7.168-135.125333-21.034667-194.133333-40.832v397.781334c0 64.426667 50.048 117.504 113.621333 120.533333l5.546667 0.128h370.816c63.658667 0 116.053333-50.602667 119.04-114.986667l0.170667-5.674666V382.421333a891.050667 891.050667 0 0 1-171.861334 38.272zM512 337.664a39.936 39.936 0 0 0-39.594667 36.394667l-0.128 3.413333c0.554667 2.730667 0.853333 5.632 0.853334 8.533333a39.765333 39.765333 0 0 0 44.245333 31.744 40.106667 40.106667 0 0 0 34.261333-42.581333 39.936 39.936 0 0 0-39.68-37.504z m185.386667-214.528h-370.773334c-63.701333 0-116.096 50.602667-119.125333 114.986667l-0.128 5.674666v53.333334c56.192 21.418667 121.130667 36.778667 190.805333 44.8A119.381333 119.381333 0 0 1 512 257.194667c52.181333 0 98.304 34.304 113.792 84.778666 69.76-8.021333 134.698667-23.424 190.848-44.842666l-0.042667-53.290667c0-64.426667-50.005333-117.504-113.578666-120.533333l-5.632-0.128z" /></svg>