<?xml version="1.0" standalone="no"?><!DOCTYPE svg PUBLIC "-//W3C//DTD SVG 1.1//EN" "http://www.w3.org/Graphics/SVG/1.1/DTD/svg11.dtd"><svg class="icon" width="128px" height="128.00px" viewBox="0 0 1024 1024" version="1.1" xmlns="http://www.w3.org/2000/svg"><path fill="#666666" d="M511.957333 42.666667C771.2 42.666667 981.333333 252.8 981.333333 512s-210.133333 469.333333-469.376 469.333333S42.581333 771.2 42.581333 512 252.714667 42.666667 511.957333 42.666667z m0 80.469333a388.906667 388.906667 0 1 0 0 777.728 388.906667 388.906667 0 1 0 0-777.728z m13.397334 522.965333a40.234667 40.234667 0 1 1 0 80.469334 40.234667 40.234667 0 0 1 0-80.469334z m0-402.304a62.464 62.464 0 0 1 62.293333 66.901334l-19.2 268.458666a43.221333 43.221333 0 0 1-86.186667 0l-19.2-268.458666a62.421333 62.421333 0 0 1 62.293334-66.901334z" /></svg>