<?xml version="1.0" standalone="no"?><!DOCTYPE svg PUBLIC "-//W3C//DTD SVG 1.1//EN" "http://www.w3.org/Graphics/SVG/1.1/DTD/svg11.dtd"><svg class="icon" width="128px" height="128.00px" viewBox="0 0 1024 1024" version="1.1" xmlns="http://www.w3.org/2000/svg"><path fill="#666666" d="M819.626667 213.333333h-512a117.333333 117.333333 0 0 0-99.84 58.026667l-103.253334 170.666667a136.96 136.96 0 0 0 0 139.946666l103.253334 170.666667A117.333333 117.333333 0 0 0 307.626667 810.666667h512A124.16 124.16 0 0 0 938.666667 682.666667V341.333333a124.16 124.16 0 0 0-119.04-128z m55.04 469.333334a60.16 60.16 0 0 1-55.04 64h-512a52.906667 52.906667 0 0 1-42.666667-27.306667l-103.68-170.666667a72.96 72.96 0 0 1 0-73.386666l103.68-170.666667a52.906667 52.906667 0 0 1 42.666667-27.306667h512A60.16 60.16 0 0 1 874.666667 341.333333zM736.426667 404.053333a32 32 0 0 0-45.226667 0l-62.72 62.72-62.72-62.72a32 32 0 0 0-45.226667 45.226667L583.253333 512l-62.72 62.72a32 32 0 0 0 0 45.226667 31.573333 31.573333 0 0 0 22.613334 9.386666 31.146667 31.146667 0 0 0 22.613333-9.386666l62.72-62.72 62.72 62.72a31.573333 31.573333 0 0 0 22.613333 9.386666 31.146667 31.146667 0 0 0 22.613334-9.386666 31.573333 31.573333 0 0 0 0-45.226667L673.706667 512l62.72-62.72a31.573333 31.573333 0 0 0 0-45.226667z" /></svg>