<?xml version="1.0" standalone="no"?><!DOCTYPE svg PUBLIC "-//W3C//DTD SVG 1.1//EN" "http://www.w3.org/Graphics/SVG/1.1/DTD/svg11.dtd"><svg class="icon" width="128px" height="128.00px" viewBox="0 0 1024 1024" version="1.1" xmlns="http://www.w3.org/2000/svg"><path fill="#666666" d="M938.666667 504.32l-98.133334-99.413333a32 32 0 0 0-29.866666-17.493334 30.72 30.72 0 0 0-23.893334 9.386667l-107.946666 107.52a32 32 0 0 0 0 45.226667 32.853333 32.853333 0 0 0 45.653333 0l55.466667-55.466667v36.693333A182.613333 182.613333 0 0 1 597.333333 713.386667H187.733333a32 32 0 0 0 0 64H597.333333a246.613333 246.613333 0 0 0 246.613334-246.613334v-31.573333L896 549.546667a32 32 0 0 0 45.226667 0 32 32 0 0 0-2.56-45.226667zM202.24 634.026667a28.586667 28.586667 0 0 0 11.946667 2.56 30.72 30.72 0 0 0 12.373333-2.56 26.88 26.88 0 0 0 10.24-6.826667l107.946667-107.52a32 32 0 0 0 0-45.226667 32.853333 32.853333 0 0 0-45.653334 0l-52.906666 52.906667v-34.133333a182.613333 182.613333 0 0 1 182.613333-182.613334h410.026667a32 32 0 0 0 0-64h-410.026667a246.613333 246.613333 0 0 0-246.613333 246.613334v34.133333L128 474.453333a32 32 0 1 0-42.666667 45.226667l106.24 107.52a25.6 25.6 0 0 0 10.666667 6.826667z" /></svg>