<?xml version="1.0" standalone="no"?><!DOCTYPE svg PUBLIC "-//W3C//DTD SVG 1.1//EN" "http://www.w3.org/Graphics/SVG/1.1/DTD/svg11.dtd"><svg class="icon" width="128px" height="128.00px" viewBox="0 0 1024 1024" version="1.1" xmlns="http://www.w3.org/2000/svg"><path fill="#666666" d="M508.586667 648.96a29.44 29.44 0 1 0 29.44 29.44 29.44 29.44 0 0 0-29.44-29.44zM508.586667 316.16a37.546667 37.546667 0 0 0-37.546667 38.826667l8.106667 215.893333a29.44 29.44 0 0 0 58.88 0l8.106666-215.893333a37.12 37.12 0 0 0-37.546666-38.826667zM929.28 318.72l-224-224A32 32 0 0 0 682.666667 85.333333H341.333333a32 32 0 0 0-22.613333 9.386667L94.72 318.72A32 32 0 0 0 85.333333 341.333333v341.333334a32 32 0 0 0 9.386667 22.613333l224 224A32 32 0 0 0 341.333333 938.666667h341.333334a32 32 0 0 0 22.613333-9.386667l224-224A32 32 0 0 0 938.666667 682.666667V341.333333a32 32 0 0 0-9.386667-22.613333z m-54.613333 350.72l-205.226667 205.226667H354.56L149.333333 669.44V354.56L354.56 149.333333h314.88l205.226667 205.226667z" /></svg>