<?xml version="1.0" standalone="no"?><!DOCTYPE svg PUBLIC "-//W3C//DTD SVG 1.1//EN" "http://www.w3.org/Graphics/SVG/1.1/DTD/svg11.dtd"><svg class="icon" width="128px" height="128.00px" viewBox="0 0 1024 1024" version="1.1" xmlns="http://www.w3.org/2000/svg"><path fill="#666666" d="M832 864a33.28 33.28 0 0 1-9.386667 0l-356.266666-113.066667a31.573333 31.573333 0 0 1-22.186667-27.733333 32 32 0 0 1 17.066667-31.573333l71.253333-35.84-164.693333-164.693334-35.84 71.253334a32 32 0 0 1-31.146667 17.493333 32.853333 32.853333 0 0 1-28.16-22.613333L161.28 201.386667a32.426667 32.426667 0 0 1 40.106667-40.106667l355.84 111.36a32 32 0 0 1 5.12 59.306667l-71.253334 35.84 164.693334 164.693333 35.84-71.253333a32.426667 32.426667 0 0 1 59.306666 5.12l111.786667 356.266666a32 32 0 0 1-30.72 42.666667z m-271.786667-150.613333l223.146667 69.973333-69.973333-223.146667-20.48 40.533334a33.28 33.28 0 0 1-23.466667 17.066666 31.573333 31.573333 0 0 1-27.733333-8.96L414.72 384a32.426667 32.426667 0 0 1-8.96-27.306667 31.573333 31.573333 0 0 1 17.066667-23.466666l40.533333-20.906667-222.72-71.68 69.546667 222.72 20.906666-40.533333a31.573333 31.573333 0 0 1 23.466667-17.066667 32.426667 32.426667 0 0 1 29.44 8.96L608.853333 640a31.573333 31.573333 0 0 1 8.96 27.733333 33.28 33.28 0 0 1-17.066666 23.466667z" /></svg>