<?xml version="1.0" standalone="no"?><!DOCTYPE svg PUBLIC "-//W3C//DTD SVG 1.1//EN" "http://www.w3.org/Graphics/SVG/1.1/DTD/svg11.dtd"><svg class="icon" width="128px" height="128.00px" viewBox="0 0 1024 1024" version="1.1" xmlns="http://www.w3.org/2000/svg"><path fill="#666666" d="M511.957333 42.666667C252.714667 42.666667 42.581333 252.8 42.581333 512s210.133333 469.333333 469.376 469.333333S981.333333 771.2 981.333333 512 771.2 42.666667 511.957333 42.666667z m0 80.469333a388.906667 388.906667 0 1 1 0 777.728 388.906667 388.906667 0 1 1 0-777.728z m-82.090666 199.509333a40.234667 40.234667 0 0 1 53.845333-2.773333l3.072 2.773333 160.938667 160.896c14.592 14.592 15.786667 37.845333 2.730666 53.845334l-2.730666 3.072-160.938667 160.896a40.234667 40.234667 0 0 1-59.733333-53.845334l2.816-3.072L562.346667 512l-132.48-132.48a40.234667 40.234667 0 0 1-2.773334-53.845333l2.773334-3.029334z" /></svg>