<?xml version="1.0" standalone="no"?><!DOCTYPE svg PUBLIC "-//W3C//DTD SVG 1.1//EN" "http://www.w3.org/Graphics/SVG/1.1/DTD/svg11.dtd"><svg class="icon" width="128px" height="128.00px" viewBox="0 0 1024 1024" version="1.1" xmlns="http://www.w3.org/2000/svg"><path fill="#666666" d="M119.04 512a32.853333 32.853333 0 0 0-32 35.413333c0 14.933333 3.413333 29.866667 5.973333 42.666667a32.853333 32.853333 0 0 0 40.533334 25.6 32.853333 32.853333 0 0 0 22.613333-37.973333 261.973333 261.973333 0 0 1-5.12-36.693334 32.426667 32.426667 0 0 0-32-29.013333zM170.666667 768c10.24 13.226667 20.906667 26.026667 32.426666 38.4a32.853333 32.853333 0 0 0 47.786667 0 32 32 0 0 0 0-42.666667 375.893333 375.893333 0 0 1-29.44-34.986666 32 32 0 0 0-42.666667-7.68A32.853333 32.853333 0 0 0 170.666667 768zM360.106667 911.36c14.08 5.12 28.16 9.813333 42.666666 13.653333a32.853333 32.853333 0 0 0 42.666667-25.173333 32.426667 32.426667 0 0 0-24.746667-36.693333c-11.946667-3.413333-23.466667-7.253333-34.986666-11.52a32.426667 32.426667 0 0 0-42.666667 15.36H341.333333a32.853333 32.853333 0 0 0 18.773334 44.373333zM581.12 933.546667a22.186667 22.186667 0 0 1-7.68 0 32.426667 32.426667 0 0 1-32-32.426667 32 32 0 0 1 25.6-31.573333A362.666667 362.666667 0 1 0 290.56 224.853333h38.826667a32.426667 32.426667 0 0 1 32.853333 31.146667 32 32 0 0 1-31.146667 32.853333L213.333333 290.986667a31.146667 31.146667 0 0 1-22.186666-8.96 32.426667 32.426667 0 0 1-9.813334-22.186667l-2.986666-119.466667a32.426667 32.426667 0 0 1 31.146666-32 32 32 0 0 1 32.853334 31.146667v42.666667a426.666667 426.666667 0 1 1 341.333333 750.08z" /></svg>