<?xml version="1.0" standalone="no"?><!DOCTYPE svg PUBLIC "-//W3C//DTD SVG 1.1//EN" "http://www.w3.org/Graphics/SVG/1.1/DTD/svg11.dtd"><svg class="icon" width="128px" height="128.00px" viewBox="0 0 1024 1024" version="1.1" xmlns="http://www.w3.org/2000/svg"><path fill="#666666" d="M794.453333 650.666667h-308.906666V117.333333a32.426667 32.426667 0 0 0-32.426667-32H229.546667a32.426667 32.426667 0 0 0-32.426667 32v789.333334a32.426667 32.426667 0 0 0 32.426667 32h564.906666a32.426667 32.426667 0 0 0 32.426667-32V682.666667a32.426667 32.426667 0 0 0-32.426667-32zM421.546667 149.333333v160H367.786667v64h53.76v106.666667H367.786667v64h53.76v125.44l-160.426667 160V149.333333z m341.333333 725.333334H306.773333l160-160h125.44V768h64v-53.333333h106.666667v160z" /></svg>