<?xml version="1.0" standalone="no"?><!DOCTYPE svg PUBLIC "-//W3C//DTD SVG 1.1//EN" "http://www.w3.org/Graphics/SVG/1.1/DTD/svg11.dtd"><svg class="icon" width="128px" height="128.00px" viewBox="0 0 1024 1024" version="1.1" xmlns="http://www.w3.org/2000/svg"><path fill="#666666" d="M512 42.666667c-120.746667 0-241.024 36.309333-360.277333 108.373333A94.378667 94.378667 0 0 0 106.666667 231.936v274.986667c0 78.933333 19.413333 156.586667 56.448 225.792C250.752 896.512 367.914667 981.333333 512 981.333333s261.248-84.821333 348.885333-248.618666A478.976 478.976 0 0 0 917.333333 506.88V231.936c0-33.237333-17.109333-64-45.056-80.853333C753.024 78.933333 632.746667 42.666667 512 42.666667z m0 80.469333c106.154667 0 212.821333 32.213333 320.426667 97.237333 4.010667 2.389333 6.442667 6.826667 6.442666 11.52v275.029334a396.757333 396.757333 0 0 1-46.762666 187.050666c-74.837333 139.946667-167.381333 206.933333-280.106667 206.933334-112.725333 0-205.269333-66.986667-280.106667-206.933334a396.8 396.8 0 0 1-46.762666-187.050666V231.936c0-4.736 2.432-9.130667 6.4-11.52C299.178667 155.306667 405.845333 123.136 512 123.136z m0 181.205333a39.722667 39.722667 0 0 0-39.253333 40.234667v70.357333H404.138667l-4.010667 0.256a39.936 39.936 0 0 0-35.114667 42.069334 39.68 39.68 0 0 0 39.125334 38.186666l68.608-0.042666v70.4l0.256 4.138666c2.133333 21.333333 20.181333 37.12 41.002666 36.053334a39.808 39.808 0 0 0 37.205334-40.149334V495.36h68.693333l3.968-0.170667a39.936 39.936 0 0 0 35.413333-42.069333 39.68 39.68 0 0 0-39.424-38.186667l-68.650666-0.042666v-70.4l-0.213334-4.053334A39.594667 39.594667 0 0 0 512 304.341333z" /></svg>