<?xml version="1.0" standalone="no"?><!DOCTYPE svg PUBLIC "-//W3C//DTD SVG 1.1//EN" "http://www.w3.org/Graphics/SVG/1.1/DTD/svg11.dtd"><svg class="icon" width="128px" height="128.00px" viewBox="0 0 1024 1024" version="1.1" xmlns="http://www.w3.org/2000/svg"><path fill="#666666" d="M121.898667 621.696c18.858667 0 34.602667 14.336 36.394666 33.066667l0.170667 3.541333v97.493333a109.696 109.696 0 0 0 104.533333 109.610667l5.205334 0.128H365.653333a36.565333 36.565333 0 0 1 3.541334 72.96L365.653333 938.666667H268.202667a182.869333 182.869333 0 0 1-182.784-176.938667L85.333333 755.797333V658.346667c0-20.224 16.384-36.608 36.565334-36.608z m780.202666 0c18.816 0 34.56 14.336 36.394667 33.066667l0.170667 3.541333v97.493333a182.869333 182.869333 0 0 1-176.938667 182.784l-5.930667 0.085334H658.346667a36.565333 36.565333 0 0 1-3.541334-72.96l3.541334-0.170667h97.493333a109.696 109.696 0 0 0 109.610667-104.533333l0.128-5.205334V658.346667c0-20.224 16.341333-36.608 36.565333-36.608z m-125.44-158.464a36.565333 36.565333 0 0 1 3.541334 72.96l-3.541334 0.170667H268.202667a36.565333 36.565333 0 0 1-3.541334-72.96l3.541334-0.170667h508.458666zM365.653333 85.333333a36.565333 36.565333 0 0 1 3.541334 72.96l-3.541334 0.170667H268.202667a109.738667 109.738667 0 0 0-109.610667 104.533333l-0.128 5.205334v48.768a36.565333 36.565333 0 0 1-72.96 3.498666L85.333333 316.970667V268.202667a182.869333 182.869333 0 0 1 176.938667-182.784L268.202667 85.333333H365.653333z m390.101334 0a182.869333 182.869333 0 0 1 182.784 176.938667l0.085333 5.930667V365.653333a36.565333 36.565333 0 0 1-72.96 3.541334l-0.170667-3.541334V268.202667a109.696 109.696 0 0 0-104.533333-109.610667l-5.205333-0.128H658.346667a36.565333 36.565333 0 0 1-3.541334-72.96L658.346667 85.333333h97.493333z" /></svg>