<?xml version="1.0" standalone="no"?><!DOCTYPE svg PUBLIC "-//W3C//DTD SVG 1.1//EN" "http://www.w3.org/Graphics/SVG/1.1/DTD/svg11.dtd"><svg class="icon" width="128px" height="128.00px" viewBox="0 0 1024 1024" version="1.1" xmlns="http://www.w3.org/2000/svg"><path fill="#666666" d="M792.832 85.333333c29.909333 0 57.429333 17.066667 71.808 44.416 14.336 27.392 13.226667 60.757333-2.901333 87.04l-3.370667 4.992-217.770667 303.829334v376.490666c0 18.816-13.738667 34.56-31.701333 36.394667l-3.413333 0.170667c-18.048 0-33.152-14.293333-34.901334-33.066667l-0.170666-3.498667v-388.608c0-6.613333 1.706667-13.013333 4.906666-18.645333l2.133334-3.285333 224.725333-313.6a12.629333 12.629333 0 0 0 1.493333-11.690667 11.818667 11.818667 0 0 0-8.746666-7.552l-2.133334-0.213333H231.125333a11.605333 11.605333 0 0 0-9.941333 5.76 12.629333 12.629333 0 0 0-0.512 11.861333l1.109333 1.877333 224.768 313.6a37.461333 37.461333 0 0 1 6.784 17.92l0.170667 3.968v195.157334c0 19.498667-14.677333 35.584-33.365333 36.522666-18.688 0.938667-34.816-13.568-36.608-32.981333l-0.170667-3.541333v-183.04L165.546667 221.866667c-25.984-36.266667-20.309333-87.381333 12.885333-116.48l3.669333-2.986667c12.544-9.813333 27.52-15.616 43.093334-16.810667L231.125333 85.333333h561.749334z m32.298667 523.946667c18.773333-0.128 34.346667 15.232 35.285333 34.816 0.853333 19.626667-13.226667 36.437333-31.914667 38.186667l-3.413333 0.170666h-116.906667c-18.730667 0-34.133333-15.36-35.072-34.816-0.853333-19.498667 13.056-36.266667 31.658667-38.186666l3.413333-0.170667h116.906667z m0 146.346667c18.773333-0.170667 34.346667 15.189333 35.285333 34.816 0.853333 19.584-13.226667 36.437333-31.914667 38.186666l-3.413333 0.128h-116.906667c-18.730667 0-34.133333-15.317333-35.072-34.816-0.853333-19.498667 13.056-36.266667 31.658667-38.144l3.413333-0.170666h116.906667z" /></svg>