<?xml version="1.0" standalone="no"?><!DOCTYPE svg PUBLIC "-//W3C//DTD SVG 1.1//EN" "http://www.w3.org/Graphics/SVG/1.1/DTD/svg11.dtd"><svg class="icon" width="128px" height="128.00px" viewBox="0 0 1024 1024" version="1.1" xmlns="http://www.w3.org/2000/svg"><path fill="#666666" d="M597.333333 821.333333H403.2a32 32 0 0 0 0 64H597.333333a32 32 0 1 0 0-64zM262.826667 821.333333H256A53.333333 53.333333 0 0 1 202.666667 768v-6.826667a32 32 0 0 0-64 0V768A117.76 117.76 0 0 0 256 885.333333h6.826667a32 32 0 0 0 0-64zM170.666667 371.2a32 32 0 0 0-32 32V597.333333a32 32 0 0 0 64 0V403.2A32 32 0 0 0 170.666667 371.2zM620.8 138.666667h-192a32 32 0 0 0 0 64h192a32 32 0 0 0 0-64zM761.173333 202.666667H768A53.333333 53.333333 0 0 1 821.333333 256v6.826667a32 32 0 0 0 64 0V256A117.76 117.76 0 0 0 768 138.666667h-6.826667a32 32 0 0 0 0 64zM853.333333 396.8a32.426667 32.426667 0 0 0-32 32v192a32 32 0 0 0 64 0v-192A32.426667 32.426667 0 0 0 853.333333 396.8zM938.666667 821.333333h-53.333334V768a32 32 0 0 0-64 0v53.333333H768a32 32 0 0 0 0 64h53.333333V938.666667a32 32 0 0 0 64 0v-53.333334H938.666667a32 32 0 0 0 0-64zM138.666667 256a32 32 0 0 0 64 0V202.666667H256a32 32 0 0 0 0-64H202.666667V85.333333a32 32 0 0 0-64 0v53.333334H85.333333a32 32 0 0 0 0 64h53.333334z" /></svg>