<?xml version="1.0" standalone="no"?><!DOCTYPE svg PUBLIC "-//W3C//DTD SVG 1.1//EN" "http://www.w3.org/Graphics/SVG/1.1/DTD/svg11.dtd"><svg class="icon" width="128px" height="128.00px" viewBox="0 0 1024 1024" version="1.1" xmlns="http://www.w3.org/2000/svg"><path fill="#666666" d="M682.666667 277.333333a31.573333 31.573333 0 0 1-19.2-6.4L512 157.44 360.533333 270.933333a32 32 0 1 1-38.4-51.2l170.666667-128a32 32 0 0 1 38.4 0l170.666667 128a32 32 0 0 1 6.4 42.666667 31.573333 31.573333 0 0 1-25.6 14.933333zM512 938.666667a31.573333 31.573333 0 0 1-19.2-6.4l-170.666667-128a32 32 0 0 1 38.4-51.2L512 866.56l151.466667-113.493333a32 32 0 1 1 38.4 51.2l-170.666667 128A31.573333 31.573333 0 0 1 512 938.666667zM564.053333 672h-104.106666a108.373333 108.373333 0 0 1-107.946667-107.946667v-104.106666a108.373333 108.373333 0 0 1 107.946667-107.946667h104.106666a108.373333 108.373333 0 0 1 107.946667 107.946667v104.106666a108.373333 108.373333 0 0 1-107.946667 107.946667z m-104.106666-256a42.666667 42.666667 0 0 0-42.666667 42.666667v104.106666a42.666667 42.666667 0 0 0 42.666667 42.666667h104.106666a42.666667 42.666667 0 0 0 42.666667-42.666667v-102.826666a42.666667 42.666667 0 0 0-42.666667-42.666667z" /></svg>