<?xml version="1.0" standalone="no"?><!DOCTYPE svg PUBLIC "-//W3C//DTD SVG 1.1//EN" "http://www.w3.org/Graphics/SVG/1.1/DTD/svg11.dtd"><svg class="icon" width="128px" height="128.00px" viewBox="0 0 1024 1024" version="1.1" xmlns="http://www.w3.org/2000/svg"><path fill="#666666" d="M209.792 209.92c166.144-166.101333 435.456-166.101333 601.514667 0 156.586667 156.586667 165.546667 404.821333 26.88 571.904l88.618666 88.618667a39.893333 39.893333 0 0 1-53.546666 58.965333l-2.858667-2.56-88.576-88.618667c-167.125333 138.666667-415.402667 129.706667-572.032-26.88-166.058667-166.101333-166.058667-435.413333 0-601.472zM754.901333 266.24A345.557333 345.557333 0 1 0 266.24 754.986667 345.557333 345.557333 0 0 0 754.901333 266.24z m-184.32-8.106667c48.64 10.410667 91.008 39.381333 120.832 89.941334a39.893333 39.893333 0 1 1-68.693333 40.533333c-18.090667-30.72-41.386667-46.592-68.864-52.48a115.754667 115.754667 0 0 0-34.816-1.962667l-5.76 0.64-4.138667 0.682667-2.432 0.512a39.850667 39.850667 0 0 1-25.258666-75.52l3.626666-1.194667c20.608-5.802667 50.773333-8.576 85.504-1.152z" /></svg>