<?xml version="1.0" standalone="no"?><!DOCTYPE svg PUBLIC "-//W3C//DTD SVG 1.1//EN" "http://www.w3.org/Graphics/SVG/1.1/DTD/svg11.dtd"><svg class="icon" width="128px" height="128.00px" viewBox="0 0 1024 1024" version="1.1" xmlns="http://www.w3.org/2000/svg"><path fill="#666666" d="M603.477333 42.666667c47.701333 0 89.386667 32.170667 101.333334 78.208h16.384c106.837333 0 192.768 89.6 196.053333 200.192l0.085333 6.528v447.018666c0 111.36-83.882667 203.093333-189.866666 206.634667l-6.272 0.085333H302.72c-106.837333 0-192.768-89.6-196.053333-200.192l-0.085334-6.528V327.594667c0-111.402667 83.882667-203.093333 189.866667-206.634667l6.272-0.085333h16.384a104.576 104.576 0 0 1 95.914667-78.08L420.437333 42.666667h183.04z m90.624 156.458666a104.661333 104.661333 0 0 1-84.522666 51.968l-6.101334 0.170667h-183.04A104.661333 104.661333 0 0 1 329.813333 199.125333h-27.093333c-62.592 0-114.688 53.845333-117.546667 122.538667l-0.128 5.973333v446.933334c0 69.546667 50.346667 125.354667 112.341334 128.426666l5.333333 0.128h418.474667c62.592 0 114.688-53.845333 117.546666-122.581333l0.128-5.973333V327.637333c0-69.546667-50.389333-125.312-112.341333-128.384l-5.333333-0.128h-27.093334z m-384.213333 288.426667a209.066667 209.066667 0 0 1 188.928-154.154667 209.28 209.28 0 0 1 206.848 129.365334 208.213333 208.213333 0 0 1-56.96 236.714666l36.693333 63.402667a39.04 39.04 0 0 1-12.672 52.522667 39.296 39.296 0 0 1-53.205333-10.24l-2.048-3.157334-36.736-63.402666a209.706667 209.706667 0 0 1-211.2-44.245334 208.170667 208.170667 0 0 1-59.648-206.805333z m235.946667-71.936a130.816 130.816 0 0 0-160.213334 92.202667 130.346667 130.346667 0 0 0 92.501334 159.701333 130.816 130.816 0 0 0 160.170666-92.202667 130.346667 130.346667 0 0 0-92.501333-159.701333z m57.642666-294.741333h-183.04a26.112 26.112 0 0 0-3.072 51.968l3.072 0.213333h183.04a26.112 26.112 0 0 0 3.072-51.968l-3.072-0.213333z" /></svg>