<?xml version="1.0" standalone="no"?><!DOCTYPE svg PUBLIC "-//W3C//DTD SVG 1.1//EN" "http://www.w3.org/Graphics/SVG/1.1/DTD/svg11.dtd"><svg class="icon" width="128px" height="128.00px" viewBox="0 0 1024 1024" version="1.1" xmlns="http://www.w3.org/2000/svg"><path fill="#666666" d="M853.333333 213.333333l-331.52-128a30.72 30.72 0 0 0-23.04 0L170.666667 213.333333a32 32 0 0 0-20.48 29.866667v272.213333A436.906667 436.906667 0 0 0 505.6 938.666667h12.8a436.906667 436.906667 0 0 0 357.12-422.4V243.626667A32 32 0 0 0 853.333333 213.333333z m-42.666666 302.08a372.053333 372.053333 0 0 1-298.666667 358.4 372.053333 372.053333 0 0 1-298.666667-358.4V265.813333l298.666667-114.346666 298.666667 114.346666zM471.466667 546.133333l-55.04-54.613333a31.573333 31.573333 0 0 0-45.226667 0 32 32 0 0 0 0 45.226667l92.586667 92.16a21.333333 21.333333 0 0 0 30.293333 0L652.8 469.333333a32 32 0 0 0-45.226667-42.666666l-121.173333 119.466666a10.24 10.24 0 0 1-14.933333 0z" /></svg>