<?xml version="1.0" standalone="no"?><!DOCTYPE svg PUBLIC "-//W3C//DTD SVG 1.1//EN" "http://www.w3.org/Graphics/SVG/1.1/DTD/svg11.dtd"><svg class="icon" width="128px" height="128.00px" viewBox="0 0 1024 1024" version="1.1" xmlns="http://www.w3.org/2000/svg"><path fill="#666666" d="M398.08 933.973333a34.986667 34.986667 0 0 1-15.786667-4.266666l-166.826666-96a31.573333 31.573333 0 0 1-13.653334-39.253334l13.653334-36.693333a80.64 80.64 0 0 0-7.68-68.693333 80.213333 80.213333 0 0 0-56.746667-42.666667L111.786667 640a32 32 0 0 1-26.453334-32.426667v-192A32 32 0 0 1 112.213333 384l39.253334-6.4a79.36 79.36 0 0 0 55.466666-42.666667 81.066667 81.066667 0 0 0 8.533334-70.4l-13.653334-36.693333a32.426667 32.426667 0 0 1 13.653334-39.253333L384 94.293333a32.426667 32.426667 0 0 1 42.666667 7.68l24.746666 30.293334a79.786667 79.786667 0 0 0 60.586667 27.733333 82.346667 82.346667 0 0 0 65.706667-27.733333l24.746666-30.293334a31.573333 31.573333 0 0 1 42.666667-7.253333L810.666667 190.72a31.573333 31.573333 0 0 1 13.653333 38.826667l-13.653333 37.12a79.786667 79.786667 0 0 0 7.253333 68.266666 80.64 80.64 0 0 0 55.893333 42.666667l38.826667 6.4a31.573333 31.573333 0 0 1 26.88 31.573333v192a31.573333 31.573333 0 0 1-26.88 31.573334l-38.4 6.4a81.493333 81.493333 0 0 0-55.893333 42.666666 85.333333 85.333333 0 0 0-7.68 69.546667l14.08 36.693333a31.573333 31.573333 0 0 1-14.08 38.826667l-166.4 96a31.573333 31.573333 0 0 1-42.666667-7.253333l-24.746667-30.293334a79.786667 79.786667 0 0 0-64.853333-27.733333 81.066667 81.066667 0 0 0-64.853333 27.733333l-25.173334 30.293334a31.573333 31.573333 0 0 1-23.893333 11.946666z m-128-142.08l119.893333 68.693334 8.533334-7.253334A142.506667 142.506667 0 0 1 512 800 144.213333 144.213333 0 0 1 626.346667 853.333333l7.68 9.386667 119.04-69.12-4.266667-10.666667a153.6 153.6 0 0 1 114.346667-198.4h11.52v-141.653333l-11.946667-2.133333a145.493333 145.493333 0 0 1-101.12-72.533334 144.64 144.64 0 0 1-12.373333-123.733333l4.266666-11.093333-119.466666-69.973334-7.68 9.386667A143.786667 143.786667 0 0 1 512 224a146.346667 146.346667 0 0 1-114.773333-51.2l-7.253334-9.386667-118.613333 68.693334 4.266667 11.093333a144.64 144.64 0 0 1-12.373334 123.733333 144.64 144.64 0 0 1-101.546666 73.813334l-12.373334 2.133333v137.813333l11.946667 2.133334a143.786667 143.786667 0 0 1 101.12 72.106666 148.053333 148.053333 0 0 1 13.226667 125.44zM512 448a64 64 0 1 1-64 64 64 64 0 0 1 64-64M512 384a128 128 0 1 0 128 128 128 128 0 0 0-128-128z" /></svg>