<?xml version="1.0" standalone="no"?><!DOCTYPE svg PUBLIC "-//W3C//DTD SVG 1.1//EN" "http://www.w3.org/Graphics/SVG/1.1/DTD/svg11.dtd"><svg class="icon" width="128px" height="128.00px" viewBox="0 0 1024 1024" version="1.1" xmlns="http://www.w3.org/2000/svg"><path fill="#666666" d="M512 426.666667a85.333333 85.333333 0 1 1-85.333333 85.333333 85.333333 85.333333 0 0 1 85.333333-85.333333m0-64a149.333333 149.333333 0 1 0 149.333333 149.333333A149.333333 149.333333 0 0 0 512 362.666667zM571.733333 938.666667h-119.04a31.573333 31.573333 0 0 1-31.573333-27.306667 76.8 76.8 0 0 0-125.44-53.76 33.28 33.28 0 0 1-42.666667 0l-85.333333-85.333333a32.426667 32.426667 0 0 1 0-42.666667 75.093333 75.093333 0 0 0 10.666667-77.226667 75.946667 75.946667 0 0 0-63.573334-47.36 32 32 0 0 1-29.44-33.28v-119.04a31.573333 31.573333 0 0 1 29.013334-31.573333 76.373333 76.373333 0 0 0 64-47.36 75.52 75.52 0 0 0-11.52-78.08 33.28 33.28 0 0 1 0-42.666667l85.333333-85.333333a32 32 0 0 1 42.666667-2.56 77.226667 77.226667 0 0 0 128-51.2 32 32 0 0 1 29.866666-28.586667h119.04a32 32 0 0 1 31.573334 28.586667 77.226667 77.226667 0 0 0 125.44 52.48 32.426667 32.426667 0 0 1 42.666666 2.133333l85.333334 85.333334a32 32 0 0 1 2.133333 42.666666 77.226667 77.226667 0 0 0 51.626667 128 32 32 0 0 1 29.013333 31.573334v115.626666a32 32 0 0 1-29.013333 31.573334 77.226667 77.226667 0 0 0-51.626667 125.44 32.426667 32.426667 0 0 1-2.133333 42.666666l-85.333334 85.333334a31.573333 31.573333 0 0 1-42.666666 3.413333 77.226667 77.226667 0 0 0-80.213334-12.8 75.946667 75.946667 0 0 0-47.36 63.573333 32 32 0 0 1-29.44 27.733334z m-93.013333-64h66.986667a137.813333 137.813333 0 0 1 80.213333-87.893334 139.946667 139.946667 0 0 1 119.04 5.12l47.36-46.933333a139.946667 139.946667 0 0 1-5.12-119.04 138.24 138.24 0 0 1 87.466667-80.213333v-66.986667a140.8 140.8 0 0 1-82.773334-199.68l-46.933333-46.933333a140.8 140.8 0 0 1-199.253333-82.773334h-66.56a141.653333 141.653333 0 0 1-200.106667 82.773334l-46.933333 46.933333a137.813333 137.813333 0 0 1 5.12 119.466667 138.666667 138.666667 0 0 1-87.893334 80.64v66.56a140.8 140.8 0 0 1 82.773334 199.253333l46.933333 46.933333a140.8 140.8 0 0 1 119.466667-5.12 137.813333 137.813333 0 0 1 80.213333 87.893334z" /></svg>