<?xml version="1.0" standalone="no"?><!DOCTYPE svg PUBLIC "-//W3C//DTD SVG 1.1//EN" "http://www.w3.org/Graphics/SVG/1.1/DTD/svg11.dtd"><svg class="icon" width="128px" height="128.00px" viewBox="0 0 1024 1024" version="1.1" xmlns="http://www.w3.org/2000/svg"><path fill="#666666" d="M646.528 85.333333c71.552 0 137.685333 37.632 173.482667 98.645334l134.485333 229.418666a194.645333 194.645333 0 0 1 0 197.248l-134.485333 229.376A200.874667 200.874667 0 0 1 646.528 938.666667H377.514667a200.874667 200.874667 0 0 1-173.482667-98.645334l-134.528-229.376a194.645333 194.645333 0 0 1 0-197.248l134.528-229.418666A200.917333 200.917333 0 0 1 377.514667 85.333333h269.013333z m0 78.933334H377.514667a120.533333 120.533333 0 0 0-104.106667 59.178666l-134.485333 229.376a116.778667 116.778667 0 0 0 0 118.357334l134.485333 229.418666a120.533333 120.533333 0 0 0 104.106667 59.178667h269.013333a120.533333 120.533333 0 0 0 104.106667-59.178667l134.485333-229.418666a116.778667 116.778667 0 0 0 0-118.357334l-134.528-229.418666a120.533333 120.533333 0 0 0-104.106667-59.178667v0.042667zM512 341.034667c62.037333 0 119.338667 32.597333 150.357333 85.504a168.704 168.704 0 0 1 0 170.965333A174.122667 174.122667 0 0 1 512 682.965333c-95.872 0-173.610667-76.544-173.610667-170.965333 0-94.378667 77.738667-170.922667 173.610667-170.965333z m0 78.933333c-33.408 0-64.256 17.493333-80.981333 46.037333a90.837333 90.837333 0 0 0 0 92.032A93.738667 93.738667 0 0 0 512 604.074667c51.626667 0 93.44-41.216 93.44-92.074667 0-50.816-41.813333-92.032-93.44-92.032z" /></svg>