<?xml version="1.0" standalone="no"?><!DOCTYPE svg PUBLIC "-//W3C//DTD SVG 1.1//EN" "http://www.w3.org/Graphics/SVG/1.1/DTD/svg11.dtd"><svg class="icon" width="128px" height="128.00px" viewBox="0 0 1024 1024" version="1.1" xmlns="http://www.w3.org/2000/svg"><path fill="#666666" d="M833.792 85.333333a147.754667 147.754667 0 0 1 143.146667 112.64 148.992 148.992 0 0 1-73.898667 167.210667 146.773333 146.773333 0 0 1-178.858667-31.786667l-337.237333 132.010667c2.816 12.458667 4.266667 25.429333 4.266667 38.784v1.450667l322.389333 155.562666a146.858667 146.858667 0 0 1 188.245333-45.696 149.077333 149.077333 0 0 1 70.997334 181.504 147.370667 147.370667 0 0 1-168.618667 95.957334 148.437333 148.437333 0 0 1-117.674667-154.965334l-315.306666-152.106666a173.952 173.952 0 0 1-187.306667 90.709333 175.146667 175.146667 0 0 1-140.416-154.410667 175.786667 175.786667 0 0 1 106.069333-180.053333 173.482667 173.482667 0 0 1 201.813334 50.218667l337.152-132.010667a149.418667 149.418667 0 0 1 32-121.728A147.114667 147.114667 0 0 1 833.792 85.333333z m0 594.474667c-37.034667 0-67.072 30.250667-67.072 67.541333 0 37.333333 30.037333 67.584 67.072 67.584 37.034667 0 67.029333-30.293333 67.029333-67.584 0-37.290667-29.994667-67.541333-67.029333-67.541333zM216.874667 409.6c-33.536 0-64.554667 18.005333-81.322667 47.274667a95.189333 95.189333 0 0 0 0 94.592 93.738667 93.738667 0 0 0 81.322667 47.274666c51.84 0 93.866667-42.325333 93.866666-94.549333a94.208 94.208 0 0 0-93.866666-94.592z m616.917333-243.2c-37.034667 0-67.072 30.250667-67.072 67.541333 0 37.333333 30.037333 67.584 67.072 67.584 37.034667 0 67.029333-30.293333 67.029333-67.584 0-37.290667-29.994667-67.541333-67.029333-67.541333z" /></svg>