<?xml version="1.0" standalone="no"?><!DOCTYPE svg PUBLIC "-//W3C//DTD SVG 1.1//EN" "http://www.w3.org/Graphics/SVG/1.1/DTD/svg11.dtd"><svg class="icon" width="128px" height="128.00px" viewBox="0 0 1024 1024" version="1.1" xmlns="http://www.w3.org/2000/svg"><path fill="#666666" d="M750.933333 648.533333a103.68 103.68 0 0 0-67.84 25.6L390.4 512 682.666667 349.866667a103.68 103.68 0 0 0 67.84 25.6 102.4 102.4 0 1 0-102.4-102.4 112.213333 112.213333 0 0 0 2.133333 20.906666l-291.84 162.133334a102.4 102.4 0 1 0 0 111.786666l292.266667 161.28a89.6 89.6 0 0 0-2.56 21.76 102.4 102.4 0 1 0 102.4-102.4z m0-413.866666a38.4 38.4 0 1 1-38.4 38.4 38.4 38.4 0 0 1 38.4-38.4zM302.933333 535.893333a37.12 37.12 0 0 1-29.866666 14.506667 38.4 38.4 0 1 1 0-76.8 37.12 37.12 0 0 1 29.866666 14.506667 37.546667 37.546667 0 0 1 0 47.786666z m448 253.44a38.4 38.4 0 1 1 38.4-38.4 38.4 38.4 0 0 1-38.4 38.4z" /></svg>