<?xml version="1.0" standalone="no"?><!DOCTYPE svg PUBLIC "-//W3C//DTD SVG 1.1//EN" "http://www.w3.org/Graphics/SVG/1.1/DTD/svg11.dtd"><svg class="icon" width="128px" height="128.00px" viewBox="0 0 1024 1024" version="1.1" xmlns="http://www.w3.org/2000/svg"><path fill="#666666" d="M736.213333 839.722667c17.792 0 34.261333 9.429333 43.178667 24.746666 8.874667 15.317333 8.874667 34.133333 0 49.493334a49.92 49.92 0 0 1-43.178667 24.704c-27.562667 0-49.877333-22.186667-49.877333-49.493334 0-27.306667 22.314667-49.450667 49.877333-49.450666z m-249.301333 0c17.834667 0 34.304 9.429333 43.178667 24.746666 8.96 15.317333 8.96 34.133333 0 49.493334a49.92 49.92 0 0 1-43.178667 24.704c-27.52 0-49.834667-22.186667-49.834667-49.493334 0-27.306667 22.314667-49.450667 49.834667-49.450666zM157.610667 85.333333c70.058667 0 113.92 53.034667 134.144 148.394667h502.613333a186.069333 186.069333 0 0 1 186.794667 192.597333l-0.298667 6.144-0.512 6.186667-18.346667 173.141333c-9.6 89.6-82.602667 159.445333-173.226666 165.632l-6.144 0.341334-6.570667 0.128h-328.96c-90.794667-0.085333-168.448-64.810667-184.149333-153.514667l-0.981334-6.101333-0.853333-6.485334-10.24-96.554666-0.426667-1.664-0.554666-3.541334-28.416-246.101333c-12.586667-74.581333-34.773333-104.405333-63.872-104.405333h-5.973334l-15.232 0.341333-11.477333 0.554667-7.424 0.682666v3.413334c0 2.944 0.128 5.845333 0.426667 8.746666a37.162667 37.162667 0 0 1-33.408 40.661334 37.333333 37.333333 0 0 1-41.002667-33.152 157.184 157.184 0 0 1-0.853333-16.213334c0-56.064 23.765333-75.221333 89.856-78.677333l12.074666-0.426667L157.568 85.333333h0.042667zM794.453333 307.925333H304.085333l31.36 295.381334 0.597334 5.12a111.829333 111.829333 0 0 0 105.642666 95.146666l5.418667 0.128h328.234667l5.12-0.085333a111.872 111.872 0 0 0 106.453333-94.293333l0.682667-5.290667 18.346666-172.416 0.384-4.864a111.573333 111.573333 0 0 0-100.181333-118.186667l-5.845333-0.426666-5.888-0.170667z m-108.074666 259.712l3.626666 0.170667a37.205333 37.205333 0 0 1 33.792 36.949333 37.205333 37.205333 0 0 1-33.792 36.906667l-3.626666 0.170667h-149.546667l-3.584-0.170667a37.205333 37.205333 0 0 1-33.792-36.906667c0-19.114667 14.634667-35.072 33.792-36.949333l3.584-0.170667h149.546667z" /></svg>