<?xml version="1.0" standalone="no"?><!DOCTYPE svg PUBLIC "-//W3C//DTD SVG 1.1//EN" "http://www.w3.org/Graphics/SVG/1.1/DTD/svg11.dtd"><svg class="icon" width="128px" height="128.00px" viewBox="0 0 1024 1024" version="1.1" xmlns="http://www.w3.org/2000/svg"><path fill="#666666" d="M938.666667 460.8l-110.08-275.2a73.386667 73.386667 0 0 0-68.693334-46.933333H264.106667a73.386667 73.386667 0 0 0-68.693334 46.933333L87.466667 460.8a32.853333 32.853333 0 0 0 2.56 28.16 170.666667 170.666667 0 0 0 88.746666 71.253333V810.666667a73.386667 73.386667 0 0 0 73.386667 73.386666h176.64a32 32 0 0 0 32-30.72v-142.933333h102.4V853.333333a32 32 0 0 0 32 32h176.64A73.386667 73.386667 0 0 0 845.226667 810.666667v-251.733334a168.106667 168.106667 0 0 0 88.746666-71.253333 32.853333 32.853333 0 0 0 4.693334-26.88zM781.226667 810.666667a9.386667 9.386667 0 0 1-9.386667 9.386666H627.2V678.4a32 32 0 0 0-32-32h-166.4a32 32 0 0 0-32 32v142.933333H252.16a9.386667 9.386667 0 0 1-9.386667-10.666666v-240.213334a153.6 153.6 0 0 0 37.546667-5.973333 170.666667 170.666667 0 0 0 91.733333-64 170.666667 170.666667 0 0 0 276.48 0 170.666667 170.666667 0 0 0 91.733334 64 157.013333 157.013333 0 0 0 37.546666 5.973333z m26.026666-307.2a79.36 79.36 0 0 1-17.92 2.133333 105.386667 105.386667 0 0 1-98.133333-66.133333 44.8 44.8 0 0 0-40.106667-26.026667 42.666667 42.666667 0 0 0-42.666666 27.306667 106.24 106.24 0 0 1-195.84 0 42.666667 42.666667 0 0 0-40.106667-26.453334 45.226667 45.226667 0 0 0-42.666667 27.306667 96.853333 96.853333 0 0 1-15.786666 26.453333 105.813333 105.813333 0 0 1-81.493334 37.973334 79.36 79.36 0 0 1-17.92-2.133334A104.533333 104.533333 0 0 1 153.6 469.333333L256 208.64a9.813333 9.813333 0 0 1 8.96-5.973333h494.933333a9.813333 9.813333 0 0 1 8.96 5.973333L870.4 469.333333a106.24 106.24 0 0 1-63.146667 35.413334z" /></svg>