<?xml version="1.0" standalone="no"?><!DOCTYPE svg PUBLIC "-//W3C//DTD SVG 1.1//EN" "http://www.w3.org/Graphics/SVG/1.1/DTD/svg11.dtd"><svg class="icon" width="128px" height="128.00px" viewBox="0 0 1024 1024" version="1.1" xmlns="http://www.w3.org/2000/svg"><path fill="#666666" d="M557.866667 85.333333a159.274667 159.274667 0 0 1 158.293333 139.050667 183.594667 183.594667 0 0 1 165.973333 148.650667l1.024 6.101333 53.418667 349.184a182.058667 182.058667 0 0 1-39.424 143.146667 184.405333 184.405333 0 0 1-133.290667 66.986666l-9.216 0.213334H312.021333a184.576 184.576 0 0 1-136.533333-60.202667 182.144 182.144 0 0 1-46.549333-141.013333l1.152-9.130667L183.466667 379.136A183.552 183.552 0 0 1 350.506667 224.426667a159.146667 159.146667 0 0 1 152.576-138.965334L508.8 85.333333h49.066667z m143.36 211.584h-335.786667a110.250667 110.250667 0 0 0-108.288 88.064l-0.896 5.162667-53.376 349.184a109.226667 109.226667 0 0 0 23.722667 86.016 110.634667 110.634667 0 0 0 80.213333 40.064l5.205333 0.128h442.624c31.274667 0 61.056-13.226667 82.005334-36.266667a109.226667 109.226667 0 0 0 27.818666-84.821333l-0.682666-5.12-53.376-349.184a110.165333 110.165333 0 0 0-103.936-93.098667l-5.248-0.128z m-47.744 354.133334a36.394667 36.394667 0 0 1 3.626666 49.066666l-2.346666 2.645334-2.858667 2.986666-57.856 57.429334c-32.213333 32.042667-84.053333 33.450667-118.016 3.242666l-3.413333-3.242666-58.496-58.069334-2.218667-2.346666a36.394667 36.394667 0 0 1-0.042667-50.517334 36.992 36.992 0 0 1 50.773334-2.389333l2.56 2.474667 1.621333 1.706666 57.813333 57.429334a12.330667 12.330667 0 0 0 15.658667 1.450666l1.706667-1.450666 57.173333-56.789334 2.304-2.346666a36.992 36.992 0 0 1 52.053333-1.28zM557.866667 158.464h-49.066667c-31.445333 0-58.965333 16.853333-73.941333 41.856l-2.346667 4.266667-1.322667 2.645333h204.245334l-0.981334-2.133333c-13.013333-25.344-37.930667-42.624-66.389333-45.994667l-5.461333-0.512-4.736-0.128z" /></svg>