<?xml version="1.0" standalone="no"?><!DOCTYPE svg PUBLIC "-//W3C//DTD SVG 1.1//EN" "http://www.w3.org/Graphics/SVG/1.1/DTD/svg11.dtd"><svg class="icon" width="128px" height="128.00px" viewBox="0 0 1024 1024" version="1.1" xmlns="http://www.w3.org/2000/svg"><path fill="#666666" d="M965.9504 514.112l-432.2928-432.288a30.5664 30.5664 0 0 0-43.3728 0c-0.1056 0.1056-0.168 0.2352-0.2736 0.3408-0.1056 0.1008-0.2352 0.168-0.336 0.2688L57.392 514.112l-0.1536 0.1536a30.5616 30.5616 0 0 0 0.1536 43.2192 31.176 31.176 0 0 0 43.4352 0l411.1296-410.5488 410.5536 410.5488a30.696 30.696 0 0 0 43.44-43.3728zM725.5856 212.6864h91.752v91.1424a29.9616 29.9616 0 0 0 30.6288 30.4992 30.5616 30.5616 0 0 0 30.4992-30.5616V181.4528a29.952 29.952 0 0 0-30.5664-30.4992c-2.0832 0-4.1088 0.2112-6.0816 0.6096h-116.2368a29.952 29.952 0 0 0-30.5616 30.5616 30.5664 30.5664 0 0 0 30.5664 30.5616zM847.9664 518.384a31.1712 31.1712 0 0 0-30.6288 30.4992v336.3264h-183.384v-75.4032l-0.0048-5.5008c-0.2784-12.2496-7.8816-19.9248-18.5136-22.9344a30.2928 30.2928 0 0 0-12.6576-3.0816H419.3408l-0.5568 0.0048a29.952 29.952 0 0 0-29.4 30.4992l-0.0624 0.0624c0 0.408 0.0432 0.7968 0.0624 1.2v75.1584H206v-336.2688a30.5952 30.5952 0 0 0-61.1904 0v366.8256a30.6 30.6 0 0 0 30.5952 30.6c0.2256 0 0.4368-0.0288 0.6624-0.0336h243.9408a29.952 29.952 0 0 0 30.504-30.624l-0.0144-0.3216c0-0.0768 0.0144-0.1488 0.0144-0.2304V839.36h122.3184v75.8016l0.0048 0.4752-0.0048 0.1344a30.5616 30.5616 0 0 0 30.4992 30.5664h244.2768c0.1008 0 0.1872 0.0144 0.2832 0.0144 0.1056 0 0.2016-0.0144 0.3072-0.0144a29.9472 29.9472 0 0 0 30.2688-30.432l0.0048-0.1056v-366.8544a31.176 31.176 0 0 0-30.504-30.5616zM526.9184 539.72c-40.44-0.8736-73.9392 31.2-74.8128 71.6448-0.8736 40.44 31.2048 73.9392 71.6448 74.8128 40.44 0.8784 73.9392-31.2048 74.8128-71.6448 0.8784-40.44-31.2048-73.9344-71.6448-74.8128z m-2.112 97.632a24.4176 24.4176 0 0 1-23.8848-24.9264 24.4176 24.4176 0 0 1 24.936-23.88 24.4128 24.4128 0 0 1-1.0512 48.8064zM718.5584 463.52a244.2288 244.2288 0 0 0-53.1264-49.992 24.4128 24.4128 0 1 0-27.9792 39.9312 195.2208 195.2208 0 0 1 42.3456 40.7232 24.4176 24.4176 0 0 0 38.5008-29.9328l0.2592-0.7296z m38.7168 73.1184a24.408 24.408 0 0 0-29.8032-17.4288 24.4128 24.4128 0 0 0-16.4496 32.7936 195.1296 195.1296 0 0 1 9.5904 65.1696 24.4032 24.4032 0 0 0 23.8992 24.912 24.4128 24.4128 0 0 0 24.9168-23.8608 244.3296 244.3296 0 0 0-12.1536-81.5856zM602.192 379.784l0.0384-0.1008a244.824 244.824 0 0 0-77.8896-12.7056c-124.7904 0-227.7264 93.2688-243.0912 213.888l-0.336 0.5616-7.8816-8.232a24.4176 24.4176 0 0 0-34.4304 33.936l47.76 49.872a24.408 24.408 0 0 0 34.416 0.744l49.8768-47.7552a24.4224 24.4224 0 0 0-33.672-35.1744l-7.2144 6.2016s-0.6192-0.5232-1.6992-1.4016c15.5136-94.44 97.4448-166.512 196.2816-166.512 22.008 0 43.1616 3.6288 62.9568 10.224l0.0576-0.168a22.8576 22.8576 0 0 0 8.4912 1.6656 23.0256 23.0256 0 0 0 23.0256-23.0208c-0.0096-10.4928-7.08-19.2528-16.6896-22.0224z" /></svg>