<?xml version="1.0" standalone="no"?><!DOCTYPE svg PUBLIC "-//W3C//DTD SVG 1.1//EN" "http://www.w3.org/Graphics/SVG/1.1/DTD/svg11.dtd"><svg class="icon" width="128px" height="128.00px" viewBox="0 0 1024 1024" version="1.1" xmlns="http://www.w3.org/2000/svg"><path fill="#666666" d="M905.75 455.75c-5.625 0-11.33789063-1.66992188-16.34765625-5.2734375L512 180.91601562 134.59765625 450.4765625c-12.65625 8.96484375-30.234375 6.06445313-39.19921875-6.59179688-9.05273438-12.65625-6.06445313-30.234375 6.59179688-39.19921874l393.74999999-281.25000001c9.75585938-6.94335938 22.93945313-6.94335938 32.69531251 1e-8l393.74999999 281.24999999c12.65625 9.05273438 15.55664063 26.63085938 6.59179688 39.19921876-5.625 7.734375-14.23828125 11.86523438-23.02734375 11.86523437zM596.375 905.75H427.625c-15.55664063 0-28.125-12.56835938-28.125-28.125V624.5c0-15.55664063 12.56835938-28.125 28.125-28.125h168.75c15.55664063 0 28.125 12.56835938 28.125 28.125v253.125c0 15.55664063-12.56835938 28.125-28.125 28.125z m-140.625-56.25h112.5V652.625H455.75v196.875zM793.25 905.75H230.75c-46.49414063 0-84.375-37.88085938-84.375-84.375V399.5c0-15.55664063 12.56835938-28.125 28.125-28.125s28.125 12.56835938 28.125 28.125v421.875c0 15.46875 12.65625 28.125 28.125 28.125h562.5c15.46875 0 28.125-12.65625 28.125-28.125V399.5c0-15.55664063 12.56835938-28.125 28.125-28.125s28.125 12.56835938 28.125 28.125v421.875c0 46.49414063-37.88085938 84.375-84.375 84.375z" /></svg>