<?xml version="1.0" standalone="no"?><!DOCTYPE svg PUBLIC "-//W3C//DTD SVG 1.1//EN" "http://www.w3.org/Graphics/SVG/1.1/DTD/svg11.dtd"><svg class="icon" width="128px" height="128.00px" viewBox="0 0 1024 1024" version="1.1" xmlns="http://www.w3.org/2000/svg"><path fill="#666666" d="M647.1 665.11c10.88 12.86 9.28 32.1-3.58 42.98-37.31 31.57-78.05 47.88-121.36 47.88s-84.05-16.31-121.38-47.88a30.513 30.513 0 0 1-10.3-28.72 30.497 30.497 0 0 1 19.72-23.28 30.499 30.499 0 0 1 30.02 5.44c26.69 22.63 53.71 33.44 81.93 33.44 28.2 0 55.22-10.82 81.93-33.44a30.515 30.515 0 0 1 22.24-7.12c8.08 0.67 15.55 4.52 20.78 10.7zM934.19 386.74L553.05 79.27c-23.93-19.41-58.19-19.41-82.12 0L89.8 386.72c-15.86 12.81-25.09 32.27-25.09 52.86l0.1 3.82c1.67 30.37 23.08 55.38 51.38 61.91l2.34 0.47 0.02 344.53 0.1 4.8c2.91 58.61 49.81 104.18 106.84 104.18H798.5l4.72-0.1 4.51-0.35c55.32-5.14 97.71-51.95 97.71-108.53l-0.02-344.53 3.54-0.77a66.073 66.073 0 0 0 36.03-23.6c22.69-29.2 17.85-71.57-10.8-94.67zM897.09 443c-1.08 1.36-2.68 2.15-4.39 2.15h-17.93c-16.71 0-30.25 13.83-30.25 30.9v374.87c0 25.23-19.38 46.03-43.94 47.29l-3.17 0.08H225.82c-24.7 0-45.05-19.82-46.29-44.93l-0.06-3.23v-374.1c0-17.06-13.54-30.9-30.25-30.88h-17.93c-3.09 0-5.59-2.56-5.59-5.73 0-1.73 0.77-3.37 2.11-4.47l380.74-308a5.493 5.493 0 0 1 6.91 0l380.72 308.02a5.821 5.821 0 0 1 0.91 8.03z" /></svg>