<?xml version="1.0" standalone="no"?><!DOCTYPE svg PUBLIC "-//W3C//DTD SVG 1.1//EN" "http://www.w3.org/Graphics/SVG/1.1/DTD/svg11.dtd"><svg class="icon" width="128px" height="128.00px" viewBox="0 0 1024 1024" version="1.1" xmlns="http://www.w3.org/2000/svg"><path fill="#666666" d="M810.666667 597.333333a31.573333 31.573333 0 0 0-42.666667 0 32 32 0 0 0 0 42.666667l63.573333 63.146667h-95.573333a192.426667 192.426667 0 0 1-192-192 256 256 0 0 0-256-256H85.333333A32 32 0 0 0 85.333333 320h202.666667a192.426667 192.426667 0 0 1 192 192 256 256 0 0 0 256 256h93.44L768 831.573333a32 32 0 0 0 0 45.226667 31.573333 31.573333 0 0 0 22.613333 9.386667 31.146667 31.146667 0 0 0 22.613334-9.386667l118.186666-118.186667a32 32 0 0 0 0-45.226666zM569.173333 394.666667A33.28 33.28 0 0 0 593.066667 384a190.72 190.72 0 0 1 142.933333-64h93.44L768 384a32 32 0 0 0 0 42.666667 31.573333 31.573333 0 0 0 22.613333 9.386666A31.146667 31.146667 0 0 0 810.666667 426.666667l118.186666-117.76a32 32 0 0 0 0-45.226667L810.666667 147.2a32 32 0 0 0-42.666667 45.226667L829.44 256h-93.44a256 256 0 0 0-190.72 85.333333 32 32 0 0 0 2.56 45.226667 33.28 33.28 0 0 0 21.333333 8.106667zM431.36 640a193.706667 193.706667 0 0 1-143.36 64H85.333333A32 32 0 0 0 85.333333 768h202.666667a256 256 0 0 0 190.72-85.333333 32 32 0 0 0-2.56-45.226667 31.146667 31.146667 0 0 0-44.8 2.56z" /></svg>