<?xml version="1.0" standalone="no"?><!DOCTYPE svg PUBLIC "-//W3C//DTD SVG 1.1//EN" "http://www.w3.org/Graphics/SVG/1.1/DTD/svg11.dtd"><svg class="icon" width="128px" height="128.00px" viewBox="0 0 1024 1024" version="1.1" xmlns="http://www.w3.org/2000/svg"><path fill="#666666" d="M471.466667 757.333333a59.306667 59.306667 0 0 1-22.186667-4.693333l-188.586667-85.333333H138.666667A53.333333 53.333333 0 0 1 85.333333 612.693333V411.306667a53.333333 53.333333 0 0 1 53.333334-53.333334h123.306666l187.306667-85.333333a54.613333 54.613333 0 0 1 51.2 3.84 52.48 52.48 0 0 1 24.32 42.666667v384a52.48 52.48 0 0 1-24.32 44.8 54.613333 54.613333 0 0 1-29.013333 9.386666z m4.693333-63.146666zM149.333333 602.026667h113.493334a52.906667 52.906667 0 0 1 22.613333 5.12l175.36 80.213333V336.64L285.44 416.853333a18.346667 18.346667 0 0 1-6.826667 2.133334H149.333333z m109.226667 63.146666zM791.04 823.04a31.146667 31.146667 0 0 1-22.613333-9.386667A31.573333 31.573333 0 0 1 768 768a363.52 363.52 0 0 0 0-512 31.573333 31.573333 0 0 1 0-45.226667 32 32 0 0 1 45.226667 0 426.666667 426.666667 0 0 1 0 603.306667 31.573333 31.573333 0 0 1-22.186667 8.96zM669.44 702.293333a31.573333 31.573333 0 0 1-22.613333-9.386666 32 32 0 0 1 0-45.226667 191.573333 191.573333 0 0 0 0-271.36 32 32 0 0 1 0-45.226667 31.573333 31.573333 0 0 1 45.226666 0 256 256 0 0 1 0 361.813334 30.293333 30.293333 0 0 1-22.613333 9.386666z" /></svg>