<?xml version="1.0" standalone="no"?><!DOCTYPE svg PUBLIC "-//W3C//DTD SVG 1.1//EN" "http://www.w3.org/Graphics/SVG/1.1/DTD/svg11.dtd"><svg class="icon" width="128px" height="128.00px" viewBox="0 0 1024 1024" version="1.1" xmlns="http://www.w3.org/2000/svg"><path fill="#666666" d="M938.666667 512a431.36 431.36 0 0 0-120.32-298.666667 426.666667 426.666667 0 0 0-298.666667-128H471.04a393.813333 393.813333 0 0 0-50.773333 8.533334l-18.346667 4.693333c-10.24 2.986667-20.48 5.546667-30.293333 9.386667l-21.76 8.533333-25.6 11.52a228.693333 228.693333 0 0 0-22.613334 11.946667l-20.48 12.373333a256 256 0 0 0-22.186666 18.346667l-17.493334 13.653333c-7.253333 5.973333-14.506667 11.946667-21.333333 18.346667l-14.933333 15.36c-6.826667 6.826667-13.226667 13.653333-19.626667 20.906666s-9.813333 11.093333-14.933333 17.066667-10.666667 13.653333-15.36 20.906667A419.413333 419.413333 0 0 0 85.333333 512v29.013333a426.666667 426.666667 0 0 0 185.173334 322.133334l2.56 2.133333a440.32 440.32 0 0 0 42.666666 25.6 369.066667 369.066667 0 0 0 42.666667 17.92l10.24 3.84c11.946667 3.84 24.32 7.68 36.693333 10.666667l11.52 2.56A446.72 446.72 0 0 0 469.333333 938.666667c14.08 0 28.586667 2.133333 42.666667 2.133333a426.666667 426.666667 0 0 0 288.426667-111.786667A429.653333 429.653333 0 0 0 938.666667 512z m-173.226667 258.986667a374.613333 374.613333 0 0 1-213.333333-60.16 363.946667 363.946667 0 0 0-191.573334-59.306667c0-8.533333-4.693333-17.066667-6.4-25.6 23.893333 2.133333 48.213333 3.413333 72.533334 3.413333a878.506667 878.506667 0 0 0 447.573333-122.026666V512a364.373333 364.373333 0 0 1-108.8 258.986667zM384 853.333333c-11.52-4.693333-23.04-9.386667-34.133333-14.933333h-3.413334a377.6 377.6 0 0 1-35.84-21.333333h-2.56a54.186667 54.186667 0 0 1-20.053333-60.16 52.053333 52.053333 0 0 1 27.306667-32.853334A597.333333 597.333333 0 0 0 387.413333 853.333333z m-234.666667-336.213333V512a341.333333 341.333333 0 0 1 7.253334-69.546667 165.12 165.12 0 0 0 121.173333 57.173334v50.773333a768 768 0 0 1-128.426667-33.28z m59.733334-204.373333c3.84-5.973333 8.106667-11.093333 12.373333-17.066667s8.533333-11.52 13.226667-17.066667 10.666667-11.946667 16.213333-17.493333 8.533333-9.386667 13.226667-13.653333l17.92-15.36 16.64-11.946667 18.773333-12.8c5.546667-3.84 11.52-7.253333 17.493333-10.666667l19.2-10.24 20.48-8.96 11.52-6.826666a578.133333 578.133333 0 0 0-102.826666 263.68c-65.28-6.4-79.36-34.986667-85.333334-44.8a79.786667 79.786667 0 0 1 8.533334-75.946667z m625.493333 33.706666c2.986667 5.973333 5.546667 12.373333 8.533333 18.773334s8.533333 20.053333 11.946667 30.293333 4.266667 14.506667 5.973333 21.333333a165.546667 165.546667 0 0 1 4.693334 20.906667 810.666667 810.666667 0 0 1-439.04 128 762.88 762.88 0 0 1-82.773334-4.693333A446.72 446.72 0 0 1 341.333333 512v-12.8a389.12 389.12 0 0 0 231.68-121.6c58.88-52.906667 114.773333-102.826667 207.786667-107.52a348.586667 348.586667 0 0 1 25.6 30.72c3.413333 4.693333 6.4 10.24 9.386667 14.933333s13.226667 20.053333 18.773333 30.72z m-317.013333-196.693333a288.853333 288.853333 0 0 1 42.666666 3.413333c7.68 0 14.933333 2.56 22.186667 3.84a240.213333 240.213333 0 0 1 25.173333 5.973334l22.613334 6.826666c8.96 2.986667 17.92 6.826667 26.88 10.666667l12.373333 5.546667 5.973333 2.56h2.56c11.946667 6.4 23.893333 13.226667 35.413334 20.906666l4.266666 3.413334a433.92 433.92 0 0 0-187.306666 115.626666 341.333333 341.333333 0 0 1-183.04 104.96 515.84 515.84 0 0 1 139.093333-282.453333 216.32 216.32 0 0 1 23.466667 0z m130.986666 697.6l-16.64 6.4a309.333333 309.333333 0 0 1-42.666666 12.373333l-12.8 2.133334a344.746667 344.746667 0 0 1-36.693334 4.693333h-14.933333a375.893333 375.893333 0 0 1-37.973333 0A533.333333 533.333333 0 0 1 384 716.8a303.786667 303.786667 0 0 1 135.68 51.2 426.666667 426.666667 0 0 0 167.68 62.72l-9.386667 5.12c-9.813333 2.986667-19.2 7.68-29.44 11.52zM157.44 587.52a858.88 858.88 0 0 0 130.133333 30.293333c0 13.653333 5.12 26.88 8.533334 40.533334a112.64 112.64 0 0 0-68.693334 75.946666 355.413333 355.413333 0 0 1-69.973333-146.773333z" /></svg>