<?xml version="1.0" standalone="no"?><!DOCTYPE svg PUBLIC "-//W3C//DTD SVG 1.1//EN" "http://www.w3.org/Graphics/SVG/1.1/DTD/svg11.dtd"><svg class="icon" width="128px" height="128.00px" viewBox="0 0 1024 1024" version="1.1" xmlns="http://www.w3.org/2000/svg"><path fill="#666666" d="M834.816 515.285333a186.581333 186.581333 0 0 0 48.725333-124.714666C883.541333 292.096 810.496 213.333333 719.189333 213.333333c-18.261333 0-36.522667 19.712-36.522666 39.381334 0 19.712 18.261333 39.381333 36.522666 39.381333 48.682667 0 91.306667 45.952 91.306667 98.474667 0 52.48-42.624 98.474667-91.306667 98.474666-18.261333 0-36.522667 13.098667-36.522666 39.381334 0 26.24 18.261333 39.381333 36.522666 39.381333 103.466667 0 188.672 91.904 188.672 203.477333 0 19.669333 18.261333 39.381333 36.522667 39.381334s36.522667-19.712 36.522667-39.381334c6.101333-111.573333-54.784-210.048-146.090667-256zM563.541333 531.2c68.394667-47.274667 109.482667-121.6 109.482667-202.666667C673.024 193.408 563.541333 85.333333 426.666667 85.333333S180.309333 193.408 180.309333 328.533333c0 81.066667 41.088 155.392 109.482667 202.666667-136.832 54.058667-225.792 182.4-225.792 324.266667 0 20.266667 20.522667 40.533333 41.045333 40.533333s41.088-20.266667 41.088-40.533333c0-148.608 123.136-270.208 280.533334-270.208s280.576 121.6 280.576 270.208c0 20.266667 20.48 40.533333 41.045333 40.533333 20.48 0 41.045333-20.266667 41.045333-40.533333 0-141.866667-88.96-270.208-225.792-324.266667zM426.666667 166.4c88.96 0 164.266667 74.325333 164.266666 162.133333s-68.48 162.133333-164.266666 162.133334-164.266667-74.325333-164.266667-162.133334S337.749333 166.4 426.666667 166.4z" /></svg>