<?xml version="1.0" standalone="no"?><!DOCTYPE svg PUBLIC "-//W3C//DTD SVG 1.1//EN" "http://www.w3.org/Graphics/SVG/1.1/DTD/svg11.dtd"><svg class="icon" width="128px" height="128.00px" viewBox="0 0 1024 1024" version="1.1" xmlns="http://www.w3.org/2000/svg"><path fill="#666666" d="M938.666667 408.746667a31.573333 31.573333 0 0 0-25.6-21.76l-256-37.12-116.48-232.106667a33.28 33.28 0 0 0-57.173334 0L368.64 349.866667l-256 37.12a32 32 0 0 0-17.493333 54.613333l185.173333 180.48-42.666667 256a32 32 0 0 0 46.506667 33.706667L512 790.613333l229.12 120.32a30.72 30.72 0 0 0 33.706667-2.56 32.426667 32.426667 0 0 0 12.8-31.146666l-42.666667-256 185.173333-180.48a31.573333 31.573333 0 0 0 8.533334-32z m-251.733334 179.626666a30.293333 30.293333 0 0 0-8.96 28.16l35.413334 207.786667L526.933333 725.333333a31.146667 31.146667 0 0 0-29.866666 0l-186.453334 98.133334 35.413334-207.786667a30.293333 30.293333 0 0 0-8.96-28.16l-151.04-146.346667 208.64-30.293333a32 32 0 0 0 23.893333-17.493333L512 204.373333l93.44 189.013334a32 32 0 0 0 23.893333 17.493333l208.64 30.293333z" /></svg>