<?xml version="1.0" standalone="no"?><!DOCTYPE svg PUBLIC "-//W3C//DTD SVG 1.1//EN" "http://www.w3.org/Graphics/SVG/1.1/DTD/svg11.dtd"><svg class="icon" width="128px" height="128.00px" viewBox="0 0 1024 1024" version="1.1" xmlns="http://www.w3.org/2000/svg"><path fill="#666666" d="M821.333333 78.506667H202.666667A117.333333 117.333333 0 0 0 85.333333 195.84v618.666667a117.333333 117.333333 0 0 0 117.333334 117.333333h341.333333A395.093333 395.093333 0 0 0 938.666667 537.6v-341.333333a117.333333 117.333333 0 0 0-117.333334-117.76zM149.333333 814.506667V195.84a53.333333 53.333333 0 0 1 53.333334-53.333333h618.666666a53.333333 53.333333 0 0 1 53.333334 53.333333v295.68a298.666667 298.666667 0 0 1-116.906667 68.693333 308.053333 308.053333 0 0 0-112.213333 67.84 56.746667 56.746667 0 0 0 0-8.533333l-13.653334-79.786667 57.6-56.32a42.666667 42.666667 0 0 0 10.666667-42.666666 42.666667 42.666667 0 0 0-34.133333-29.013334l-80.213334-11.946666-35.413333-72.96a42.666667 42.666667 0 0 0-76.8 0l-35.413333 72.106666-80.213334 11.946667a42.666667 42.666667 0 0 0-34.133333 29.013333 42.666667 42.666667 0 0 0 10.666667 42.666667l57.6 56.32-13.653334 79.786667a42.666667 42.666667 0 0 0 62.293334 44.8l71.253333-36.693334 71.68 37.546667a39.68 39.68 0 0 0 19.626667 5.12 42.666667 42.666667 0 0 0 7.253333 0 298.666667 298.666667 0 0 0-42.666667 83.2 487.253333 487.253333 0 0 1-62.293333 116.48h-302.933333a53.333333 53.333333 0 0 1-53.333334-54.613333z m426.666667-226.986667L512 554.666667l-63.146667 32.853333 12.373334-69.973333L410.026667 469.333333l70.4-10.24 31.573333-65.28 31.573333 64 70.4 10.24-51.2 49.493334z m7.253333 278.186667a478.293333 478.293333 0 0 0 45.226667-94.293334 239.36 239.36 0 0 1 150.613333-150.613333 391.253333 391.253333 0 0 0 93.866667-45.226667 330.666667 330.666667 0 0 1-290.56 290.133334z" /></svg>