<?xml version="1.0" standalone="no"?><!DOCTYPE svg PUBLIC "-//W3C//DTD SVG 1.1//EN" "http://www.w3.org/Graphics/SVG/1.1/DTD/svg11.dtd"><svg class="icon" width="128px" height="128.00px" viewBox="0 0 1024 1024" version="1.1" xmlns="http://www.w3.org/2000/svg"><path fill="#666666" d="M511.957333 42.666667C252.714667 42.666667 42.581333 252.8 42.581333 512s210.133333 469.333333 469.376 469.333333S981.333333 771.2 981.333333 512 771.2 42.666667 511.957333 42.666667z m0 80.469333a388.906667 388.906667 0 1 1 0 777.728 388.906667 388.906667 0 1 1 0-777.728zM297.344 512a53.632 53.632 0 1 0 107.306667 0 53.632 53.632 0 0 0-107.264 0z m160.981333 0a53.632 53.632 0 1 0 107.221334 0 53.632 53.632 0 0 0-107.221334 0z m160.896 0a53.632 53.632 0 1 0 107.264 0 53.632 53.632 0 0 0-107.264 0z" /></svg>