<?xml version="1.0" standalone="no"?><!DOCTYPE svg PUBLIC "-//W3C//DTD SVG 1.1//EN" "http://www.w3.org/Graphics/SVG/1.1/DTD/svg11.dtd"><svg class="icon" width="128px" height="128.00px" viewBox="0 0 1024 1024" version="1.1" xmlns="http://www.w3.org/2000/svg"><path fill="#666666" d="M804.266667 263.68l26.88-27.306667 9.386666 9.386667a32.853333 32.853333 0 0 0 22.613334 9.386667 33.706667 33.706667 0 0 0 22.613333-9.386667 32 32 0 0 0 0-45.226667l-64-64a32 32 0 0 0-45.226667 45.226667l9.386667 9.386667-26.88 27.306666a386.986667 386.986667 0 0 0-128-72.106666V74.666667A32 32 0 0 0 597.333333 42.666667h-170.666666a32 32 0 0 0-32 32v71.68A384 384 0 1 0 896 512a381.013333 381.013333 0 0 0-91.733333-248.32z m-345.6-157.013333h106.666666v25.6a335.36 335.36 0 0 0-106.666666 0z m53.333333 725.333333a320 320 0 0 1-56.32-634.88h2.986667a305.493333 305.493333 0 0 1 106.666666 0h2.986667A320 320 0 0 1 512 832zM544 469.333333V373.333333A32.426667 32.426667 0 0 0 512 341.333333a32.426667 32.426667 0 0 0-32 32V469.333333a51.2 51.2 0 0 0-21.333333 42.666667 53.333333 53.333333 0 0 0 106.666666 0 51.2 51.2 0 0 0-21.333333-42.666667z" /></svg>