<?xml version="1.0" standalone="no"?><!DOCTYPE svg PUBLIC "-//W3C//DTD SVG 1.1//EN" "http://www.w3.org/Graphics/SVG/1.1/DTD/svg11.dtd"><svg class="icon" width="128px" height="128.00px" viewBox="0 0 1024 1024" version="1.1" xmlns="http://www.w3.org/2000/svg"><path fill="#666666" d="M511.957333 42.666667C771.2 42.666667 981.333333 252.8 981.333333 512s-210.133333 469.333333-469.376 469.333333S42.581333 771.2 42.581333 512 252.714667 42.666667 511.957333 42.666667z m0 80.469333a388.906667 388.906667 0 1 0 0 777.728 388.906667 388.906667 0 1 0 0-777.728z m236.416 261.248c14.677333 14.677333 15.786667 38.058667 2.602667 54.058667l-2.56 2.858666-204.885333 204.8a93.866667 93.866667 0 0 1-128.981334 3.541334l-3.754666-3.541334-113.834667-113.792a40.234667 40.234667 0 0 1 54.058667-59.477333l2.858666 2.56 113.792 113.834667a13.397333 13.397333 0 0 0 17.109334 1.536l1.877333-1.536 204.8-204.8a40.234667 40.234667 0 0 1 56.917333 0z" /></svg>