<?xml version="1.0" standalone="no"?><!DOCTYPE svg PUBLIC "-//W3C//DTD SVG 1.1//EN" "http://www.w3.org/Graphics/SVG/1.1/DTD/svg11.dtd"><svg class="icon" width="128px" height="128.00px" viewBox="0 0 1024 1024" version="1.1" xmlns="http://www.w3.org/2000/svg"><path fill="#666666" d="M512 314.88A197.12 197.12 0 1 0 709.546667 512 197.12 197.12 0 0 0 512 314.88z m0 330.24A133.12 133.12 0 1 1 645.546667 512 133.12 133.12 0 0 1 512 645.12zM512 247.893333a32 32 0 0 0 32-32V117.333333a32 32 0 0 0-64 0v98.56a32 32 0 0 0 32 32zM512 776.106667a32 32 0 0 0-32 32v98.56a32 32 0 0 0 64 0v-98.56a32 32 0 0 0-32-32zM906.666667 480h-98.56a32 32 0 0 0 0 64h98.56a32 32 0 0 0 0-64zM247.893333 512a32 32 0 0 0-32-32H117.333333a32 32 0 0 0 0 64h98.56a32 32 0 0 0 32-32zM721.493333 334.506667a31.573333 31.573333 0 0 0 22.613334-9.386667L813.653333 256a32 32 0 0 0 0-45.226667 32 32 0 0 0-45.226666 0l-69.546667 69.12a31.573333 31.573333 0 0 0 0 45.226667 30.293333 30.293333 0 0 0 22.613333 9.386667zM279.893333 698.88L210.346667 768a32 32 0 0 0 0 45.226667 32 32 0 0 0 45.226666 0l69.546667-69.546667a32 32 0 0 0-45.226667-45.226667zM279.893333 325.12a31.573333 31.573333 0 0 0 22.613334 9.386667 30.293333 30.293333 0 0 0 22.613333-9.386667 31.573333 31.573333 0 0 0 0-45.226667L256 210.346667a32 32 0 0 0-45.226667 0A32 32 0 0 0 210.346667 256zM744.106667 698.88a32 32 0 0 0-45.226667 45.226667L768 813.653333a32 32 0 0 0 45.226667 0 32 32 0 0 0 0-45.226666z" /></svg>