<?xml version="1.0" standalone="no"?><!DOCTYPE svg PUBLIC "-//W3C//DTD SVG 1.1//EN" "http://www.w3.org/Graphics/SVG/1.1/DTD/svg11.dtd"><svg class="icon" width="128px" height="128.00px" viewBox="0 0 1024 1024" version="1.1" xmlns="http://www.w3.org/2000/svg"><path fill="#666666" d="M888.746667 391.68l-128-128-128-128a174.08 174.08 0 0 0-240.64 0l-128 128-128 128a170.666667 170.666667 0 0 0 0 240.64l128 128 128 128a170.666667 170.666667 0 0 0 240.64 0l128-128 128-128a170.666667 170.666667 0 0 0 0-240.64zM436.906667 180.48a108.8 108.8 0 0 1 150.186666 0l105.386667 105.813333-76.8 76.8-32.426667-32.426666a101.12 101.12 0 0 0-142.506666 0l-32.426667 32.426666-76.8-76.8z m211.2 357.546667L593.066667 593.066667l-55.04 55.04a38.4 38.4 0 0 1-52.053334 0L430.933333 593.066667l-55.04-55.04a37.12 37.12 0 0 1 0-52.053334l55.04-55.04 55.04-55.04a38.4 38.4 0 0 1 52.053334 0l55.04 55.04 55.04 55.04a37.12 37.12 0 0 1 0 52.053334zM149.333333 512a105.813333 105.813333 0 0 1 31.146667-75.093333l105.813333-105.386667 76.8 76.8-32.426666 32.426667a101.12 101.12 0 0 0 0 142.506666l32.426666 32.426667-76.8 76.8-105.813333-105.386667A105.813333 105.813333 0 0 1 149.333333 512z m437.76 331.52a108.8 108.8 0 0 1-150.186666 0l-105.386667-105.813333 76.8-76.8 32.426667 32.426666a101.12 101.12 0 0 0 142.506666 0l32.426667-32.426666 76.8 76.8z m256-256l-105.813333 105.386667-76.8-76.8 32.426667-32.426667a101.12 101.12 0 0 0 0-142.506667l-32.426667-32.426666 76.8-76.8 105.813333 105.386666a106.24 106.24 0 0 1 0 150.186667z" /></svg>