<?xml version="1.0" standalone="no"?><!DOCTYPE svg PUBLIC "-//W3C//DTD SVG 1.1//EN" "http://www.w3.org/Graphics/SVG/1.1/DTD/svg11.dtd"><svg class="icon" width="128px" height="128.00px" viewBox="0 0 1024 1024" version="1.1" xmlns="http://www.w3.org/2000/svg"><path fill="#666666" d="M117.76 659.626667a32 32 0 0 1-32.426667-32V345.6a121.173333 121.173333 0 0 1 121.173334-121.6h375.893333a121.6 121.6 0 0 1 121.173333 121.6v216.746667H938.666667a32 32 0 0 1 0 64h-267.093334a32 32 0 0 1-32-32V345.6a57.6 57.6 0 0 0-57.173333-57.6H206.506667A57.6 57.6 0 0 0 149.76 345.6v282.026667a32 32 0 0 1-32 32zM938.666667 800H85.333333a32 32 0 0 1 0-64h853.333334a32 32 0 0 1 0 64z" /></svg>