<?xml version="1.0" standalone="no"?><!DOCTYPE svg PUBLIC "-//W3C//DTD SVG 1.1//EN" "http://www.w3.org/Graphics/SVG/1.1/DTD/svg11.dtd"><svg class="icon" width="128px" height="128.00px" viewBox="0 0 1024 1024" version="1.1" xmlns="http://www.w3.org/2000/svg"><path fill="#666666" d="M454.826667 938.666667a121.6 121.6 0 0 1-85.333334-35.84l-248.32-247.04a122.026667 122.026667 0 0 1 0-170.666667l361.813334-361.813333A122.026667 122.026667 0 0 1 597.333333 88.746667l199.253334 47.36a122.026667 122.026667 0 0 1 90.88 90.88L935.253333 426.666667a121.6 121.6 0 0 1-32.426666 114.773333l-361.813334 361.813333a121.6 121.6 0 0 1-86.186666 35.413334z m114.773333-789.333334a57.6 57.6 0 0 0-42.666667 17.066667L166.4 528.213333a58.026667 58.026667 0 0 0 0 82.346667l247.04 247.04a59.733333 59.733333 0 0 0 82.346667 0l361.813333-361.813333a57.6 57.6 0 0 0 15.36-54.613334l-47.36-199.68a58.453333 58.453333 0 0 0-42.666667-42.666666l-200.106666-47.786667a46.933333 46.933333 0 0 0-13.226667-1.706667zM684.8 426.666667a85.333333 85.333333 0 1 1 60.586667-25.173334 85.333333 85.333333 0 0 1-60.586667 25.173334z m0-106.666667a22.186667 22.186667 0 0 0-14.933333 5.973333 21.333333 21.333333 0 0 0 30.293333 30.293334 21.76 21.76 0 0 0 0-30.293334 23.04 23.04 0 0 0-15.36-8.106666z" /></svg>