<?xml version="1.0" standalone="no"?><!DOCTYPE svg PUBLIC "-//W3C//DTD SVG 1.1//EN" "http://www.w3.org/Graphics/SVG/1.1/DTD/svg11.dtd"><svg class="icon" width="128px" height="128.00px" viewBox="0 0 1024 1024" version="1.1" xmlns="http://www.w3.org/2000/svg"><path fill="#666666" d="M938.666667 480h-55.04a372.906667 372.906667 0 0 0-341.333334-341.333333V85.333333a32 32 0 0 0-64 0v55.04a372.906667 372.906667 0 0 0-341.333333 341.333334H85.333333a32 32 0 0 0 0 64h55.04a372.906667 372.906667 0 0 0 341.333334 341.333333V938.666667a32 32 0 0 0 64 0v-55.04a372.906667 372.906667 0 0 0 341.333333-341.333334H938.666667a32 32 0 0 0 0-64z m-394.666667 341.333333V768a32 32 0 0 0-64 0v51.626667a309.76 309.76 0 0 1-275.626667-275.626667H256a32 32 0 0 0 0-64H204.373333a309.76 309.76 0 0 1 275.626667-275.626667V256a32 32 0 0 0 64 0V204.373333a309.76 309.76 0 0 1 275.626667 275.626667H768a32 32 0 0 0 0 64h51.626667a309.76 309.76 0 0 1-275.626667 275.626667zM512 373.333333A138.666667 138.666667 0 1 0 650.666667 512 139.093333 139.093333 0 0 0 512 373.333333z m0 213.333334A74.666667 74.666667 0 1 1 586.666667 512 75.093333 75.093333 0 0 1 512 586.666667z" /></svg>