<?xml version="1.0" standalone="no"?><!DOCTYPE svg PUBLIC "-//W3C//DTD SVG 1.1//EN" "http://www.w3.org/Graphics/SVG/1.1/DTD/svg11.dtd"><svg class="icon" width="128px" height="128.00px" viewBox="0 0 1024 1024" version="1.1" xmlns="http://www.w3.org/2000/svg"><path fill="#666666" d="M624.213333 475.306667l-134.826666 145.493333-74.24-80.213333a32 32 0 0 0-45.226667 0 32 32 0 0 0 0 45.226666l97.706667 105.386667a32.853333 32.853333 0 0 0 23.466666 10.24 32.426667 32.426667 0 0 0 23.466667-10.24l158.293333-170.666667a32 32 0 0 0-46.933333-42.666666zM737.28 198.4h-22.613333v-2.56a53.333333 53.333333 0 0 0-53.333334-52.906667h-36.266666a117.76 117.76 0 0 0-226.133334 0H362.666667a53.333333 53.333333 0 0 0-53.333334 52.906667v2.56h-22.613333a128 128 0 0 0-128 128v513.28a128 128 0 0 0 128 128h450.56a128 128 0 0 0 128-128V325.12a128 128 0 0 0-128-126.72z m-363.946667 8.533333H426.666667a32.426667 32.426667 0 0 0 32-32 53.333333 53.333333 0 0 1 106.666666 0 32.426667 32.426667 0 0 0 32 32h53.333334v64h-277.333334v-64z m426.666667 632.746667a62.72 62.72 0 0 1-62.293333 62.72H286.72a62.72 62.72 0 0 1-62.293333-62.72V325.12a62.72 62.72 0 0 1 62.293333-62.72h22.613333v40.533333a32.426667 32.426667 0 0 0 32 32h341.333334a32.426667 32.426667 0 0 0 32-32v-40.533333h22.613333a62.72 62.72 0 0 1 62.293333 62.72z" /></svg>