<?xml version="1.0" standalone="no"?><!DOCTYPE svg PUBLIC "-//W3C//DTD SVG 1.1//EN" "http://www.w3.org/Graphics/SVG/1.1/DTD/svg11.dtd"><svg class="icon" width="128px" height="128.00px" viewBox="0 0 1024 1024" version="1.1" xmlns="http://www.w3.org/2000/svg"><path fill="#666666" d="M452.821333 180.864a176.64 176.64 0 0 1 111.061334-2.389333l7.168 2.389333 356.693333 126.805333a79.616 79.616 0 0 1 51.456 93.141334l0.085333 1.706666v216.832c0 18.218667-14.592 33.28-33.109333 34.133334a34.56 34.56 0 0 1-36.266667-30.848l-0.170666-3.285334V464.213333l-61.610667 21.888v230.229334c0 96.341333-69.461333 176.426667-158.592 179.541333l-5.333333 0.085333H339.712c-89.856 0-161.066667-78.208-163.84-173.866666l-0.085333-5.76v-230.229334l-79.616-28.288a79.530667 79.530667 0 0 1-50.133334-98.090666l1.408-4.138667A80.384 80.384 0 0 1 91.733333 309.418667l4.437334-1.706667 356.693333-126.848z m325.76 330.026667l-207.488 73.813333a176.64 176.64 0 0 1-111.061333 2.389333l-7.168-2.389333-207.530667-73.813333v205.482666c0 60.586667 40.96 108.373333 90.026667 111.061334l4.352 0.128h344.490667c49.536 0 91.904-46.08 94.293333-105.898667l0.085333-5.290667v-205.482666zM547.413333 245.205333a105.941333 105.941333 0 0 0-65.152-1.877333l-5.76 1.877333-356.693333 126.848a11.349333 11.349333 0 1 0-1.92 20.565334l1.92 0.853333 356.693333 126.848c20.906667 7.466667 43.776 8.106667 65.152 1.877333l5.76-1.877333 356.693334-126.805333a11.349333 11.349333 0 0 0 1.92-20.608l-1.92-0.853334-356.693334-126.848z" /></svg>