<?xml version="1.0" standalone="no"?><!DOCTYPE svg PUBLIC "-//W3C//DTD SVG 1.1//EN" "http://www.w3.org/Graphics/SVG/1.1/DTD/svg11.dtd"><svg class="icon" width="128px" height="128.00px" viewBox="0 0 1024 1024" version="1.1" xmlns="http://www.w3.org/2000/svg"><path fill="#666666" d="M941.141333 128a40.106667 40.106667 0 0 1 40.106667 37.973333 39.978667 39.978667 0 0 1-36.266667 41.557334l-3.84 0.170666h-67.072v451.754667c0 107.264-85.674667 195.285333-193.834666 199.168l11.946666 11.818667c15.317333 15.018667 16 39.338667 1.493334 55.168a40.533333 40.533333 0 0 1-55.594667 3.84l-2.858667-2.602667-68.693333-68.053333h-109.226667L388.693333 926.805333a40.533333 40.533333 0 0 1-55.381333 1.237334 39.594667 39.594667 0 0 1-4.096-54.741334l2.56-2.858666 11.946667-11.818667c-105.6-3.797333-190.250667-87.893333-193.706667-192.597333l-0.128-6.570667V207.701333H82.773333A40.106667 40.106667 0 0 1 42.666667 169.813333a39.978667 39.978667 0 0 1 36.266666-41.6L82.773333 128h858.368zM793.6 221.013333H230.314667v438.442667a120.021333 120.021333 0 0 0 109.226666 119.04l5.802667 0.426667 5.674667 0.128h321.877333c64.426667 0 117.546667-50.176 120.576-113.92l0.128-5.674667V221.013333z m-93.866667 332.16a40.106667 40.106667 0 0 1 40.149334 37.973334 39.978667 39.978667 0 0 1-36.266667 41.557333l-3.882667 0.213333h-214.613333a40.106667 40.106667 0 0 1-40.149333-37.973333 39.978667 39.978667 0 0 1 36.266666-41.557333l3.882667-0.213334h214.613333z m-348.714666 0a40.106667 40.106667 0 0 1 40.149333 37.973334 39.978667 39.978667 0 0 1-36.266667 41.557333l-3.882666 0.213333h-26.837334a40.106667 40.106667 0 0 1-40.149333-37.973333 39.978667 39.978667 0 0 1 36.266667-41.557333l3.882666-0.213334h26.837334z m348.714666-186.026666a40.106667 40.106667 0 0 1 40.149334 37.973333 39.978667 39.978667 0 0 1-36.266667 41.6l-3.882667 0.170667h-214.613333a40.106667 40.106667 0 0 1-40.149333-37.973334 39.978667 39.978667 0 0 1 36.266666-41.557333l3.882667-0.213333h214.613333z m-348.714666 0c21.461333 0 39.125333 16.725333 40.149333 37.973333a39.978667 39.978667 0 0 1-36.266667 41.6l-3.882666 0.170667h-26.837334a40.106667 40.106667 0 0 1-40.149333-37.973334 39.978667 39.978667 0 0 1 36.266667-41.557333l3.882666-0.213333h26.837334z" /></svg>