<?xml version="1.0" standalone="no"?><!DOCTYPE svg PUBLIC "-//W3C//DTD SVG 1.1//EN" "http://www.w3.org/Graphics/SVG/1.1/DTD/svg11.dtd"><svg class="icon" width="128px" height="128.00px" viewBox="0 0 1024 1024" version="1.1" xmlns="http://www.w3.org/2000/svg"><path fill="#666666" d="M672.426667 508.16V245.333333a160 160 0 0 0-320 0v261.973334a245.333333 245.333333 0 0 0 106.24 426.666666A247.893333 247.893333 0 0 0 512 938.666667a244.906667 244.906667 0 0 0 160.853333-430.506667z m-46.506667 326.4a182.186667 182.186667 0 0 1-154.026667 35.84A179.626667 179.626667 0 0 1 333.653333 725.333333a181.76 181.76 0 0 1 69.973334-177.92 32.853333 32.853333 0 0 0 12.8-26.026666V245.333333a96 96 0 1 1 192 0v277.76a31.573333 31.573333 0 0 0 12.8 25.6 181.333333 181.333333 0 0 1 4.693333 285.866667zM544.426667 602.88V298.666667a32 32 0 1 0-64 0v304.213333a96 96 0 1 0 64 0zM512 725.333333a32 32 0 1 1 32-32 32.426667 32.426667 0 0 1-32 32z" /></svg>