<?xml version="1.0" standalone="no"?><!DOCTYPE svg PUBLIC "-//W3C//DTD SVG 1.1//EN" "http://www.w3.org/Graphics/SVG/1.1/DTD/svg11.dtd"><svg class="icon" width="128px" height="128.00px" viewBox="0 0 1024 1024" version="1.1" xmlns="http://www.w3.org/2000/svg"><path fill="#666666" d="M542.933333 167.338667a132.010667 132.010667 0 0 1 130.816-1.28 136.789333 136.789333 0 0 1 69.674667 112.682666l0.170667 7.168v452.266667c0 47.36-24.149333 91.392-63.786667 116.224a132.010667 132.010667 0 0 1-130.688 5.632l-6.186667-3.328-186.965333-108.8H219.306667c-71.978667 0-131.114667-57.856-133.973334-131.114667l-0.128-5.418666V412.757333c0-73.301333 56.789333-133.546667 128.725334-136.490666l5.376-0.085334h136.533333l187.050667-108.8v-0.042666z m117.333334 84.138666a60.330667 60.330667 0 0 0-77.312-21.461333l-3.712 1.962667-177.024 102.997333v354.048l177.066666 102.997333c6.272 3.669333 13.141333 6.144 20.266667 7.338667l5.418667 0.682667 4.522666 0.170666a61.44 61.44 0 0 0 60.842667-58.026666l0.128-4.053334V285.866667c0-9.258667-2.048-18.346667-5.973333-26.709334l-2.048-4.096-2.218667-3.626666v0.042666zM316.842667 350.592H219.349333c-30.592 0-56.448 23.125333-60.458666 54.016l-0.384 4.010667-0.128 4.053333v198.656c0 32.682667 24.917333 59.776 56.96 61.952l4.010666 0.085333h97.536V350.592z m480.426666 11.050667a36.650667 36.650667 0 0 1 22.229334-17.322667 36.010667 36.010667 0 0 1 27.733333 3.754667A186.752 186.752 0 0 1 938.666667 509.354667c0 66.474667-34.816 128-91.392 161.237333a36.266667 36.266667 0 0 1-48.896-14.208 37.632 37.632 0 0 1 12.288-50.218667 112.042667 112.042667 0 0 0 54.869333-96.853333c0-39.936-20.906667-76.8-54.869333-96.768a37.205333 37.205333 0 0 1-17.066667-22.613333 37.845333 37.845333 0 0 1 3.712-28.288z" /></svg>