<?xml version="1.0" standalone="no"?><!DOCTYPE svg PUBLIC "-//W3C//DTD SVG 1.1//EN" "http://www.w3.org/Graphics/SVG/1.1/DTD/svg11.dtd"><svg class="icon" width="128px" height="128.00px" viewBox="0 0 1024 1024" version="1.1" xmlns="http://www.w3.org/2000/svg"><path fill="#666666" d="M698.88 938.666667H325.12a117.333333 117.333333 0 0 1-117.333333-117.333334V245.333333A31.573333 31.573333 0 0 1 239.786667 213.333333h544.426666a31.573333 31.573333 0 0 1 32 32v576A117.333333 117.333333 0 0 1 698.88 938.666667zM271.786667 277.333333v544a53.333333 53.333333 0 0 0 53.333333 53.333334h373.76a53.333333 53.333333 0 0 0 53.333333-53.333334V277.333333zM396.373333 256l-61.013333-20.053333 30.293333-97.706667A74.666667 74.666667 0 0 1 436.906667 85.333333h150.613333a74.666667 74.666667 0 0 1 71.253333 52.906667l29.866667 97.706667-61.013333 20.053333L597.333333 157.013333a9.813333 9.813333 0 0 0-9.813333-7.68h-150.613333a10.666667 10.666667 0 0 0-10.24 7.68zM394.666667 446.293333m32 0l0 0q32 0 32 32l0 177.493334q0 32-32 32l0 0q-32 0-32-32l0-177.493334q0-32 32-32ZM565.333333 446.293333m32 0l0 0q32 0 32 32l0 177.493334q0 32-32 32l0 0q-32 0-32-32l0-177.493334q0-32 32-32ZM853.333333 277.333333H170.666667A32 32 0 0 1 170.666667 213.333333h682.666666a32 32 0 0 1 0 64z" /></svg>