<?xml version="1.0" standalone="no"?><!DOCTYPE svg PUBLIC "-//W3C//DTD SVG 1.1//EN" "http://www.w3.org/Graphics/SVG/1.1/DTD/svg11.dtd"><svg class="icon" width="128px" height="128.00px" viewBox="0 0 1024 1024" version="1.1" xmlns="http://www.w3.org/2000/svg"><path fill="#666666" d="M785.06666667 68.26666667a170.66666667 170.66666667 0 1 1-167.25333334 204.8L546.13333333 273.06666667l0 477.86666666 71.68 0a170.66666667 170.66666667 0 1 1 0 68.26666667L477.86666667 819.2l0-273.06666667-68.26666667 0 0 68.26666667a136.53333333 136.53333333 0 0 1-136.53333333 136.53333333l-68.26666667 0a136.53333333 136.53333333 0 0 1-136.53333333-136.53333333l0-204.8a136.53333333 136.53333333 0 0 1 136.53333333-136.53333333l68.26666667 0a136.53333333 136.53333333 0 0 1 136.53333333 136.53333333l0 68.26666667 68.26666667 0 0-273.06666667 139.94666666 0a170.66666667 170.66666667 0 0 1 167.25333334-136.53333333zM682.66666667 785.06666666A102.4 102.4 0 1 0 785.06666666 682.66666667 102.4 102.4 0 0 0 682.66666667 785.06666666z m-341.33333334-375.46666665a68.26666667 68.26666667 0 0 0-68.26666667-68.26666668l-68.26666666 0a68.26666667 68.26666667 0 0 0-68.26666667 68.26666667l0 204.8a68.26666667 68.26666667 0 0 0 68.26666667 68.26666667l68.26666666 0a68.26666667 68.26666667 0 0 0 68.26666667-68.26666668l0-204.79999998z m341.33333334-170.66666667a102.4 102.4 0 1 0 102.4-102.40000001 102.4 102.4 0 0 0-102.4 102.40000001z" /></svg>