<?xml version="1.0" standalone="no"?><!DOCTYPE svg PUBLIC "-//W3C//DTD SVG 1.1//EN" "http://www.w3.org/Graphics/SVG/1.1/DTD/svg11.dtd"><svg class="icon" width="128px" height="128.00px" viewBox="0 0 1024 1024" version="1.1" xmlns="http://www.w3.org/2000/svg"><path fill="#666666" d="M526.378667 42.666667l6.485333 0.085333a212.352 212.352 0 0 1 206.208 211.968 39.168 39.168 0 0 1-39.253333 39.125333 39.168 39.168 0 0 1-39.210667-39.125333 134.016 134.016 0 0 0-128.554667-133.717333l-5.674666-0.128h-35.754667l-6.101333 0.128a169.728 169.728 0 0 0-163.797334 163.285333l-0.085333 6.101333v78.208l-0.213333 3.754667a39.04 39.04 0 0 1-2.048 9.301333h381.44a195.84 195.84 0 0 1 196.096 189.184l0.085333 6.357334v208.597333a195.84 195.84 0 0 1-189.781333 195.413333l-6.4 0.128H281.429333A195.84 195.84 0 0 1 85.333333 792.106667l-0.085333-6.314667v-208.64A195.754667 195.754667 0 0 1 245.76 384.853333a37.589333 37.589333 0 0 1-3.370667-11.946666l-0.213333-4.309334V290.389333l0.085333-7.082666c3.754667-131.242667 109.653333-236.8 241.28-240.554667L490.666667 42.666667h35.754666z m173.482666 417.194666H281.386667a117.546667 117.546667 0 0 0-117.546667 111.786667l-0.128 5.546667v208.597333a117.504 117.504 0 0 0 112.128 117.205333l5.546667 0.128h418.474666a117.546667 117.546667 0 0 0 117.546667-111.786666l0.128-5.546667v-208.64a117.504 117.504 0 0 0-112.128-117.162667l-5.546667-0.128z m-196.181333 104.277334c20.224 0 37.12 15.317333 39.082667 35.370666l0.170666 3.754667v156.458667a39.168 39.168 0 1 1-78.293333 3.754666l-0.170667-3.754666v-156.458667a39.04 39.04 0 0 1 39.253334-39.125333z" /></svg>