<?xml version="1.0" standalone="no"?><!DOCTYPE svg PUBLIC "-//W3C//DTD SVG 1.1//EN" "http://www.w3.org/Graphics/SVG/1.1/DTD/svg11.dtd"><svg class="icon" width="128px" height="128.00px" viewBox="0 0 1024 1024" version="1.1" xmlns="http://www.w3.org/2000/svg"><path fill="#666666" d="M733.866667 426.666667L512 410.453333h-4.693333l-154.88 11.52V313.6a162.56 162.56 0 0 1 128-160.853333 160.426667 160.426667 0 0 1 189.44 130.56 31.146667 31.146667 0 0 0 31.146666 26.026666 32 32 0 0 0 31.573334-37.12A223.573333 223.573333 0 0 0 489.813333 85.333333a229.973333 229.973333 0 0 0-201.386666 233.813334V426.666667a118.186667 118.186667 0 0 0-107.093334 116.906666v261.973334a116.906667 116.906667 0 0 0 108.8 117.333333l217.173334 15.786667H512l221.44-15.786667a109.226667 109.226667 0 0 0 109.226667-109.226667v-269.653333A117.76 117.76 0 0 0 733.866667 426.666667z m44.8 379.306666a53.333333 53.333333 0 0 1-49.493334 52.906667l-219.733333 15.786667-213.333333-15.786667a53.333333 53.333333 0 0 1-49.493334-52.906667v-261.973333a53.333333 53.333333 0 0 1 48.213334-53.333333l213.333333-16.213334 219.733333 16.213334a53.76 53.76 0 0 1 49.493334 53.333333zM512 611.413333a53.333333 53.333333 0 0 0-53.333333 53.333334 51.2 51.2 0 0 0 21.333333 42.666666v14.08a32 32 0 0 0 64 0v-14.08a51.2 51.2 0 0 0 21.333333-42.666666A53.333333 53.333333 0 0 0 512 611.413333z" /></svg>