<?xml version="1.0" standalone="no"?><!DOCTYPE svg PUBLIC "-//W3C//DTD SVG 1.1//EN" "http://www.w3.org/Graphics/SVG/1.1/DTD/svg11.dtd"><svg class="icon" width="128px" height="128.00px" viewBox="0 0 1024 1024" version="1.1" xmlns="http://www.w3.org/2000/svg"><path fill="#666666" d="M359.68 398.506667l120.32-118.613334v328.533334a32 32 0 0 0 64 0v-328.533334l120.32 118.613334a32 32 0 1 0 44.8-45.653334l-173.226667-170.666666a30.72 30.72 0 0 0-47.786666 0l-173.226667 170.666666a32 32 0 1 0 42.666667 45.653334zM800 693.333333A32.426667 32.426667 0 0 0 768 725.333333v53.333334a10.666667 10.666667 0 0 1-10.666667 10.666666H266.666667a10.666667 10.666667 0 0 1-10.666667-10.666666V725.333333a32 32 0 0 0-64 0v53.333334A75.093333 75.093333 0 0 0 266.666667 853.333333h490.666666a75.093333 75.093333 0 0 0 74.666667-74.666666V725.333333a32.426667 32.426667 0 0 0-32-32z" /></svg>