<?xml version="1.0" standalone="no"?><!DOCTYPE svg PUBLIC "-//W3C//DTD SVG 1.1//EN" "http://www.w3.org/Graphics/SVG/1.1/DTD/svg11.dtd"><svg class="icon" width="128px" height="128.00px" viewBox="0 0 1024 1024" version="1.1" xmlns="http://www.w3.org/2000/svg"><path fill="#666666" d="M660.138667 106.666667H245.248a159.872 159.872 0 0 0-160 159.744v352.853333c0 98.773333 79.616 178.858667 177.792 178.858667h379.306667c98.176 0 177.792-80.085333 177.792-178.816v-352.853334c0-88.32-71.68-159.786667-160-159.786666zM245.248 178.176h414.890667c49.152 0 88.874667 39.594667 88.874666 88.234667v352.853333a107.008 107.008 0 0 1-106.666666 107.306667h-379.306667a106.368 106.368 0 0 1-75.434667-31.402667 107.605333 107.605333 0 0 1-31.232-75.861333v-352.853334c0-48.64 39.722667-88.277333 88.874667-88.277333z m657.877333 152.618667c18.304 0 33.621333 13.994667 35.413334 32.341333l0.128 3.413333v371.968c0 96.512-76.117333 175.616-172.032 178.730667l-5.76 0.085333h-379.306667a35.626667 35.626667 0 0 1-35.498667-34.048 35.712 35.712 0 0 1 32.085334-37.290666l3.413333-0.170667h379.306667a106.965333 106.965333 0 0 0 106.538666-102.272l0.128-5.034667V366.506667c0-19.754667 15.914667-35.754667 35.584-35.754667zM474.709333 263.936l2.56 2.304 120.746667 121.514667a35.925333 35.925333 0 0 1 1.066667 49.237333 35.413333 35.413333 0 0 1-48.810667 3.669333l-2.56-2.346666-60.074667-60.416v233.941333a35.669333 35.669333 0 0 1-33.834666 35.712 35.626667 35.626667 0 0 1-37.12-32.256l-0.170667-3.456V377.856l-60.074667 60.458667a35.413333 35.413333 0 0 1-47.786666 2.346666l-2.517334-2.346666a35.925333 35.925333 0 0 1-2.304-48l2.304-2.56 120.832-121.514667a35.413333 35.413333 0 0 1 47.744-2.304z" /></svg>