<?xml version="1.0" standalone="no"?><!DOCTYPE svg PUBLIC "-//W3C//DTD SVG 1.1//EN" "http://www.w3.org/Graphics/SVG/1.1/DTD/svg11.dtd"><svg class="icon" width="128px" height="128.00px" viewBox="0 0 1024 1024" version="1.1" xmlns="http://www.w3.org/2000/svg"><path fill="#666666" d="M755.797333 106.666667c98.688 0 179.584 78.933333 182.784 178.261333l0.085334 5.973333v442.197334c0 99.413333-78.293333 180.906667-176.938667 184.149333l-5.973333 0.085333H268.16c-98.688 0-179.584-78.933333-182.784-178.261333l-0.085333-5.973333V290.901333c0-101.76 81.877333-184.234667 182.869333-184.234666a36.693333 36.693333 0 0 1 36.565333 36.864 36.693333 36.693333 0 0 1-36.565333 36.821333 110.08 110.08 0 0 0-109.610667 105.386667l-0.128 5.162666v442.197334a110.165333 110.165333 0 0 0 104.576 110.421333l5.162667 0.128h487.68a110.08 110.08 0 0 0 109.610667-105.386667l0.128-5.162666V290.901333c0-61.013333-49.152-110.506667-109.738667-110.506666a36.693333 36.693333 0 0 1-36.565333-36.864 36.693333 36.693333 0 0 1 36.565333-36.864z m-220.586666 10.666666l2.602666 2.389334 141.994667 143.018666a37.034667 37.034667 0 0 1 1.408 51.029334 36.394667 36.394667 0 0 1-50.517333 3.541333l-2.56-2.432-79.616-80.128v386.432a36.693333 36.693333 0 0 1-34.773334 36.821333 36.693333 36.693333 0 0 1-38.186666-33.28l-0.170667-3.541333V234.709333L395.818667 314.88a36.352 36.352 0 0 1-49.066667 2.346667l-2.645333-2.389334a37.034667 37.034667 0 0 1-2.389334-49.493333l2.389334-2.645333 141.994666-143.018667a36.394667 36.394667 0 0 1 49.109334-2.389333z" /></svg>