<?xml version="1.0" standalone="no"?><!DOCTYPE svg PUBLIC "-//W3C//DTD SVG 1.1//EN" "http://www.w3.org/Graphics/SVG/1.1/DTD/svg11.dtd"><svg class="icon" width="128px" height="128.00px" viewBox="0 0 1024 1024" version="1.1" xmlns="http://www.w3.org/2000/svg"><path fill="#666666" d="M576 288a31.573333 31.573333 0 0 0 32-32v-32a32 32 0 0 0-64 0V256a32 32 0 0 0 32 32zM448 288a31.573333 31.573333 0 0 0 32-32v-32a32 32 0 0 0-64 0V256a32 32 0 0 0 32 32zM778.666667 266.666667h-64v-149.333334A32.426667 32.426667 0 0 0 682.666667 85.333333H341.333333a32.426667 32.426667 0 0 0-32 32v149.333334h-64A32.426667 32.426667 0 0 0 213.333333 298.666667v341.333333a298.666667 298.666667 0 0 0 597.333334 0V298.666667a32.426667 32.426667 0 0 0-32-32zM373.333333 149.333333h277.333334V512a138.666667 138.666667 0 0 1-277.333334 0V149.333333zM746.666667 640a234.666667 234.666667 0 0 1-469.333334 0V330.666667h32V512a202.666667 202.666667 0 0 0 405.333334 0V330.666667h32z" /></svg>