<?xml version="1.0" standalone="no"?><!DOCTYPE svg PUBLIC "-//W3C//DTD SVG 1.1//EN" "http://www.w3.org/Graphics/SVG/1.1/DTD/svg11.dtd"><svg class="icon" width="128px" height="128.00px" viewBox="0 0 1024 1024" version="1.1" xmlns="http://www.w3.org/2000/svg"><path fill="#666666" d="M512 85.333333a426.666667 426.666667 0 1 0 426.666667 426.666667A426.666667 426.666667 0 0 0 512 85.333333z m0 789.333334a362.666667 362.666667 0 1 1 362.666667-362.666667 363.093333 363.093333 0 0 1-362.666667 362.666667zM701.866667 348.16l-240.213334 258.986667-139.52-150.613334a32 32 0 0 0-45.226666 0 32 32 0 0 0 0 45.226667l162.986666 175.786667a32 32 0 0 0 46.933334 0l263.68-284.16a32 32 0 0 0 0-45.226667 31.573333 31.573333 0 0 0-48.64 0z" /></svg>