<?xml version="1.0" standalone="no"?><!DOCTYPE svg PUBLIC "-//W3C//DTD SVG 1.1//EN" "http://www.w3.org/Graphics/SVG/1.1/DTD/svg11.dtd"><svg class="icon" width="128px" height="128.00px" viewBox="0 0 1024 1024" version="1.1" xmlns="http://www.w3.org/2000/svg"><path fill="#666666" d="M682.666667 842.666667H341.333333a32.426667 32.426667 0 0 1-31.573333-32V213.333333A32.426667 32.426667 0 0 1 341.333333 181.333333h341.333334a32.426667 32.426667 0 0 1 32 32v597.333334a32.426667 32.426667 0 0 1-32 32z m-310.186667-64h278.186667V245.333333H373.76zM202.666667 714.666667a32 32 0 0 1-25.6-12.8l-64-85.333334a32 32 0 0 1 0-38.4L162.56 512l-49.493333-66.133333a32 32 0 0 1 0-38.4l64-85.333334a32 32 0 0 1 42.666666-6.4 31.573333 31.573333 0 0 1 6.4 42.666667L178.773333 426.666667l49.493334 65.706666a32.853333 32.853333 0 0 1 0 38.826667L178.773333 597.333333l49.493334 66.133334a32 32 0 0 1-6.4 44.8 31.573333 31.573333 0 0 1-19.2 6.4zM821.333333 714.666667a31.573333 31.573333 0 0 1-19.2-6.4 32 32 0 0 1-6.4-44.8L845.226667 597.333333l-49.493334-66.133333a32.853333 32.853333 0 0 1 0-38.826667L845.226667 426.666667l-49.493334-66.133334a31.573333 31.573333 0 0 1 6.4-42.666666 32 32 0 0 1 44.8 6.4l64 85.333333a32 32 0 0 1 0 38.4L861.44 512l49.493333 66.133333a32 32 0 0 1 0 38.4l-64 85.333334a32 32 0 0 1-25.6 12.8z" /></svg>