<?xml version="1.0" standalone="no"?><!DOCTYPE svg PUBLIC "-//W3C//DTD SVG 1.1//EN" "http://www.w3.org/Graphics/SVG/1.1/DTD/svg11.dtd"><svg class="icon" width="128px" height="128.00px" viewBox="0 0 1024 1024" version="1.1" xmlns="http://www.w3.org/2000/svg"><path fill="#666666" d="M448 665.6a56.32 56.32 0 0 1-26.026667-6.826667 53.76 53.76 0 0 1-27.306666-46.506666v-200.533334a53.76 53.76 0 0 1 27.306666-46.506666 52.906667 52.906667 0 0 1 53.76 0L640 466.773333a53.333333 53.333333 0 0 1 23.466667 45.226667 52.48 52.48 0 0 1-23.466667 45.226667l-162.56 100.266666a53.76 53.76 0 0 1-29.44 8.106667z m10.666667-234.666667v162.133334l130.986666-81.066667z m145.92 72.106667zM821.333333 885.333333H202.666667A117.333333 117.333333 0 0 1 85.333333 768V256a117.333333 117.333333 0 0 1 117.333334-117.333333h618.666666A117.333333 117.333333 0 0 1 938.666667 256v512a117.333333 117.333333 0 0 1-117.333334 117.333333z m-618.666666-682.666666A53.333333 53.333333 0 0 0 149.333333 256v512a53.333333 53.333333 0 0 0 53.333334 53.333333h618.666666A53.333333 53.333333 0 0 0 874.666667 768V256a53.333333 53.333333 0 0 0-53.333334-53.333333z" /></svg>