<?xml version="1.0" standalone="no"?><!DOCTYPE svg PUBLIC "-//W3C//DTD SVG 1.1//EN" "http://www.w3.org/Graphics/SVG/1.1/DTD/svg11.dtd"><svg class="icon" width="128px" height="128.00px" viewBox="0 0 1024 1024" version="1.1" xmlns="http://www.w3.org/2000/svg"><path fill="#666666" d="M904.106667 281.6a52.48 52.48 0 0 0-57.6 13.653333l-125.013334 134.826667v-85.333333a120.746667 120.746667 0 0 0-120.746666-120.746667H206.08A120.746667 120.746667 0 0 0 85.333333 344.746667v334.506666a120.746667 120.746667 0 0 0 120.746667 120.746667h394.666667a120.746667 120.746667 0 0 0 120.746666-120.746667v-85.333333l125.013334 134.826667a52.906667 52.906667 0 0 0 38.826666 17.066666 47.36 47.36 0 0 0 18.773334-3.413333 55.04 55.04 0 0 0 34.56-51.626667V333.226667a55.04 55.04 0 0 0-34.56-51.626667z m-246.613334 397.653333a56.746667 56.746667 0 0 1-56.746666 56.746667H206.08a57.173333 57.173333 0 0 1-56.746667-56.746667V344.746667a57.173333 57.173333 0 0 1 56.746667-56.746667h394.666667a56.746667 56.746667 0 0 1 56.746666 56.746667z m217.173334-14.506666L733.013333 512l141.653334-152.746667z" /></svg>