<?xml version="1.0" standalone="no"?><!DOCTYPE svg PUBLIC "-//W3C//DTD SVG 1.1//EN" "http://www.w3.org/Graphics/SVG/1.1/DTD/svg11.dtd"><svg class="icon" width="128px" height="128.00px" viewBox="0 0 1024 1024" version="1.1" xmlns="http://www.w3.org/2000/svg"><path fill="#666666" d="M512 42.666667C356.224 42.666667 229.973333 166.528 229.973333 319.317333v131.754667c0 152.789333 126.250667 276.650667 282.026667 276.650667 155.818667 0 282.026667-123.861333 282.026667-276.650667V319.317333C794.026667 166.570667 667.861333 42.666667 512 42.666667z m0 79.061333c111.274667 0 201.472 88.448 201.472 197.589333v131.754667c0 109.141333-90.197333 197.589333-201.472 197.589333-111.274667 0-201.472-88.448-201.472-197.589333V319.317333c0-109.141333 90.197333-197.589333 201.472-197.589333zM224.853333 642.56c57.130667 100.352 166.272 164.138667 287.146667 164.138667 120.874667 0 230.058667-63.786667 287.146667-164.138667a40.704 40.704 0 0 1 54.869333-15.274667c19.413333 10.666667 26.368 34.730667 15.530667 53.76-62.677333 110.165333-175.36 184.832-303.786667 201.258667v59.477333a39.850667 39.850667 0 0 1-38.4 39.466667 40.064 40.064 0 0 1-42.026667-35.669333l-0.213333-3.797334V884.906667c-139.52-8.832-263.68-86.058667-330.666667-203.776a39.125333 39.125333 0 0 1 15.530667-53.76 40.704 40.704 0 0 1 54.826667 15.232z m186.325334-336.469333c20.778667 0 38.101333 15.488 40.106666 35.754666l0.213334 3.797334v110.208a39.850667 39.850667 0 0 1-38.4 39.466666 40.064 40.064 0 0 1-42.026667-35.669333l-0.170667-3.84V345.728c0-21.845333 18.048-39.552 40.277334-39.552z" /></svg>