<?xml version="1.0" standalone="no"?><!DOCTYPE svg PUBLIC "-//W3C//DTD SVG 1.1//EN" "http://www.w3.org/Graphics/SVG/1.1/DTD/svg11.dtd"><svg class="icon" width="128px" height="128.00px" viewBox="0 0 1024 1024" version="1.1" xmlns="http://www.w3.org/2000/svg"><path fill="#666666" d="M853.333333 213.333333l-331.52-128a30.72 30.72 0 0 0-23.04 0L170.666667 213.333333a32 32 0 0 0-20.48 29.866667v272.213333A436.906667 436.906667 0 0 0 505.6 938.666667h12.8a436.906667 436.906667 0 0 0 357.12-422.4V243.626667A32 32 0 0 0 853.333333 213.333333z m-42.666666 302.08a372.053333 372.053333 0 0 1-298.666667 358.4 372.053333 372.053333 0 0 1-298.666667-358.4V265.813333l298.666667-114.346666 298.666667 114.346666zM386.56 418.56a89.173333 89.173333 0 0 0 42.666667 170.666667 85.333333 85.333333 0 0 0 60.16-54.186667h74.24v7.253333a32 32 0 0 0 64 0v-7.253333H640a32 32 0 0 0 0-64h-148.906667a89.173333 89.173333 0 0 0-104.533333-52.48z m22.186667 111.36a25.173333 25.173333 0 0 1-24.746667-25.173333 24.746667 24.746667 0 0 1 24.746667-24.746667 25.173333 25.173333 0 0 1 25.173333 24.746667 25.6 25.6 0 0 1-25.173333 25.173333z" /></svg>