<?xml version="1.0" standalone="no"?><!DOCTYPE svg PUBLIC "-//W3C//DTD SVG 1.1//EN" "http://www.w3.org/Graphics/SVG/1.1/DTD/svg11.dtd"><svg class="icon" width="128px" height="128.00px" viewBox="0 0 1024 1024" version="1.1" xmlns="http://www.w3.org/2000/svg"><path fill="#666666" d="M780.16 128c108.586667 0 197.546667 83.968 201.088 189.781333l0.085333 6.357334v418.389333c0 105.856-86.144 192.597333-194.645333 196.053333l-6.528 0.085334H243.754667C135.168 938.666667 46.208 854.698667 42.666667 748.885333l-0.085334-6.357333V324.138667c0-105.856 86.144-192.597333 194.645334-196.053334L243.754667 128h536.405333z m0 78.464H243.754667c-64.426667 0-117.546667 49.365333-120.576 112.128l-0.128 5.546667v418.389333c0 62.848 50.602667 114.602667 114.986666 117.546667l5.717334 0.128h536.405333c64.426667 0 117.546667-49.365333 120.576-112.128l0.128-5.546667v-67.456h-122.837333c-78.037333 0-142.122667-60.032-145.28-136.021333l-0.085334-5.717334c0-76.074667 61.568-138.581333 139.52-141.653333l5.845334-0.085333h122.88V324.096c0-62.848-50.688-114.602667-115.029334-117.546667l-5.717333-0.128z m120.746667 263.594667h-122.88c-32.512 0-60.032 23.466667-64.341334 54.869333l-0.426666 4.266667-0.128 4.138666c0 33.322667 26.453333 60.970667 60.586666 63.146667l4.309334 0.128h122.88v-126.549333zM404.650667 297.984c21.418667 0 39.125333 16.426667 40.106666 37.333333a39.552 39.552 0 0 1-36.266666 40.96l-3.84 0.170667H243.712a39.808 39.808 0 0 1-40.192-37.376 39.552 39.552 0 0 1 36.309333-40.917333l3.84-0.170667h160.938667z" /></svg>