<?xml version="1.0" standalone="no"?><!DOCTYPE svg PUBLIC "-//W3C//DTD SVG 1.1//EN" "http://www.w3.org/Graphics/SVG/1.1/DTD/svg11.dtd"><svg class="icon" width="128px" height="128.00px" viewBox="0 0 1024 1024" version="1.1" xmlns="http://www.w3.org/2000/svg"><path fill="#666666" d="M857.6 294.4V245.333333a106.666667 106.666667 0 0 0-106.666667-106.666666H192A106.666667 106.666667 0 0 0 85.333333 245.333333V768a117.333333 117.333333 0 0 0 117.333334 117.333333h618.666666A117.333333 117.333333 0 0 0 938.666667 768V405.333333a117.333333 117.333333 0 0 0-81.066667-110.933333zM192 202.666667h558.933333a42.666667 42.666667 0 0 1 42.666667 42.666666v42.666667H192a42.666667 42.666667 0 0 1 0-85.333333zM874.666667 768a53.333333 53.333333 0 0 1-53.333334 53.333333H202.666667A53.333333 53.333333 0 0 1 149.333333 768V341.333333l13.653334 4.266667 7.68 4.266667a121.173333 121.173333 0 0 0 21.76 2.133333h631.466666A53.76 53.76 0 0 1 874.666667 405.333333zM706.56 586.666667m-53.333333 0a53.333333 53.333333 0 1 0 106.666666 0 53.333333 53.333333 0 1 0-106.666666 0Z" /></svg>