<?xml version="1.0" standalone="no"?><!DOCTYPE svg PUBLIC "-//W3C//DTD SVG 1.1//EN" "http://www.w3.org/Graphics/SVG/1.1/DTD/svg11.dtd"><svg class="icon" width="128px" height="128.00px" viewBox="0 0 1024 1024" version="1.1" xmlns="http://www.w3.org/2000/svg"><path fill="#666666" d="M372.266667 147.626667A158.549333 158.549333 0 0 1 511.573333 64c58.026667 0 111.488 32 139.392 83.541333l310.869334 574.549334a162.389333 162.389333 0 0 1-2.688 159.146666 158.464 158.464 0 0 1-136.618667 78.762667H201.472a158.464 158.464 0 0 1-136.576-78.72 162.389333 162.389333 0 0 1-2.816-159.018667L372.266667 147.626667z m173.994666 12.970666a71.466667 71.466667 0 0 0-54.954666-5.973333c-18.346667 5.461333-33.834667 18.090667-43.008 35.072l-310.186667 574.592a73.813333 73.813333 0 0 0 1.28 72.277333c13.013333 22.186667 36.608 35.754667 62.08 35.754667h621.056c25.514667 0 49.066667-13.610667 62.08-35.797333a73.813333 73.813333 0 0 0 1.28-72.32L574.933333 189.610667a72.661333 72.661333 0 0 0-28.714666-29.013334z m-34.133333 551.04c23.893333 0 43.306667 19.626667 43.306667 43.818667s-19.413333 43.818667-43.349334 43.818667c-23.893333 0-43.306667-19.626667-43.306666-43.818667s19.413333-43.818667 43.306666-43.818667z m0-379.904a40.96 40.96 0 0 1 29.866667 12.970667 41.984 41.984 0 0 1 11.264 30.848l-13.866667 280.618667a27.477333 27.477333 0 0 1-27.306667 26.368 27.477333 27.477333 0 0 1-27.306666-26.368l-13.824-280.618667a41.984 41.984 0 0 1 11.306666-30.848 40.96 40.96 0 0 1 29.866667-12.970667z" /></svg>