<?xml version="1.0" standalone="no"?><!DOCTYPE svg PUBLIC "-//W3C//DTD SVG 1.1//EN" "http://www.w3.org/Graphics/SVG/1.1/DTD/svg11.dtd"><svg class="icon" width="128px" height="128.00px" viewBox="0 0 1024 1024" version="1.1" xmlns="http://www.w3.org/2000/svg"><path fill="#666666" d="M906.666667 673.28a32.426667 32.426667 0 0 1-29.44-19.2 398.506667 398.506667 0 0 0-730.453334 0 32 32 0 0 1-58.88-25.6 462.506667 462.506667 0 0 1 848.213334 0 32.426667 32.426667 0 0 1-16.64 42.666667 34.133333 34.133333 0 0 1-12.8 2.133333zM512 714.666667a203.093333 203.093333 0 0 1-175.36-101.12 32 32 0 0 1 11.52-42.666667 32.426667 32.426667 0 0 1 42.666667 11.52 138.666667 138.666667 0 0 0 240.213333 0 32 32 0 1 1 55.04 32.426667A203.093333 203.093333 0 0 1 512 714.666667z" /></svg>