<?xml version="1.0" standalone="no"?><!DOCTYPE svg PUBLIC "-//W3C//DTD SVG 1.1//EN" "http://www.w3.org/Graphics/SVG/1.1/DTD/svg11.dtd"><svg class="icon" width="128px" height="128.00px" viewBox="0 0 1024 1024" version="1.1" xmlns="http://www.w3.org/2000/svg"><path fill="#666666" d="M512 85.333333a426.666667 426.666667 0 1 0 426.666667 426.666667A426.666667 426.666667 0 0 0 512 85.333333z m0 789.333334c-44.8 0-92.586667-59.733333-121.6-157.866667A849.92 849.92 0 0 0 512 725.333333a849.92 849.92 0 0 0 121.6-8.533333c-29.013333 98.133333-76.8 157.866667-121.6 157.866667z m0-213.333334a755.626667 755.626667 0 0 1-137.386667-11.946666A755.626667 755.626667 0 0 1 362.666667 512a755.626667 755.626667 0 0 1 11.946666-137.386667A755.626667 755.626667 0 0 1 512 362.666667a755.626667 755.626667 0 0 1 137.386667 11.946666A755.626667 755.626667 0 0 1 661.333333 512a755.626667 755.626667 0 0 1-11.946666 137.386667 755.626667 755.626667 0 0 1-137.386667 11.946666z m-204.8-27.733333c-98.133333-29.013333-157.866667-76.8-157.866667-121.6s59.733333-92.586667 157.866667-121.6a870.826667 870.826667 0 0 0 0 243.2zM512 149.333333c44.8 0 92.586667 59.733333 121.6 157.866667a870.826667 870.826667 0 0 0-243.2 0C419.413333 209.066667 469.333333 149.333333 512 149.333333z m204.8 241.066667c98.133333 29.013333 157.866667 76.8 157.866667 121.6s-59.733333 92.586667-157.866667 121.6A849.92 849.92 0 0 0 725.333333 512a849.92 849.92 0 0 0-8.533333-121.6z m132.693333-9.813333a480.853333 480.853333 0 0 0-146.346666-59.733334 480.853333 480.853333 0 0 0-59.733334-146.346666 362.666667 362.666667 0 0 1 206.08 206.08z m-469.333333-206.08a480.853333 480.853333 0 0 0-59.733333 146.346666 480.853333 480.853333 0 0 0-146.346667 59.733334 362.666667 362.666667 0 0 1 206.506667-206.08z m-206.08 469.333333a480.853333 480.853333 0 0 0 146.346667 59.733333 480.853333 480.853333 0 0 0 59.733333 146.346667 362.666667 362.666667 0 0 1-205.653333-206.506667z m469.333333 206.08a480.853333 480.853333 0 0 0 59.733334-146.346667 480.853333 480.853333 0 0 0 146.346666-59.733333 362.666667 362.666667 0 0 1-206.08 205.653333z" /></svg>