<?xml version="1.0" standalone="no"?><!DOCTYPE svg PUBLIC "-//W3C//DTD SVG 1.1//EN" "http://www.w3.org/Graphics/SVG/1.1/DTD/svg11.dtd"><svg class="icon" width="128px" height="128.00px" viewBox="0 0 1024 1024" version="1.1" xmlns="http://www.w3.org/2000/svg"><path fill="#666666" d="M938.666667 815.36L739.84 223.146667a32.853333 32.853333 0 0 0-30.72-21.76h-66.56v-17.493334a130.56 130.56 0 0 0-261.12 0v17.493334H314.453333a32.426667 32.426667 0 0 0-30.293333 21.76L85.333333 815.36a31.146667 31.146667 0 0 0 4.266667 28.586667 31.573333 31.573333 0 0 0 26.026667 13.226666h789.333333a31.573333 31.573333 0 0 0 26.026667-13.226666 31.146667 31.146667 0 0 0 7.68-28.586667zM445.44 183.893333a66.56 66.56 0 0 1 133.12 0v17.493334h-133.12zM161.706667 793.173333L337.92 265.386667h348.16l176.213333 527.786666z" /></svg>