<?xml version="1.0" standalone="no"?><!DOCTYPE svg PUBLIC "-//W3C//DTD SVG 1.1//EN" "http://www.w3.org/Graphics/SVG/1.1/DTD/svg11.dtd"><svg class="icon" width="128px" height="128.00px" viewBox="0 0 1024 1024" version="1.1" xmlns="http://www.w3.org/2000/svg"><path fill="#666666" d="M832 418.986667a32.853333 32.853333 0 0 1-21.333333-9.386667 418.133333 418.133333 0 0 0-597.333334 0 32 32 0 1 1-42.666666-45.226667 482.133333 482.133333 0 0 1 682.666666 0 32 32 0 0 1 0 45.226667 31.573333 31.573333 0 0 1-21.333333 9.386667zM693.76 558.08a32 32 0 0 1-23.04-9.386667 223.573333 223.573333 0 0 0-317.44 0 32 32 0 1 1-45.653333-45.226666 288.426667 288.426667 0 0 1 408.746666 0 32 32 0 0 1 0 45.226666 31.573333 31.573333 0 0 1-22.613333 9.386667zM512 802.56a93.866667 93.866667 0 1 1 93.44-93.44A93.866667 93.866667 0 0 1 512 802.56z m0-123.306667a29.866667 29.866667 0 1 0 29.44 29.866667 29.44 29.44 0 0 0-29.44-29.866667z" /></svg>