<?xml version="1.0" standalone="no"?><!DOCTYPE svg PUBLIC "-//W3C//DTD SVG 1.1//EN" "http://www.w3.org/Graphics/SVG/1.1/DTD/svg11.dtd"><svg class="icon" width="128px" height="128.00px" viewBox="0 0 1024 1024" version="1.1" xmlns="http://www.w3.org/2000/svg"><path fill="#666666" d="M378.453333 618.666667h-256a32 32 0 0 0 0 64h256a96 96 0 1 1-96 96 32 32 0 0 0-64 0 160 160 0 1 0 160-160zM122.453333 405.333333h554.666667a160 160 0 1 0-160-160 32 32 0 0 0 64 0A96 96 0 1 1 677.12 341.333333h-554.666667a32 32 0 0 0 0 64zM773.546667 480H335.786667a32 32 0 0 0 0 64h426.666666a21.333333 21.333333 0 0 0 5.546667 0 21.333333 21.333333 0 0 0 5.546667 0A96 96 0 1 1 677.546667 640a32 32 0 0 0-64 0 160 160 0 1 0 160-160z" /></svg>