<?xml version="1.0" standalone="no"?><!DOCTYPE svg PUBLIC "-//W3C//DTD SVG 1.1//EN" "http://www.w3.org/Graphics/SVG/1.1/DTD/svg11.dtd"><svg class="icon" width="128px" height="128.00px" viewBox="0 0 1024 1024" version="1.1" xmlns="http://www.w3.org/2000/svg"><path fill="#666666" d="M864 277.333333h-195.413333a159.573333 159.573333 0 0 0-313.173334 0H160A75.093333 75.093333 0 0 0 85.333333 352v448a75.093333 75.093333 0 0 0 74.666667 74.666667h704A75.093333 75.093333 0 0 0 938.666667 800V352a75.093333 75.093333 0 0 0-74.666667-74.666667zM384 341.333333h477.44l-65.706667 181.333334a31.573333 31.573333 0 0 1-29.866666 21.333333H258.133333a32 32 0 0 1-29.866666-21.333333L162.986667 341.333333z m128-128a96 96 0 0 1 90.453333 64H421.546667A96 96 0 0 1 512 213.333333z m352 597.333334H160a10.666667 10.666667 0 0 1-10.666667-10.666667v-307.2l18.773334 51.626667a96 96 0 0 0 90.026666 63.573333H768a96 96 0 0 0 90.026667-63.573333l18.773333-51.2v306.773333a10.666667 10.666667 0 0 1-12.8 10.666667z" /></svg>