<?xml version="1.0" standalone="no"?><!DOCTYPE svg PUBLIC "-//W3C//DTD SVG 1.1//EN" "http://www.w3.org/Graphics/SVG/1.1/DTD/svg11.dtd"><svg class="icon" width="128px" height="128.00px" viewBox="0 0 1024 1024" version="1.1" xmlns="http://www.w3.org/2000/svg"><path fill="#666666" d="M808.83762569 58.39378963h-54.88842272c-13.59265185 0-24.72568098 11.13302914-24.725681 24.72568098s11.13302914 24.72568098 24.725681 24.725681h54.88842272c54.37060741 0 98.6438163 44.27320889 98.64381628 98.77327012v618.01257086c0 54.50006124-44.40266272 98.77327013-98.90272394 98.77327013H215.42128197c-54.50006124 0-98.77327013-44.27320889-98.77327012-98.77327013V206.61842173c0-54.50006124 44.27320889-98.77327013 98.77327012-98.77327012h58.1247684c13.59265185 0 24.72568098-11.13302914 24.72568099-24.725681s-11.13302914-24.72568098-24.72568099-24.72568098h-58.1247684c-81.68536494 0-148.2246321 66.53926717-148.2246321 148.2246321v618.01257086c0 81.68536494 66.53926717 148.2246321 148.2246321 148.2246321h593.28688988c81.68536494 0 148.2246321-66.53926717 148.2246321-148.2246321V206.61842173c-0.12945383-81.68536494-66.53926717-148.2246321-148.09517826-148.2246321zM417.88706765 125.32141827h187.19023408c24.59622717 0 44.53211653-16.57008987 44.53211654-37.02379457s-19.93588939-37.02379457-44.53211654-37.02379456H417.88706765c-24.59622717 0-44.53211653 16.57008987-44.53211654 37.02379456-0.12945383 20.32425086 19.80643555 37.02379457 44.53211654 37.02379457zM740.22709728 360.28011457H280.92491852c-4.01306864 0-7.37886815-3.23634569-7.37886815-7.37886815v-40.00123259c0-4.01306864 3.23634569-7.37886815 7.37886815-7.37886814h459.30217876c4.01306864 0 7.37886815 3.23634569 7.37886815 7.37886814v40.00123259c0 4.14252247-3.3657995 7.37886815-7.37886815 7.37886815z m0 407.26174025H520.54395259c-4.01306864 0-7.37886815-3.23634569-7.37886814-7.37886815v-40.00123259c0-4.01306864 3.23634569-7.37886815 7.37886814-7.37886816h219.68314469c4.01306864 0 7.37886815 3.23634569 7.37886815 7.37886816v40.00123259c0 4.01306864-3.3657995 7.37886815-7.37886815 7.37886815z m-290.23548048 0H284.54962569c-4.01306864 0-7.37886815-3.23634569-7.37886816-7.37886815V454.13413925c0-4.01306864 3.23634569-7.37886815 7.37886816-7.37886814h165.44199111c4.01306864 0 7.37886815 3.23634569 7.37886814 7.37886814v306.02884742c0 4.01306864-3.3657995 7.37886815-7.37886814 7.37886815z m290.23548048-264.99198421H520.54395259c-4.01306864 0-7.37886815-3.23634569-7.37886814-7.37886814v-40.0012326c0-4.01306864 3.23634569-7.37886815 7.37886814-7.37886814h219.68314469c4.01306864 0 7.37886815 3.23634569 7.37886815 7.37886814V495.17100247c0 4.14252247-3.3657995 7.37886815-7.37886815 7.37886814z m0 132.9490805H520.54395259c-4.01306864 0-7.37886815-3.23634569-7.37886814-7.37886814v-40.0012326c0-4.01306864 3.23634569-7.37886815 7.37886814-7.37886815h219.68314469c4.01306864 0 7.37886815 3.23634569 7.37886815 7.37886815v40.0012326c0 4.14252247-3.3657995 7.37886815-7.37886815 7.37886814z" /></svg>