<?xml version="1.0" standalone="no"?><!DOCTYPE svg PUBLIC "-//W3C//DTD SVG 1.1//EN" "http://www.w3.org/Graphics/SVG/1.1/DTD/svg11.dtd"><svg class="icon" width="128px" height="128.00px" viewBox="0 0 1024 1024" version="1.1" xmlns="http://www.w3.org/2000/svg"><path fill="#666666" d="M839.15 69.65H786.5a33.75 33.75 0 0 0 0 67.5h52.65a56.25 56.25 0 0 1 56.25 55.8v510.75a56.25 56.25 0 0 1-56.25 55.8H184.85a56.25 56.25 0 0 1-56.25-55.8V192.95a56.25 56.25 0 0 1 56.25-55.8h429.3a33.75 33.75 0 0 0 0-67.5H184.85A123.75 123.75 0 0 0 62 192.95v510.75A123.75 123.75 0 0 0 184.85 827h293.4v45H328.85a33.75 33.75 0 1 0 0 67.5h367.2a33.75 33.75 0 1 0 0-67.5h-150.3v-45h293.4A123.75 123.75 0 0 0 962 703.7V192.95A123.75 123.75 0 0 0 839.15 69.65zM750.05 322.55H407.15a33.75 33.75 0 0 0 0 67.5h342.9a33.75 33.75 0 0 0 0-67.5zM273.95 322.55a33.75 33.75 0 1 0 0 67.5h3.6a32.4 32.4 0 0 0 31.95-33.75 35.1 35.1 0 0 0-35.55-33.75zM750.05 502.55H407.15a33.75 33.75 0 0 0 0 67.5h342.9a33.75 33.75 0 0 0 0-67.5zM273.95 502.55a33.75 33.75 0 0 0 0 67.5h3.6a32.4 32.4 0 0 0 31.95-33.75 35.1 35.1 0 0 0-35.55-33.75z" /></svg>