<?xml version="1.0" standalone="no"?><!DOCTYPE svg PUBLIC "-//W3C//DTD SVG 1.1//EN" "http://www.w3.org/Graphics/SVG/1.1/DTD/svg11.dtd"><svg class="icon" width="128px" height="128.00px" viewBox="0 0 1024 1024" version="1.1" xmlns="http://www.w3.org/2000/svg"><path fill="#666666" d="M454.69999971 901.98500029a335.22000029 335.22000029 0 0 0 117.42000029 58.64999942c2.385 0.64500029 11.72999971 1.08 25.56 1.35h-355.65000029a30.015 30.015 0 0 1 0-59.99999942H454.69999971z m279.75000058-501.01500058l2.745 0.61500058a270.70499971 270.70499971 0 0 1 108.36 58.78499942l5.36999942 4.92000029a29.09999971 29.09999971 0 0 1 9.09 24.45000029l-5.63999942 50.33999971a7.065 7.065 0 0 0 4.34999971 7.29l47.85000029 20.44500029a29.99999971 29.99999971 0 0 1 16.57499942 17.48999971l0.72 2.36999971a253.05000029 253.05000029 0 0 1 1.71 120.22500058l-1.71 6.975c-2.295 8.84999971-8.685 16.2-17.30999971 19.87499971l-47.85000029 20.44500029a7.065 7.065 0 0 0-4.33499942 7.29l5.63999942 50.29499972a29.025 29.025 0 0 1-7.31999971 22.65000028l-1.75500001 1.8a270.10500029 270.10500029 0 0 1-106.64999999 61.63499971l-7.09499971 2.05499971c-1.8 0.47999971-3.645 0.81-5.50500029 0.96000029l-2.80500029 0.11999971c-6.49500029 0-12.825-2.00999971-18.07499971-5.715l-42.19499971-29.93999942a7.53000029 7.53000029 0 0 0-8.685 0l-42.19500058 29.93999942a31.34999971 31.34999971 0 0 1-23.65499971 5.22l-2.72999971-0.63a270.72 270.72 0 0 1-108.36-58.77l-5.4-4.93499971a29.09999971 29.09999971 0 0 1-9.07500058-24.435l5.65500058-50.29499971a7.08000029 7.08000029 0 0 0-4.35000058-7.29l-47.84999942-20.44500029a29.99999971 29.99999971 0 0 1-16.57500029-17.48999971l-0.73500029-2.385a253.05000029 253.05000029 0 0 1-1.69499971-120.22500058l1.69499971-6.975c2.31000029-8.84999971 8.70000029-16.17000029 17.325-19.85999942l47.82000058-20.44500029a7.08000029 7.08000029 0 0 0 4.34999971-7.29l-5.64000029-50.29499971a29.025 29.025 0 0 1 7.32000058-22.65000029l1.755-1.8a270.135 270.135 0 0 1 106.65-61.65l7.09499971-2.05499971a31.38000029 31.38000029 0 0 1 26.38500029 4.61999971l42.19499971 29.925a7.53000029 7.53000029 0 0 0 8.70000029 0l42.19499971-29.925a31.30499971 31.30499971 0 0 1 20.89500029-5.60999971l2.745 0.37499942zM811.99999971 62C894.77 62 962 124.75999971 962 201.95v352.00500029a4.57499971 4.57499971 0 0 0-0.87000029-1.41000029l-0.47999971-0.34499971-58.66499971-24.93v-59.49l1.28999971-11.31000029a35.07000029 35.07000029 0 0 0-1.26-14.01000029l-0.02999971-240.49499942C901.99999971 157.87999971 861.65 122.00000029 811.99999971 122.00000029H212.00000029c-49.66499971 0-90 35.84999971-90 79.94999971v500.04c0 44.08499971 40.33500029 79.94999971 90 79.94999971h210.375c3.13499971 1.35 5.175 4.275 5.33999971 7.50000058l-0.045 1.40999942-5.77500029 51.09000028H212.01499971C129.365 841.96999971 62 779.22500029 62 702.01999971V201.96500029C62 124.75999971 129.34999971 62 212.01499971 62H811.99999971z m-77.60999971 400.93499971l-29.62500029 21.00000058a70.04999971 70.04999971 0 0 1-80.955 0l-29.63999971-21.00000058a208.99500029 208.99500029 0 0 0-63.15000029 35.40000058l3.97500029 35.29499942c3.31499971 28.78499971-13.095 56.31000029-40.48499971 67.93500058l-33.57 14.33999971a195.99000029 195.99000029 0 0 0 0 70.65l33.57 14.355c27.38999971 11.62500029 43.80000029 39.15 40.5 67.93499971l-4.005 35.31000058a208.935 208.935 0 0 0 63.14999942 35.39999971l29.6250003-21.03000029a69.77999971 69.77999971 0 0 1 36.53999999-12.76499971l3.96-0.10500029a69.90000029 69.90000029 0 0 1 40.50000001 12.87l29.60999999 21.00000058a208.82999971 208.82999971 0 0 0 63.15000029-35.38500028l-3.96-35.30999972c-3.30000029-28.78499971 13.095-56.31000029 40.46999942-67.92000029l33.58500029-14.31a195.99000029 195.99000029 0 0 0 0-70.66500029l-33.58500029-14.36999942c-27.37500029-11.62500029-43.785-39.15-40.46999942-67.95l3.96-35.28a208.845 208.845 0 0 0-63.15000029-35.40000058z m-70.11 66.45000058c69.345 0 125.74500029 54.64500029 125.74500029 121.815 0 67.185-56.40000029 121.83000029-125.74500029 121.82999942-69.32999971 0-125.73-54.64500029-125.73-121.82999942 0-67.16999971 56.40000029-121.815 125.73-121.815z m0 59.24999971c-35.65500029 0-64.55999971 28.01999971-64.55999971 62.56500029 0 34.56 28.90500029 62.56500029 64.55999971 62.56499942 34.58999971 0 62.82000001-26.34000029 64.50000029-59.42999971l0.07499971-3.12000029c-0.045-33.49500029-27.19500029-60.82499971-61.35000029-62.48999971l-3.22499971-0.07499971z" /></svg>