<?xml version="1.0" standalone="no"?><!DOCTYPE svg PUBLIC "-//W3C//DTD SVG 1.1//EN" "http://www.w3.org/Graphics/SVG/1.1/DTD/svg11.dtd"><svg class="icon" width="128px" height="128.00px" viewBox="0 0 1024 1024" version="1.1" xmlns="http://www.w3.org/2000/svg"><path fill="#666666" d="M718.02 312.48c0-136.87-112.05-248.22-249.78-248.22-137.73 0-249.78 111.35-249.78 248.22 0 90.97 48.28 170.81 120.42 214.93-160.33 60.53-274.79 216.8-274.79 399.58 0 18.1 14.63 32.76 32.69 32.76 18.06 0 32.69-14.66 32.7-32.76 0-199 144.39-363.18 341.16-363.18 0.68 0 1.37-0.02 2.08-0.06 135.67-2.42 245.3-114.2 245.3-251.27z m-436.73 0c0-102.23 83.87-185.4 186.95-185.4s186.95 83.16 186.96 185.4c0 100.2-77.93 182.37-175.88 188.16-3.77 0.06-7.52 0.18-11.27 0.34-103.01-0.11-186.76-84.63-186.76-188.5zM926.75 892.75H661.41c-18.32 0-33.17 14.85-33.17 33.17s14.85 33.17 33.17 33.17h265.33c18.32 0 33.17-14.85 33.17-33.17s-14.85-33.17-33.16-33.17zM661.2 782.15h265.33c18.32 0 33.17-14.85 33.17-33.17s-14.85-33.17-33.17-33.17H661.2c-18.32 0-33.17 14.85-33.17 33.17s14.85 33.17 33.17 33.17zM802.63 625.06h0.06l125.66-0.25c17.34-0.04 31.38-14.86 31.35-33.11-0.03-18.22-14.09-32.97-31.41-32.97h-0.06l-125.66 0.25c-17.34 0.04-31.38 14.86-31.35 33.11 0.02 18.22 14.08 32.97 31.41 32.97z" /></svg>