<?xml version="1.0" standalone="no"?><!DOCTYPE svg PUBLIC "-//W3C//DTD SVG 1.1//EN" "http://www.w3.org/Graphics/SVG/1.1/DTD/svg11.dtd"><svg class="icon" width="128px" height="128.00px" viewBox="0 0 1024 1024" version="1.1" xmlns="http://www.w3.org/2000/svg"><path fill="#666666" d="M851.4 64.3H172.6c-59.7 0-108 48.8-108 109.1v583.7c0 60.2 48.3 109.1 108 109.1H373c7.1 0 14.1 2.5 19.6 7l96.9 79.4c11.1 9.2 27.2 9.4 38.5 0.5l103.7-80.4c5.4-4.2 12.1-6.5 18.9-6.5h200.8c59.7 0 108-48.8 108-109.1V173.4c0-60.2-48.3-109.1-108-109.1z m47 692.8c0 26.5-21.1 48.1-47 48.1H650.6a91.8 91.8 0 0 0-56.3 19.3l-84.7 65.7-78.3-64.2c-16.4-13.4-37-20.8-58.2-20.8H172.6c-25.9 0-47-21.6-47-48.1V173.4c0-26.5 21.1-48.1 47-48.1h678.8c25.9 0 47 21.6 47 48.1v583.7zM625.1 286h0.1c0.1 0 0.1 0 0.2-0.1l-0.3 0.1zM663.2 301.4l-0.4-0.7c-0.4-0.7-0.7-1.3-1.1-1.9l-0.7-1c-2.5-3.7-5.8-6.8-9.7-9.1l0.9 0.5c-0.7-0.5-1.5-0.9-2.2-1.3l-0.8-0.4c-3.7-1.9-7.8-3-12-3.2h-1.9c-3.5 0-6.8 0.6-10.1 1.7-4 1.4-7.7 3.5-10.8 6.3l-2.4 2.2c-1.1 1.2-2.1 2.5-2.9 3.9l0.1-0.2c-0.2 0.2-0.3 0.5-0.5 0.8s-0.4 0.6-0.5 0.9-0.5 0.8-0.7 1.2l-0.3 0.5 0.1-0.2c-0.1 0.2-0.3 0.5-0.4 0.8L461.7 592.8l-1.7 3.9c-5.5 16.3 3.3 34.1 19.6 39.6 14.8 5 30.9-1.7 37.9-15.6l33-66h169.6l33 66 2.2 3.7c9.8 14.2 29.2 17.8 43.4 8.1 12.8-8.8 17.2-25.7 10.2-39.7L663.2 301.4z m-81.5 190.9l53.6-107.2 53.6 107.2H581.7zM424.1 316.6H242.3c-16.8 0-30.5 13.7-30.5 30.5s13.7 30.5 30.5 30.5h181.8c16.8 0 30.5-13.7 30.5-30.5s-13.7-30.5-30.5-30.5zM361.7 495.8H242.9c-16.8 0-30.5 13.7-30.5 30.5s13.7 30.5 30.5 30.5h118.8c16.9 0 30.5-13.7 30.5-30.5s-13.7-30.5-30.5-30.5z" /></svg>