<?xml version="1.0" standalone="no"?><!DOCTYPE svg PUBLIC "-//W3C//DTD SVG 1.1//EN" "http://www.w3.org/Graphics/SVG/1.1/DTD/svg11.dtd"><svg class="icon" width="128px" height="128.00px" viewBox="0 0 1024 1024" version="1.1" xmlns="http://www.w3.org/2000/svg"><path fill="#666666" d="M593.578667 85.333333c71.338667 0 128.768 58.154667 131.498666 130.133334l0.128 5.376v151.125333h126.634667a86.613333 86.613333 0 0 1 86.314667 76.842667l0.426666 4.693333 0.085334 4.693333c0 5.674667-0.554667 11.306667-1.664 16.810667l-1.28 5.504-96.512 357.717333a136.234667 136.234667 0 0 1-125.824 100.266667l-5.973334 0.170667H221.781333a136.021333 136.021333 0 0 1-136.362666-130.090667L85.333333 803.2v-295.68A135.936 135.936 0 0 1 216.32 372.053333l5.461333-0.085333h89.088c81.237333 0 147.925333-63.829333 150.997334-144.426667l0.170666-12.117333C464.810667 143.488 522.24 85.333333 593.578667 85.333333zM270.08 445.866667H221.781333c-32.682667 0-59.733333 25.173333-61.866666 57.6l-0.170667 4.010666v295.68c0 32.426667 25.386667 59.306667 57.984 61.44l4.053333 0.170667h49.237334a36.608 36.608 0 0 1-0.768-4.693333l-0.170667-3.584V445.866667z m323.541333-286.634667c-29.909333 0-55.04 24.96-57.088 57.344l-0.128 4.266667-0.128 7.552c-3.157333 108.288-83.882667 198.826667-191.744 215.04v413.013333a36.394667 36.394667 0 0 1-0.981333 8.32h363.861333c26.453333 0 50.005333-16.64 58.624-41.514667l1.28-4.181333 96.512-357.674667a12.245333 12.245333 0 0 0-9.770666-15.317333l-2.218667-0.170667h-163.84a37.12 37.12 0 0 1-37.12-33.408l-0.128-3.584V220.842667c0-34.432-26.026667-61.610667-57.173333-61.610667z" /></svg>