<?xml version="1.0" standalone="no"?><!DOCTYPE svg PUBLIC "-//W3C//DTD SVG 1.1//EN" "http://www.w3.org/Graphics/SVG/1.1/DTD/svg11.dtd"><svg class="icon" width="128px" height="128.00px" viewBox="0 0 1024 1024" version="1.1" xmlns="http://www.w3.org/2000/svg"><path fill="#666666" d="M615.18 448.42a30.52 30.52 0 0 0-22.24 7.12C566.23 478.17 539.21 489 511 489s-55.24-10.81-81.94-33.44a30.51 30.51 0 0 0-39.44 46.56C427 533.67 467.7 550 511 550s84-16.31 121.35-47.88a30.5 30.5 0 0 0-17.18-53.68zM638.36 897.83h-254a30.5 30.5 0 0 0 0 61h254a30.5 30.5 0 0 0 0-61zM512 65.17c-194.06 0-351.38 157.32-351.38 351.38 0 133.11 74 248.92 183.14 308.55a16.14 16.14 0 0 1 8.46 14.15v17.58a75 75 0 0 0 75 75h169.56a75 75 0 0 0 75-75v-17.57a16.16 16.16 0 0 1 8.46-14.16c109.12-59.63 183.14-175.44 183.14-308.55 0-194.06-157.32-351.38-351.38-351.38z m139 606.4a77.13 77.13 0 0 0-40.22 67.69v17.57a14 14 0 0 1-14 14H427.22a14 14 0 0 1-14-14v-17.58A77.13 77.13 0 0 0 373 671.57a290.33 290.33 0 0 1-151.39-255 290.38 290.38 0 1 1 538.95 150.2A292.12 292.12 0 0 1 651 671.57z" /></svg>