<?xml version="1.0" standalone="no"?><!DOCTYPE svg PUBLIC "-//W3C//DTD SVG 1.1//EN" "http://www.w3.org/Graphics/SVG/1.1/DTD/svg11.dtd"><svg class="icon" width="128px" height="128.00px" viewBox="0 0 1024 1024" version="1.1" xmlns="http://www.w3.org/2000/svg"><path fill="#666666" d="M898.26121531 747.73003924L115.8760536 747.73003924c-27.14080476 0-49.143808-22.00300324-49.143808-49.143808L66.7322456 147.18106313c0-27.14080476 22.0017617-49.14504955 49.143808-49.14504954l782.38516293 0c27.1420463 0 49.14504955 22.0017617 49.14504953 49.14504954l0 551.40392778C947.40750761 725.727036 925.40326161 747.73003924 898.26121531 747.73003924zM887.44910666 167.82168579c0-5.42965153-4.39886249-9.82975556-9.82230387-9.82975556L132.5860151 157.99193023c-5.42716723 0-9.82727126 4.40010403-9.82727126 9.82975556L122.75874506 682.86110834c0 5.42716723 4.40010403 9.82478697 9.82727125 9.82478696l745.0358191 0c5.43089308 0 9.82602972-4.39886249 9.82602971-9.82478696L887.44786391 167.82168579 887.44910666 167.82168579zM692.83734293 332.94790868l104.18795194 0 0 302.72789133-104.18795194 0L692.83734293 332.94790868zM526.72752299 239.57206661l105.16906469 0 0 396.1037334-105.16906469 0L526.72752299 239.57206661zM362.5836544 427.30610627l104.18919349 0 0 208.36969374-104.18919349 0L362.5836544 427.30610627 362.5836544 427.30610627zM217.11694143 519.69710975l104.18546764 0 0 115.98117456-104.18546764 0L217.11694143 519.69710975zM368.48275001 787.04533443c0-5.42716723 4.40010403-9.82602972 9.82975556-9.82602972L633.8612975 777.21930471c5.43089308 0 9.82727126 4.40134557 9.82727126 9.82602972l0 83.54608772L811.7655816 870.59142095l0 58.97356234L198.43854427 929.56498329l0-58.97356234 170.0429642 0L368.48150726 787.04533443z" /></svg>